SplineFontDB: 2.0
FontName: Mekorot-Vilna-Bold-Italic
FullName: Mekorot Vilna Font Bold Italic
FamilyName: Mekorot-Vilna
Weight: Bold
Copyright: Copyright .51 2002-2004 by Maxim Iorsh (iorsh@math.technion.ac.il). Distributed under the terms of GNU General Public License version 2(http://www.gnu.org/licenses/gpl.html). \nLatin glyphs, digits and punctuation Copyright (URW)++,Copyright 1999 by (URW)++ Design & Development.\nBolded (even more...) and slanted by Moshe Wagner (moshe.wagner@gmail.com) For use in the mekorot project (mekorot.sf.net)\nAll rights reserved.
Version: 0.100
ItalicAngle: -15
UnderlinePosition: -100
UnderlineWidth: 50
Ascent: 960
Descent: 240
NeedsXUIDChange: 1
UniqueID: 4173161
FSType: 0
OS2Version: 0
OS2_WeightWidthSlopeOnly: 0
OS2_UseTypoMetrics: 0
CreationTime: 1195722669
ModificationTime: 1227555696
PfmFamily: 17
TTFWeight: 700
TTFWidth: 5
LineGap: 108
VLineGap: 0
OS2TypoAscent: 0
OS2TypoAOffset: 1
OS2TypoDescent: 0
OS2TypoDOffset: 1
OS2TypoLinegap: 108
OS2WinAscent: 0
OS2WinAOffset: 1
OS2WinDescent: 0
OS2WinDOffset: 1
HheadAscent: 0
HheadAOffset: 1
HheadDescent: 0
HheadDOffset: 1
OS2Vendor: 'PfEd'
Lookup: 258 0 0 "'kern' Horizontal Kerning lookup 0"  {"'kern' Horizontal Kerning lookup 0 subtable"  } ['kern' ('DFLT' <'dflt' > ) ]
Lookup: 258 0 0 "'kern' Horizontal Kerning in Latin lookup 0"  {"'kern' Horizontal Kerning in Latin lookup 0 subtable"  } ['kern' ('latn' <'dflt' > ) ]
DEI: 0
LangName: 1033 
Encoding: Custom
UnicodeInterp: none
NameList: Adobe Glyph List
DisplaySize: -24
AntiAlias: 1
FitToEm: 1
WinInfo: 0 42 18
BeginPrivate: 7
BlueValues 31 [-20 0 461 481 600 650 676 696]
BlueScale 8 0.039625
StdHW 4 [33]
StdVW 5 [140]
StemSnapH 200 [33 44 48 55 66 73] 
systemdict /internaldict known
{1183615869 systemdict /internaldict get exec
/StemSnapLength 2 copy known { get 6 lt } { pop pop true } ifelse }
{ true } ifelse { pop [33 66] } if
StemSnapV 208 [118 140 148 163 174 178] 
systemdict /internaldict known

StartChar: exclam
Encoding: 33 33 1
Width: 333
Flags: HMW
Validated: 33
HStem: -13 169<143 189> 671 20<139 192.5>
VStem: 82 169<48 93.5 47 94.5>
Fore
287.257 70 m 0
 272.258 14.0225 213.927 -30.5 156.827 -30.5 c 0
 96.5273 -30.5 69.333 18.0371 83.792 72 c 0
 98.5 126.888 156.427 173.5 212.489 173.5 c 0
 269.423 173.5 302.402 126.527 287.257 70 c 0
253.759 216.5 m 1
 193.263 216.5 l 1
 195.804 232.16 l 2
 215.722 354.912 219.105 402.444 215.406 496.846 c 0
 213.637 541.962 214.565 563.783 221.858 591 c 0
 241.555 664.511 292.446 708.5 355.842 708.5 c 0
 418.557 708.5 445.463 664.167 425.322 589 c 0
 418.52 563.611 407.589 541.047 381.789 496.737 c 0
 326.314 401.459 305.52 355.03 259.61 232.16 c 2
 253.759 216.5 l 1
EndSplineSet
EndChar
StartChar: quotedbl
Encoding: 34 34 2
Width: 555
Flags: HMW
Validated: 33
HStem: 671 20<128 165.5 388 425.5>
Fore
285.477 386.5 m 1
 216.594 386.5 l 1
 217.148 400.122 l 2
 217.85 417.361 218.94 441.96 218.997 447.45 c 0
 219.359 481.968 222.396 585.541 231.629 620 c 0
 245.311 671.062 287.941 708.5 336.842 708.5 c 0
 383.436 708.5 409.505 671.789 396.7 624 c 0
 389.565 597.371 354.984 525.727 292.245 400.057 c 2
 285.477 386.5 l 1
545.452 386.5 m 1
 476.74 386.5 l 1
 477.142 399.946 l 2
 477.611 415.708 478.634 438.669 479.013 448.55 c 0
 480.371 484.048 482.468 585.811 491.629 620 c 0
 505.311 671.062 547.942 708.5 596.842 708.5 c 0
 643.436 708.5 669.505 671.789 656.7 624 c 0
 649.454 596.958 608.309 511.952 552.229 400.027 c 2
 545.452 386.5 l 1
EndSplineSet
EndChar
StartChar: numbersign
Encoding: 35 35 3
Width: 500
Flags: HMW
Validated: 1
HStem: 0 20 210 73<4 100 4 111 189 291 4 178 380 467> 417 73<33 129 33 139 33 207 217 320 408 496>
Fore
565.019 300.5 m 1
 536.08 192.5 l 1
 435.829 192.5 l 1
 350.56 -17.5 l 1
 237.228 -17.5 l 1
 322.497 192.5 l 1
 244.829 192.5 l 1
 159.56 -17.5 l 1
 46.2275 -17.5 l 1
 131.497 192.5 l 1
 38.0801 192.5 l 1
 67.0186 300.5 l 1
 176.212 300.5 l 1
 216.038 399.5 l 1
 122.546 399.5 l 1
 151.484 507.5 l 1
 259.807 507.5 l 1
 346.075 717.5 l 1
 458.337 717.5 l 1
 373.067 507.5 l 1
 450.807 507.5 l 1
 537.075 717.5 l 1
 649.337 717.5 l 1
 564.067 507.5 l 1
 649.484 507.5 l 1
 620.546 399.5 l 1
 520.353 399.5 l 1
 480.526 300.5 l 1
 565.019 300.5 l 1
407.038 399.5 m 1
 329.353 399.5 l 1
 289.526 300.5 l 1
 367.212 300.5 l 1
 407.038 399.5 l 1
EndSplineSet
EndChar
StartChar: dollar
Encoding: 36 36 4
Width: 570
Flags: W
Validated: 33
HStem: 463.5 21G<570.27 627.553> 617.83 53.42<483.861 544.998>
Fore
622.194 463.5 m 1
 570.549 463.5 l 1
 570.27 476.126 l 2
 568.339 563.729 541.484 600.84 469.547 617.83 c 1
 421.312 437.817 l 1
 533.809 392.686 560.314 371.207 585.556 331.988 c 0
 606.254 299.831 610.153 254.35 596.734 204.272 c 0
 581.283 146.606 549.71 97.6738 503.562 63.0039 c 0
 462.099 31.8545 416.52 14.2354 304.002 0.00878906 c 1
 277.473 -99 l 1
 187.473 -99 l 1
 213.044 -3.56641 l 1
 167.164 -0.670898 139.435 5.75977 66.9434 37.8682 c 2
 57.292 42.1426 l 1
 105.121 220.643 l 1
 155.777 215.921 l 1
 156.236 205.103 l 2
 160.129 113.146 183.269 77.0879 229.657 62.166 c 1
 285.426 270.297 l 1
 170.956 334.827 134.914 395.275 159.188 485.865 c 0
 176.799 551.593 225.936 608.521 295.846 641.735 c 0
 333.243 660.23 358.421 665.744 393.546 670.074 c 1
 414.962 750 l 1
 504.962 750 l 1
 483.861 671.25 l 1
 584.541 660.009 617.74 648.55 656.537 623.552 c 2
 663.822 618.857 l 1
 622.194 463.5 l 1
432.905 134 m 0
 443.739 174.435 437.287 188.574 362.856 219.656 c 1
 318.028 52.3545 l 1
 383.899 64.7676 420.913 89.2432 432.905 134 c 0
307.443 554 m 0
 299.803 525.483 306.334 499.824 341.643 480.101 c 1
 379.278 620.56 l 1
 337.771 607.238 316.604 588.184 307.443 554 c 0
EndSplineSet
EndChar
StartChar: percent
Encoding: 37 37 5
Width: 1070
Flags: W
Validated: 33
HStem: -14 81<652.04 803.078> 276.5 81<316.52 450.534> 303.5 86<886.687 947.962> 567.5 55.5<671.019 762.207> 672 20<488.227 561.69 915.095 991.65>
Fore
564.846 608.812 m 0xd8
 561.837 611.38 559.908 612.298 558.405 613.06 c 0
 558.067 613.23 557.915 613.553 557.712 613.632 c 1
 557.501 613.632 556.125 613.517 553.752 612.7 c 0
 541.134 608.361 522.779 595.938 498.233 571.207 c 0
 446.415 518.999 392.311 434.983 378.78 394.885 c 0
 378.56 394.231 377.976 392.288 377.8 391.633 c 0
 372.312 371.153 381.66 357.5 401.17 357.5 c 0
 432.413 357.5 462.393 379.509 493.544 410.888 c 0
 556.304 474.105 585.739 537.366 594.215 569 c 0
 598.242 584.028 596.438 590.815 582.826 596.656 c 0
 579.264 598.185 576.263 599.059 572.075 602.376 c 0
 570.458 603.657 570.322 604.14 564.846 608.812 c 0xd8
919.556 692 m 2
 991.65 692 l 1
 359.588 -8 l 1
 264.466 -8 l 1
 781.911 579.52 l 1
 743.506 569.616 715.664 567.5 697.288 567.5 c 0
 685.346 567.5 675.213 568.299 665.97 569.479 c 1
 640.551 487.539 607.119 432.588 548.043 373.125 c 0
 485.994 310.672 414.798 276.5 344.588 276.5 c 0
 256.688 276.5 215.028 339.723 237.5 423.589 c 0
 272.247 553.266 421.484 678 554.969 678 c 0
 568.412 678 600.026 677.882 637.189 647.791 c 0
 662.714 627.123 680.809 623 718.527 623 c 0
 787.594 623 861.66 652.572 883.59 673.65 c 0
 888.299 678.176 890.872 680.517 896.324 684.109 c 0
 902.459 688.15 910.634 692 919.556 692 c 2
946.726 252.755 m 0
 954.022 279.989 945.678 303.5 923.709 303.5 c 0xb8
 911.265 303.5 890.82 300.712 850.492 262.179 c 0
 783.251 217.379 723.102 134.733 714.558 102.848 c 0
 707.276 75.6719 719.67 67 743.475 67 c 0
 764.664 67 807.369 75.5205 868.186 136.8 c 0
 913.024 181.979 937.716 219.132 946.726 252.755 c 0
913.853 389.5 m 0
 999.085 389.5 1037.42 337.452 1017.34 262.508 c 0
 998.868 193.575 946.14 105.787 859.897 42.0068 c 0
 813.174 10.6016 746.844 -14 681.749 -14 c 0
 591.449 -14 547.566 46.8994 571.439 135.995 c 0
 621.981 264.669 785.154 389.5 913.853 389.5 c 0
EndSplineSet
EndChar
StartChar: ampersand
Encoding: 38 38 6
Width: 833
Flags: W
Validated: 33
HStem: -33.5 136<587.264 745.103> -32.5 111<223.732 386.86> 640.5 68<508.466 644.607>
Fore
676.46 436.5 m 1x60
 917.46 436.5 l 1
 902.067 379.053 l 1
 885.792 377.575 l 2
 849.85 374.312 839.941 371.006 817.553 345.81 c 2
 778.728 301.771 l 2
 741.898 260.66 725.491 243.359 659.188 176.433 c 1
 691.482 114.982 708.051 102.5 736.465 102.5 c 0
 753.741 102.5 767.297 109.652 787.647 132.324 c 2
 800.656 146.818 l 1
 842.503 116.9 l 1
 806.249 75.8584 l 2
 770 34.5596 750.422 15.6035 728.092 1.20898 c 0
 703.419 -14.6953 656.424 -33.5 615.023 -33.5 c 0xa0
 559.505 -33.5 526.631 -11.9102 485.771 48.6904 c 1
 392.83 -6.98145 318.646 -32.5 244.292 -32.5 c 0
 122.233 -32.5 57.4414 48.2988 87.6396 161 c 0
 114.001 259.381 186.01 325.904 339.575 395.353 c 1
 322.307 454.37 319.539 489.045 331.317 533 c 0
 360.142 640.574 462.148 708.5 590.842 708.5 c 0
 702.414 708.5 760.391 652.7 737.963 569 c 0
 719.565 500.34 659.637 453.347 554.365 414.763 c 1
 631.645 238.187 l 1
 693.399 297.11 712.408 323.486 720.354 354 c 0
 724.165 368.632 724.299 368.081 713.936 371.175 c 0
 706.824 373.297 695.142 375.291 676.121 377.622 c 2
 661.174 379.453 l 1
 676.46 436.5 l 1x60
382.478 276.277 m 2
 359.324 334.348 l 1
 313.24 309.34 296.364 290.592 289.238 264 c 0
 277.01 218.363 286.706 158.299 316.478 115.109 c 0
 328.478 97.7002 352.48 78.5 383.034 78.5 c 0x60
 400.749 78.5 420.508 84.6631 454.919 104.015 c 1
 437.456 140.518 422.189 177.418 382.478 276.277 c 2
529.533 472.782 m 1
 566.178 486 584.051 502.151 592.316 533 c 0
 606.88 587.35 587.29 640.5 546.621 640.5 c 0
 519.021 640.5 506.856 620.85 501.806 602 c 0
 493.059 569.355 499.101 532.18 529.533 472.782 c 1
EndSplineSet
EndChar
StartChar: quotesingle
Encoding: 39 39 7
Width: 278
Flags: HMW
Validated: 33
HStem: 671 20<120 157.5>
Fore
277.506 386.5 m 1
 208.74 386.5 l 1
 209.142 399.946 l 2
 209.611 415.694 210.654 438.635 211.01 448.523 c 0
 212.288 484.025 214.467 585.809 223.629 620 c 0
 237.311 671.062 279.941 708.5 328.842 708.5 c 0
 375.436 708.5 401.505 671.789 388.7 624 c 0
 382.815 602.036 361.036 554.531 284.262 400.091 c 2
 277.506 386.5 l 1
EndSplineSet
EndChar
StartChar: parenleft
Encoding: 40 40 8
Width: 333
Flags: HMW
Validated: 33
HStem: 674 20<306 306>
VStem: 46 113<213.5 323.5>
Fore
517.265 723.139 m 1
 499.713 657.635 l 1
 490.527 652.439 l 2
 423.99 614.804 394.812 591.107 364.072 549.531 c 0
 326.445 498.641 286.307 409.804 245.631 258 c 0
 209.23 122.153 199.891 32.4336 211.977 -25.4883 c 0
 220.766 -67.6143 237.496 -91.5264 281.797 -125.204 c 2
 288.571 -130.354 l 1
 270.188 -198.963 l 1
 247.941 -182.992 l 2
 162.846 -121.907 129.664 -80.3193 102.519 -6.38379 c 0
 73.5938 72.3926 72.6582 164.801 97.8984 259 c 0
 130.623 381.13 204.88 508.396 327.941 610.969 c 0
 378.677 653.256 416.363 676.137 487.873 709.448 c 2
 517.265 723.139 l 1
EndSplineSet
EndChar
StartChar: parenright
Encoding: 41 41 9
Width: 333
Flags: HMW
Validated: 33
HStem: 674 20<27 27>
VStem: 174 113<202 312 202 336>
Fore
-43.3232 -197.139 m 1
 -25.7715 -131.635 l 1
 -16.5859 -126.439 l 2
 50.1074 -88.7148 79.9209 -64.5996 109.761 -23.6787 c 0
 147.016 27.4102 187.635 116.196 228.311 268 c 0
 264.437 402.824 274.042 493.612 261.965 551.488 c 0
 253.205 593.472 236.261 616.535 191.992 651.321 c 2
 185.407 656.496 l 1
 203.753 724.963 l 1
 226 708.992 l 2
 311.095 647.907 344.276 606.319 371.423 532.383 c 0
 400.347 453.605 401.273 361.164 375.774 266 c 0
 340.354 133.811 259.514 10.4355 145.055 -84.9229 c 0
 94.7979 -126.793 57.5586 -150.146 -13.9316 -183.448 c 2
 -43.3232 -197.139 l 1
EndSplineSet
EndChar
StartChar: asterisk
Encoding: 42 42 10
Width: 500
Flags: HMW
Validated: 33
HStem: 671 20<237 266>
VStem: 226 52<472 476 468 479 468 479>
Fore
420.232 524.259 m 1
 440.211 538.043 453.646 549.877 481.838 579.774 c 0
 516.318 616.337 535.406 626.5 562.87 626.5 c 0
 597.82 626.5 624.312 596.425 614.283 559 c 0
 607.321 533.017 578.503 505.062 550.308 493.943 c 0
 539.88 489.832 527.745 486.325 496.498 485.51 c 0
 466.821 484.736 453.84 482.455 435.055 473.7 c 1
 452.738 465.692 466.036 463.449 498.796 460.441 c 0
 520.099 458.485 551.455 455.721 565.45 436.1 c 0
 568.203 432.241 570.179 427.809 571.306 423.041 c 0
 573.572 413.451 572.458 402.905 569.536 392 c 0
 560.021 356.487 524.85 324.5 484.949 324.5 c 0
 450 324.5 435.099 342.235 414.161 394.13 c 0
 407.849 409.773 403.563 417.845 393.625 426.104 c 1
 390.499 400.529 391.872 387.847 399.228 356.974 c 0
 402.568 342.951 407.132 327.048 401.761 307 c 0
 391.964 270.438 355.738 237.5 314.638 237.5 c 0
 275.338 237.5 257.562 268.938 269.101 312 c 0
 275.036 334.152 284.707 347.898 301.281 367.626 c 0
 321.772 392.016 329.113 403.823 335.855 423.163 c 1
 309.664 405.757 298.147 394.566 274.494 369.275 c 0
 240.948 333.408 220.628 321.5 193.146 321.5 c 0
 155.72 321.5 133.708 351.59 143.732 389 c 0
 151.61 418.4 177.687 461.309 265.508 462.49 c 0
 291.191 462.836 302.668 463.877 321.993 473.153 c 1
 301.544 482.14 287.503 484.461 253.212 487.559 c 0
 241.445 488.621 214.064 490.03 198.003 502.675 c 0
 193.709 506.056 185.909 513.642 184.425 528.178 c 0
 183.506 537.19 184.995 546.729 187.748 557 c 0
 198 595.263 231.767 623.5 271.066 623.5 c 0
 304.001 623.5 320.66 609.882 334.658 570.235 c 0
 343.896 544.07 347.229 534.356 363.943 521.206 c 1
 367.241 540.662 365.51 552.538 357.946 579.619 c 0
 351.724 601.9 347.686 616.481 354.256 641 c 0
 365.107 681.5 405.204 708.5 441.842 708.5 c 0
 481.142 708.5 498.694 676.225 487.916 636 c 0
 481.848 613.355 471.466 599.255 454.28 579.153 c 0
 437.586 559.626 427.098 544.877 420.232 524.259 c 1
EndSplineSet
EndChar
StartChar: plus
Encoding: 43 43 11
Width: 570
Flags: HMW
Validated: 1
HStem: 0 20 209 88<33 241 33 241 329 537>
VStem: 241 88<0 209 0 209 297 506>
Fore
307.77 314.5 m 1
 363.771 523.5 l 1
 486.771 523.5 l 1
 430.77 314.5 l 1
 638.77 314.5 l 1
 605.812 191.5 l 1
 397.812 191.5 l 1
 341.811 -17.5 l 1
 218.811 -17.5 l 1
 274.812 191.5 l 1
 66.8125 191.5 l 1
 99.7695 314.5 l 1
 307.77 314.5 l 1
EndSplineSet
EndChar
StartChar: comma
Encoding: 44 44 12
Width: 250
Flags: W
Validated: 33
HStem: -204.449 376.949<-5.12305 168.222 128.759 130.405>
VStem: -17.2334 268.183<-152.261 39 -191.724 -190.078> 40.792 210.158<10.0072 151.933>
Fore
-5.12305 -204.449 m 1xa0
 -17.2334 -152.261 l 1xc0
 -2.45312 -143.618 l 2
 96.9473 -85.4971 124.42 -49.5225 130.533 -26 c 0
 130.949 -24.4004 131.301 -22.2979 130.57 -21.5293 c 1
 130.405 -21.4648 l 1
 130.396 -21.4863 130.346 -21.5 130.239 -21.5 c 0
 129.046 -21.5 129.031 -21.5146 128.746 -21.6016 c 2
 127.326 -22.0361 l 1
 125.912 -22.2617 l 2
 117.746 -23.5635 109.679 -23.5 105.703 -23.5 c 0
 53.2939 -23.5 25.7939 16.0264 40.792 72 c 0
 56.6133 131.044 107.922 172.5 168.222 172.5 c 0
 239.321 172.5 271.619 116.138 250.95 39 c 0
 225.854 -54.6611 152.562 -125.579 13.4619 -195.154 c 2
 -5.12305 -204.449 l 1xa0
EndSplineSet
EndChar
StartChar: hyphen
Encoding: 45 45 13
Width: 333
Flags: HMW
Validated: 1
HStem: 171 116<44 287 44 287>
VStem: 44 243<171 287 171 287>
Fore
386.091 304.5 m 1
 345.63 153.5 l 1
 67.6299 153.5 l 1
 108.091 304.5 l 1
 386.091 304.5 l 1
EndSplineSet
EndChar
StartChar: period
Encoding: 46 46 14
Width: 250
Flags: HMW
Validated: 33
HStem: -13 20
Fore
246.257 70 m 0
 231.258 14.0225 172.927 -30.5 115.827 -30.5 c 0
 55.5273 -30.5 28.333 18.0371 42.792 72 c 0
 57.5 126.888 115.427 173.5 171.489 173.5 c 0
 228.423 173.5 261.402 126.527 246.257 70 c 0
EndSplineSet
EndChar
StartChar: slash
Encoding: 47 47 15
Width: 278
Flags: HMW
Validated: 1
HStem: -19 20 671 20<212 302 302 302>
Fore
516.101 708.5 m 1
 68.8447 -36.5 l 1
 -58.0391 -36.5 l 1
 389.217 708.5 l 1
 516.101 708.5 l 1
EndSplineSet
EndChar
StartChar: zero
Encoding: 48 48 16
Width: 570
Flags: W
Validated: 33
HStem: -13 63<264.646 335.594> 625 63<402.026 486.242>
VStem: 115.071 521.234<142.702 228.627 339.881 419.116 337.023 339.881 339.881 339.881>
Fore
469.349 688 m 0
 631.358 688 688.068 530.208 636.305 337.023 c 0
 584.237 142.702 444.404 -13 282.863 -13 c 0
 118.316 -13 61.0928 138.432 115.071 339.881 c 0
 136.302 419.116 183.53 512.589 232.84 569.164 c 0
 294.106 639.454 376.966 688 469.349 688 c 0
414.261 228.627 m 2
 472.1 444.487 l 2
 511.787 592.601 489.124 625 451.121 625 c 0
 414.037 625 376.594 595.612 336.1 444.487 c 2
 278.261 228.627 l 2
 238.766 81.2305 259.508 50 299.744 50 c 0
 319.709 50 335.78 57.6826 352.8 79.5703 c 0
 368.9 100.273 397.912 167.613 414.261 228.627 c 2
EndSplineSet
EndChar
StartChar: one
Encoding: 49 49 17
Width: 535
Flags: W
Validated: 33
HStem: -35 58.8242<73.3838 191.107 388.796 467.622> 668 20G<463.63 553.349>
VStem: 57.6221 495.727<-35 688 -49.5275 -33.692>
Fore
515.227 688 m 1
 553.349 688 l 1
 395.929 100.5 l 2
 378.522 35.5381 385.061 25.792 466.314 23.9961 c 2
 483.329 23.6191 l 1
 467.622 -35 l 1
 57.6221 -35 l 1
 73.3838 23.8242 l 1
 90.7539 23.999 l 2
 181.404 24.9121 195.956 37.1562 214.536 106.5 c 2
 317.697 491.5 l 2
 324.133 517.423 324.362 525.28 323.366 532.761 c 0
 322.984 535.626 322.996 543 312.996 543 c 0
 305.449 543 285.002 538.859 251.422 527.63 c 1
 246.272 525.143 238.561 522.414 227.072 518.898 c 2
 201.981 511.22 l 1
 218.534 572.997 l 1
 515.227 688 l 1
EndSplineSet
EndChar
StartChar: two
Encoding: 50 50 18
Width: 570
Flags: W
Validated: 33
HStem: -35 168<266.896 490.283> 539 149<323.629 518.426>
Fore
608.663 211 m 1
 490.283 -35 l 1
 7.62207 -35 l 1
 20.3262 12.4121 l 1
 26.4004 17.458 l 2
 215.491 173.592 265.503 213.999 352.72 291.073 c 0
 417.025 350.286 442.665 401.812 450.084 429.5 c 0
 455.182 448.523 453.588 474.679 445.005 492.596 c 0
 429.756 524.435 398.446 539 352.366 539 c 0
 295.796 539 257.957 514.54 215.054 458.674 c 2
 207.625 449 l 1
 143.597 449 l 1
 158.744 472.621 l 2
 207.208 548.195 239.664 585.869 290.986 626.787 c 0
 340.248 665.932 411.487 688 479.917 688 c 0
 606.275 688 667.663 603.334 636.625 487.5 c 0
 614.699 405.672 557.828 334.36 455.365 256.812 c 2
 266.896 133 l 1
 391.774 133 l 2
 497.799 133 502.523 138.399 543.868 200.038 c 2
 551.221 211 l 1
 608.663 211 l 1
EndSplineSet
EndChar
StartChar: three
Encoding: 51 51 19
Width: 570
Flags: W
Validated: 33
HStem: -14 85<170.045 351.187> 481.947 21G<180.94 223.322> 572 116<351.431 522.793>
VStem: 41.0537 564.019<93.5 390.96>
Fore
210.583 481.947 m 1
 167.905 510.742 l 1
 179.935 525.743 l 2
 273.343 642.222 374.716 688 490.13 688 c 0
 615.126 688 668.345 632.002 643.917 540.837 c 0
 629.946 488.699 606.307 456.581 546.966 422.114 c 1
 565.124 411.389 578.67 399.854 591.438 379.239 c 0
 613.77 343.189 617.782 297.753 605.073 250.321 c 0
 564.915 100.448 392.404 -14 187.529 -14 c 0
 80.4492 -14 23.7705 29 41.0537 93.5 c 0
 52.8984 137.707 96.6572 169 143.783 169 c 0
 180.641 169 210.907 148.861 247.957 108.969 c 0
 277.633 77.0156 292.242 71 313.001 71 c 0
 371.57 71 417.604 106.754 433.195 164.938 c 0
 444.134 205.763 434.522 243.518 409.226 267.053 c 0
 377.135 296.908 346.759 311.253 256.229 338.306 c 2
 244.675 342.136 l 1
 255.256 381.625 l 1
 269.397 385.235 l 2
 378.973 410.915 422.521 437.881 437.044 492.083 c 0
 449.851 539.878 423.679 572 358.713 572 c 0
 308.508 572 275.372 554.67 223.322 496.247 c 2
 210.583 481.947 l 1
EndSplineSet
EndChar
StartChar: four
Encoding: 52 52 20
Width: 570
Flags: W
Validated: 1
HStem: -17.5 21G<296.65 482.67> 126.5 146<184.23 335.235 555.017 578.896> 668 20G<538.891 666.349>
Fore
666.349 688 m 1
 555.017 272.5 l 1
 618.017 272.5 l 1
 578.896 126.5 l 1
 515.896 126.5 l 1
 477.311 -17.5 l 1
 296.65 -17.5 l 1
 335.235 126.5 l 1
 52.8955 126.5 l 1
 89.2197 262.062 l 1
 93.0713 266.345 l 2
 178.08 358.173 268.302 447.029 474.385 607.486 c 2
 560.211 688 l 1
 666.349 688 l 1
184.23 272.5 m 1
 377.017 272.5 l 1
 437.097 496.723 l 1
 184.23 272.5 l 1
EndSplineSet
EndChar
StartChar: five
Encoding: 53 53 21
Width: 535
Flags: W
Validated: 33
HStem: -8 96<171.949 332.224> 514 162<333.376 594.777>
Fore
317.606 514 m 1
 292.831 469.58 l 1
 358.432 465.395 387.855 461.156 421.308 451.511 c 0
 529.188 420.405 576.789 338.829 548.769 234.257 c 0
 510.657 92.0234 357.744 -8 184.356 -8 c 0
 84.3379 -8 31.1641 34.2002 48.125 97.5 c 0
 59.9736 141.721 102.145 175 148.391 175 c 0
 170.281 175 199.981 168.424 244.875 126.52 c 0
 278.218 95.3965 298.18 88 314.079 88 c 0
 360.661 88 405.662 121.896 417.443 165.865 c 0
 431.532 218.444 399.786 267.319 321.632 292.635 c 0
 282.859 305.194 245.358 310.795 152.259 317.393 c 2
 131.3 318.878 l 1
 333.376 676 l 1
 693.035 676 l 1
 594.777 514 l 1
 317.606 514 l 1
EndSplineSet
EndChar
StartChar: six
Encoding: 54 54 22
Width: 570
Flags: W
Validated: 33
HStem: -13 62<278.852 364.909> 670.678 20G<704.327 719.707>
Fore
704.327 687.824 m 2
 725.066 690.678 l 1
 709.921 634.153 l 1
 695.224 631.468 l 2
 558.684 606.464 454.073 543.104 372.908 431.696 c 1
 399.001 436.588 423.822 438.5 452.106 438.5 c 0
 580.695 438.5 640.652 356.978 606.649 230.078 c 0
 569.184 90.2559 443.058 -13 293.705 -13 c 0
 124.316 -13 55.2998 101.883 101.971 276.062 c 0
 137.25 407.728 228.789 519.942 366.432 596.493 c 0
 479.986 647.391 562.087 669.151 704.327 687.824 c 2
357.161 358.5 m 0
 343.275 358.5 331.96 356.045 325.327 353.839 c 1
 315.479 339.867 299.072 298.198 285.514 248.234 c 0
 264.299 169.799 256.4 97.9951 270.538 67.5342 c 0
 276.427 54.8467 291.175 49 312.99 49 c 0
 354.891 49 373.895 59.3193 404.226 172.516 c 0
 448 335.885 415.3 358.5 357.161 358.5 c 0
EndSplineSet
EndChar
StartChar: seven
Encoding: 55 55 23
Width: 570
Flags: W
Validated: 1
HStem: 504 172<249.07 507.45>
Fore
739.054 676 m 1
 284.804 -35 l 1
 133.771 -35 l 1
 507.45 504 l 1
 296.404 504 l 2
 247.62 504 226.343 485.755 195.71 431.52 c 2
 188.639 419 l 1
 129.271 419 l 1
 249.07 676 l 1
 739.054 676 l 1
EndSplineSet
EndChar
StartChar: eight
Encoding: 56 56 24
Width: 570
Flags: W
Validated: 33
HStem: -13 67<237.345 367.522> 624 64<384.03 509.102>
VStem: 72.3682 598.51<165.584 533.229 134.279 242.236>
Fore
244.068 328.755 m 1
 176.292 381.508 155.567 435.035 174.222 504.654 c 0
 203.698 614.662 320.55 688 487.517 688 c 0
 630.396 688 695.761 626.091 670.878 533.229 c 0
 654.303 471.368 606.404 429.465 518.483 396.938 c 1
 593.017 335.983 615.797 275.415 594.024 194.157 c 0
 560.795 70.1426 437.199 -13 271.281 -13 c 0
 118.996 -13 43.4756 57.7549 72.3682 165.584 c 0
 91.1396 235.64 139.612 272.488 153.014 282.354 c 0
 175.619 298.998 196.812 312.533 244.068 328.755 c 1
357.112 558.5 m 0
 343.263 506.812 388.68 460.799 454.438 427.09 c 1
 490.209 458.544 502.171 478.339 512.932 518.5 c 0
 526.128 567.75 525.198 624 455.549 624 c 0
 407.019 624 366.766 594.525 357.112 558.5 c 0
406.719 144.5 m 0
 423.508 207.157 409.536 235.228 311.465 299.118 c 1
 262.295 252.962 244.605 226.181 231.829 178.5 c 0
 216.888 122.737 218.104 54 296.644 54 c 0
 365.304 54 396.088 104.825 406.719 144.5 c 0
EndSplineSet
EndChar
StartChar: nine
Encoding: 57 57 25
Width: 570
Flags: W
Validated: 33
HStem: -15.6777 21G<32.1578 47.5381> 626 62<386.883 481.837>
Fore
426.229 320.719 m 1
 426.792 322.026 427.599 324.098 429.566 328.969 c 2
 440.139 353.493 l 2
 455.55 396.056 466.066 425.7 472.691 450.428 c 0
 492.092 522.83 492.035 582.298 482.663 602.899 c 0
 476.175 617.162 465.19 626 438.875 626 c 0
 397.185 626 378.03 615.902 348.147 504.377 c 0
 305.521 345.291 333.893 316.5 388.021 316.5 c 0
 400.458 316.5 417.544 318.791 426.229 320.719 c 1
47.5381 -12.8242 m 2
 26.7988 -15.6777 l 1
 41.959 40.9004 l 1
 56.7129 43.5459 l 2
 190.742 67.627 291.773 128.913 379.743 243.629 c 1
 352.942 238.561 325.043 236.5 293.077 236.5 c 0
 170.448 236.5 112.008 320.984 144.958 443.959 c 0
 182.64 584.586 307.827 688 458.161 688 c 0
 627.549 688 696.566 573.117 649.895 398.938 c 0
 616.203 273.198 531.224 166.176 404.014 89.4316 c 0
 290.714 31.6777 197.336 6.84082 47.5381 -12.8242 c 2
EndSplineSet
EndChar
StartChar: colon
Encoding: 58 58 26
Width: 333
Flags: HMW
Validated: 33
HStem: -13 169<143 189> 303 169<143 189.5 143 189.5>
Fore
287.257 70 m 0
 272.258 14.0225 213.927 -30.5 156.827 -30.5 c 0
 96.5273 -30.5 69.333 18.0371 83.792 72 c 0
 98.5 126.888 156.427 173.5 212.489 173.5 c 0
 269.423 173.5 302.402 126.527 287.257 70 c 0
372.196 387 m 0
 357.236 331.17 299.094 285.5 242.499 285.5 c 0
 185.076 285.5 152.911 329.955 168.732 389 c 0
 183.469 443.997 241.402 489.5 297.161 489.5 c 0
 353.793 489.5 387.37 443.629 372.196 387 c 0
EndSplineSet
EndChar
StartChar: semicolon
Encoding: 59 59 27
Width: 333
Flags: W
Validated: 33
HStem: 285.5 204<222.194 316.224>
VStem: 25.7666 346.429<-152.261 387 -178.885 -75.8395>
Fore
372.196 387 m 0
 357.236 331.17 299.094 285.5 242.499 285.5 c 0
 185.076 285.5 152.911 329.955 168.732 389 c 0
 183.469 443.997 241.402 489.5 297.161 489.5 c 0
 353.793 489.5 387.37 443.629 372.196 387 c 0
37.877 -204.449 m 1
 25.7666 -152.261 l 1
 40.5469 -143.618 l 2
 140.378 -85.2451 167.702 -48.7227 173.801 -25 c 0
 174.302 -23.0527 174.038 -22.1484 173.356 -21.3613 c 1
 168.688 -21.5 l 1
 156.151 -23.5 l 1
 146.703 -23.5 l 2
 133.645 -23.5 108.223 -15.835 95.9795 -2.25781 c 0
 79.0195 16.5488 75.8066 42.1963 83.792 72 c 0
 99.6133 131.044 150.921 172.5 211.222 172.5 c 0
 282.321 172.5 314.619 116.138 293.95 39 c 0
 268.854 -54.6611 195.562 -125.579 56.4619 -195.154 c 2
 37.877 -204.449 l 1
EndSplineSet
EndChar
StartChar: less
Encoding: 60 60 28
Width: 570
Flags: HMW
Validated: 1
HStem: -12 20
Fore
546.105 -38.7939 m 1
 66.9746 199.57 l 1
 95.6074 306.43 l 1
 702.478 544.794 l 1
 666.512 410.57 l 1
 265.33 253 l 1
 582.07 95.4297 l 1
 546.105 -38.7939 l 1
EndSplineSet
EndChar
StartChar: equal
Encoding: 61 61 29
Width: 570
Flags: HMW
Validated: 1
HStem: 107 88<33 537 33 537> 311 88<33 537 33 537>
Fore
666.101 416.5 m 1
 633.143 293.5 l 1
 94.1436 293.5 l 1
 127.101 416.5 l 1
 666.101 416.5 l 1
611.439 212.5 m 1
 578.481 89.5 l 1
 39.4814 89.5 l 1
 72.4395 212.5 l 1
 611.439 212.5 l 1
EndSplineSet
EndChar
StartChar: greater
Encoding: 62 62 30
Width: 570
Flags: HMW
Validated: 1
HStem: -12 20
Fore
3.10547 -38.7939 m 1
 39.0703 95.4297 l 1
 440.252 253 l 1
 123.512 410.57 l 1
 159.478 544.794 l 1
 638.607 306.43 l 1
 609.975 199.57 l 1
 3.10547 -38.7939 l 1
EndSplineSet
EndChar
StartChar: question
Encoding: 63 63 31
Width: 500
Flags: W
Validated: 33
HStem: -30.5 204<212.48 305.389> 635.5 71<357.628 422.373>
VStem: 155.792 446.846<72 523 25.1098 109.481> 155.792 203.732<46.1646 149.14>
Fore
327.707 213.5 m 1xc0
 263.835 213.5 l 1
 267.123 229.836 l 2
 273.145 259.749 274.751 265.911 277.722 277 c 0
 286.271 308.906 303.198 335.981 339.918 382.158 c 0
 380.296 432.938 403.549 466.688 418.638 523 c 0
 432.477 574.65 435.575 635.854 382.281 635.5 c 0
 370.863 635.425 353.127 633.96 340.382 623.863 c 0
 338.406 622.299 334.226 618.902 332.753 613 c 0
 332.144 610.559 331.562 609.322 333.03 605.646 c 0
 333.887 603.504 335.774 600.222 338.586 595.77 c 0
 352.144 574.305 355.033 558.067 348.317 533 c 0
 335.753 486.112 294.279 451.5 245.979 451.5 c 0
 194.68 451.5 171.933 494.244 185.532 545 c 0
 211.353 641.361 317.669 706.5 434.306 706.5 c 0
 563.66 706.5 632.139 633.1 602.638 523 c 0
 582.461 447.701 536.252 401.065 424.858 342.108 c 0
 359.838 307.694 350.927 300.155 332.396 231 c 2
 327.707 213.5 l 1xc0
359.524 71 m 0xd0
 344.403 14.5664 287.255 -30.5 230.827 -30.5 c 0
 177.016 -30.5 139.313 10.5 155.792 72 c 0xe0
 170.581 127.193 230.798 173.5 285.489 173.5 c 0
 341.588 173.5 374.446 126.689 359.524 71 c 0xd0
EndSplineSet
EndChar
StartChar: at
Encoding: 64 64 32
Width: 930
Flags: W
Validated: 33
HStem: -36.5 81<395.133 630.691> 125.5 72<658.276 756.868> 126.5 82<432.694 532.923> 453.637 82.863<614.771 663.754> 634.5 74<539.088 763.905>
Fore
724.932 508.762 m 1xb8
 732.935 523.5 l 1
 839.769 523.5 l 1
 692.94 242.131 l 2
 692.267 240.694 689.034 233.826 687.593 228 c 0
 686.193 222.347 684.39 215.503 685.351 208.292 c 0
 686.093 202.716 688.319 198.862 695.632 197.787 c 0
 696.463 197.665 695.357 197.5 699.92 197.5 c 0
 751.444 197.5 833.454 283.464 860.66 385 c 0
 896.267 517.883 803.775 634.5 656.014 634.5 c 0
 500.593 634.5 353.125 506.16 304.584 325 c 0
 260.295 159.712 346.322 44.5 510.924 44.5 c 0
 575.697 44.5 624.545 55.3613 715.441 91.9512 c 2
 734.584 99.6572 l 1
 741.579 32.0596 l 1
 725.247 25.1875 l 2
 615.181 -21.124 553.652 -36.5 477.22 -36.5 c 0
 255.33 -36.5 123.603 123.539 178.923 330 c 0
 235.482 541.083 455.893 708.5 674.842 708.5 c 0
 873.702 708.5 992.449 570.815 944 390 c 0
 905.112 244.867 776.843 125.5 666.628 125.5 c 0xd8
 620.883 125.5 589.531 147.8 581.04 183.259 c 1
 537.542 148.758 488.52 126.5 446.896 126.5 c 0
 381.828 126.5 351.646 187.145 370.898 259 c 0
 392.071 338.018 447.599 420.922 518.735 479.103 c 0
 563.325 515.571 616.683 536.5 665.755 536.5 c 0
 694.507 536.5 712.464 530.757 724.932 508.762 c 1xb8
655.229 453.549 m 0
 654.816 453.578 653.476 453.637 653.055 453.637 c 0
 637.582 453.637 606.344 439.8 570.65 408.505 c 0
 530.92 373.669 501.158 327.146 487.722 277 c 0
 480.102 248.562 477.667 208.5 510.867 208.5 c 0xb8
 530.471 208.5 560.468 225.314 592.959 266.975 c 0
 632.332 317.46 659.696 378.595 668.532 406.837 c 0
 669.155 408.832 669.783 410.923 670.275 412.76 c 0
 678.935 445.076 667.72 452.666 655.229 453.549 c 0
EndSplineSet
EndChar
StartChar: A
Encoding: 65 65 33
Width: 792
Flags: W
Validated: 33
HStem: 0 25<15.6982 83.2258 209.893 254.705 389.076 424.372 424.372 466.383 711.257 759> 179.5 74<306.437 461.42> 670 20G<520.489 593.792>
Fore
765.699 25 m 1
 759 0 l 1
 382.377 0 l 1
 389.076 25 l 1
 405.333 25 l 2
 420.737 27.2031 435.524 28.3145 443.048 28.5605 c 0
 447.522 28.708 457.149 29.3291 466.837 32.2295 c 0
 478.008 35.5742 479.501 39.4365 481.269 46.0342 c 0
 488.378 72.5664 480.177 136.031 473.775 179.5 c 1
 255.756 179.5 l 1
 235.781 148.144 l 2
 191.428 78.9688 181.509 58.7568 179.794 51.5391 c 0
 178.13 44.5391 178.164 41.6963 184.901 37.3262 c 0
 194.003 31.4238 212.782 27.2295 243.75 25 c 2
 261.403 25 l 1
 254.705 0 l 1
 9 0 l 1
 15.6982 25 l 1
 29.9746 25 l 2
 72.5752 32.6025 83.6787 42.9727 143.484 131.347 c 2
 534.487 690 l 1
 590.08 690 l 1
 689.696 153.329 l 2
 707.823 36.9678 716.772 25 744.199 25 c 2
 765.699 25 l 1
428.976 432.001 m 1
 306.437 253.5 l 1
 461.42 253.5 l 1
 428.976 432.001 l 1
EndSplineSet
EndChar
StartChar: B
Encoding: 66 66 34
Width: 737
Flags: W
Validated: 33
HStem: 0 25<22.6992 113.697> 0 49.5<320.788 458.349> 325.5 65.637<403.805 507.224> 628.5 47.5<482.808 588.322> 651 25<197.134 267.375>
Fore
197.134 676 m 1xa8
 536.217 676 l 2
 731.46 676 820.629 618.135 790.914 507.237 c 0
 772.973 440.281 728.148 398.101 637.535 366.067 c 1
 666.034 356.579 692.042 343.272 714.517 319.168 c 0
 760.472 269.881 745.477 210.774 741.353 195.384 c 0
 709.941 78.1533 569.6 0 368.861 0 c 2
 16 0 l 1x70
 22.6992 25 l 1
 38.293 25 l 2
 106.48 32.6758 114.882 40.6123 125.909 81.7666 c 2
 263.246 594.312 l 2
 274.117 634.887 268.362 647.165 206.922 651 c 2
 190.435 651 l 1
 197.134 676 l 1xa8
401.674 325.5 m 2
 386.218 325.5 l 1
 323.919 93 l 2
 314.595 58.1992 325.176 49.5 366.051 49.5 c 0
 443.578 49.5 503.953 81.9316 529.963 179 c 0
 560.005 291.119 502.199 325.5 401.674 325.5 c 2
458.966 597 m 2
 403.805 391.137 l 1
 533.574 395.989 567.866 421.224 591.386 509 c 0
 617.002 604.6 579.829 628.5 514.464 628.5 c 0
 499.956 628.5 489.21 627.16 482.49 625.322 c 0
 474.026 623.008 470.234 619.643 467.334 615.82 c 0
 462.099 608.903 460.443 601.713 458.966 597 c 2
EndSplineSet
EndChar
StartChar: C
Encoding: 67 67 35
Width: 792
Flags: W
Validated: 33
HStem: -19 83<387.17 558.798> 623 68<513.932 702.314>
Fore
759.947 193.433 m 1
 803.871 146.306 l 1
 788.09 132.793 l 2
 729.459 82.5928 699.873 60.5957 660.531 38.0293 c 0
 581.156 -5.37402 505.518 -19 432.603 -19 c 0
 197.508 -19 83.4277 128.486 138.265 333.141 c 0
 192.874 536.946 391.18 691 616.201 691 c 0
 672.42 691 725.958 679.572 785.812 654.57 c 0
 800.075 648.357 814.729 641.835 822.523 642 c 0
 827.295 642.101 830.117 642.099 836.501 647.79 c 0
 838.772 649.815 845.626 655.999 859.653 676.999 c 2
 867.001 688 l 1
 923.349 688 l 1
 851.271 419 l 1
 797.563 419 l 1
 795.603 429.18 l 2
 779.243 514.128 762.884 540.655 732.979 571.462 c 0
 697.73 607.771 659.324 623 612.381 623 c 0
 464.822 623 389.605 479.963 352.41 341.147 c 0
 327.584 248.496 325.397 183.502 343.026 137.368 c 0
 359.418 94.4688 414.12 64 481.431 64 c 0
 509.711 64 545.961 70.1279 578.408 80.7432 c 0
 634.602 99.127 670.269 119.898 745.472 181.563 c 2
 759.947 193.433 l 1
EndSplineSet
EndChar
StartChar: D
Encoding: 68 68 36
Width: 792
Flags: W
Validated: 33
HStem: 0 25<20.6992 105.817> 0 70<328.658 480.352> 607 69<467.685 596.093> 651 25<195.134 260.669>
Fore
117.465 76.376 m 2x80
 257.366 598.495 l 2
 266.847 633.877 260.949 645.223 204.301 651 c 2
 188.435 651 l 1
 195.134 676 l 1x90
 524.334 676 l 2
 794.228 676 907.131 549.098 852.35 344.655 c 0
 797.381 139.507 609.032 0 355.935 0 c 2
 14 0 l 1x60
 20.6992 25 l 1
 37.5957 25 l 2
 93.4014 27.0186 109.353 46.0996 117.465 76.376 c 2x80
452.243 590.57 m 2
 322.944 108.021 l 2
 319.098 93.666 318.957 86.7236 319.973 81.9863 c 0
 321.116 76.6475 324.281 74.6777 328.406 73.2471 c 0
 333.752 71.3945 340.573 70.0752 359.642 70 c 0
 428.298 69.7295 483.055 88.5605 528.955 127.992 c 0
 565.056 159.005 612.707 230.292 639.562 330.521 c 0
 649.729 368.459 668.378 453.923 645.1 520.311 c 0
 624.879 577.976 581.566 607 504.688 607 c 0x60
 486.629 607 474.204 604.882 466.994 602.66 c 0
 453.271 598.377 453.186 593.119 452.243 590.57 c 2
EndSplineSet
EndChar
StartChar: E
Encoding: 69 69 37
Width: 737
Flags: W
Validated: 33
HStem: 0 24.2949<22.5098 113.69> 0 62.751<342.001 462.72> 312.454 66.131<402.441 476.103> 610.396 65.604<478.319 688.564> 651.398 24.602<197.134 267.197>
Fore
197.134 676 m 1xa8
 844.134 676 l 1xa8
 784.011 451.617 l 1
 726.993 451.617 l 1
 727.946 465.183 l 2
 736.043 580.544 700.455 610.659 519.139 610.396 c 0
 493.39 610.359 486.086 609.28 477.938 607.476 c 0
 468.445 605.373 465.146 603.304 461.083 594.214 c 0
 459.697 591.113 458.323 587.139 457.04 582.349 c 2
 402.441 378.585 l 1
 500.041 381.22 542.152 410.904 582.589 505.605 c 2
 588.766 520.073 l 1
 656.392 520.073 l 1
 561.366 165.435 l 1
 493.241 165.435 l 1
 495.375 180.361 l 2
 509.119 276.528 481.915 308.844 384.722 312.454 c 1
 327.622 99.3555 l 2
 324.075 84.1631 324.93 79.9268 326.746 76.2002 c 0
 327.456 74.7441 328.352 73.583 329.662 72.4473 c 0
 336.825 66.2441 354.746 62.751 393.082 62.751 c 0
 460.197 62.751 528.8 71.2725 596.386 109.464 c 0
 637.742 135.427 661.229 158.166 708.938 221.387 c 2
 716.221 231.038 l 1
 776.593 231.038 l 1
 667.955 0 l 1
 16 0 l 1x70
 22.5098 24.2949 l 1
 38.3174 25 l 2
 107.088 32.6396 114.567 39.4395 125.908 81.7637 c 2
 263.246 594.312 l 2
 274.117 634.887 268.362 647.164 206.922 651 c 2
 190.542 651.398 l 1
 197.134 676 l 1xa8
EndSplineSet
EndChar
StartChar: F
Encoding: 70 70 38
Width: 681
Flags: W
Validated: 33
HStem: 0 25<22.6992 114.419 318.481 433.254> 293.255 70.154<398.375 462.262> 607 69<477.001 602.031> 651 25<197.134 267.514>
Fore
834.134 676 m 1xd0
 770.897 440 l 1
 715.359 440 l 1
 715.986 453.704 l 2
 718.852 516.37 715.221 538.929 701.679 560.918 c 0
 674.637 604.826 569.036 607.236 519.553 607 c 0xe0
 493.141 606.874 485.023 605.663 476.607 603.551 c 0
 467.271 601.207 463.697 597.962 460.051 589.994 c 0
 458.923 587.532 457.39 583.654 455.741 577.501 c 2
 398.375 363.409 l 1
 491.284 367.168 531.042 398.232 576.363 497.232 c 2
 583.125 512.003 l 1
 651.19 512.003 l 1
 551.249 139.014 l 1
 482.509 139.014 l 1
 484.399 154.416 l 2
 496.941 256.511 470.81 287.979 379.577 293.255 c 1
 322.038 78.5146 l 2
 311.233 38.1914 316.043 28.79 419.826 25 c 2
 439.953 25 l 1
 433.254 0 l 1
 16 0 l 1
 22.6992 25 l 1
 38.3174 25 l 2
 107.088 32.6396 114.567 39.4395 125.908 81.7637 c 2
 263.246 594.312 l 2
 274.328 635.673 268.588 647.15 206.922 651 c 2
 190.435 651 l 1
 197.134 676 l 1
 834.134 676 l 1xd0
EndSplineSet
EndChar
StartChar: G
Encoding: 71 71 39
Width: 848
Flags: W
Validated: 33
HStem: -19 68<371.053 562.166> 244.529 59.971<515.2 604.293 874.896 890.987> 623 68<504.108 694.913>
Fore
906.591 304.5 m 1
 890.987 246.268 l 1
 874.896 244.599 l 2
 809.386 238.217 801.659 233.846 785.796 174.645 c 2
 751.382 46.209 l 1
 741.539 41.4395 l 2
 662.853 3.31641 542.708 -19 426.82 -19 c 0
 184.773 -19 70.916 126.575 125.754 331.235 c 0
 180.852 536.863 379.161 691 608.003 691 c 0
 665.479 691 720.284 679.572 774.81 654.57 c 0
 788.075 648.357 802.729 641.835 810.523 642 c 0
 815.295 642.101 818.117 642.099 824.501 647.79 c 0
 826.772 649.815 833.626 655.999 847.653 676.999 c 2
 855.001 688 l 1
 911.349 688 l 1
 839.271 419 l 1
 785.563 419 l 1
 783.603 429.18 l 2
 769.063 504.683 756.808 535.062 725.071 571.321 c 0
 698.335 600.455 659.577 623 604.506 623 c 0
 453.647 623 377.617 480.007 339.536 337.885 c 0
 309.703 226.548 313.291 149.417 345.529 101.059 c 0
 369.961 64.4141 407.982 49 472.223 49 c 0
 547.276 49 566.59 69.377 574.779 99.9404 c 2
 600.603 196.315 l 2
 610.521 233.333 606.902 240.278 517.802 244.529 c 2
 499.389 245.488 l 1
 515.2 304.5 l 1
 906.591 304.5 l 1
EndSplineSet
EndChar
StartChar: H
Encoding: 72 72 40
Width: 848
Flags: W
Validated: 33
HStem: 0 25<27.6992 115.231 322.221 408.291 445.408 552.118 759.194 829> 308.5 82<407.634 626.662> 651 25<202.134 269.192 475.794 582.726 619.843 705.614 913.148 1003.43>
Fore
626.662 308.5 m 1
 385.662 308.5 l 1
 325.001 82.1084 l 2
 314.593 43.2637 320.393 32.8301 396.747 25 c 2
 414.989 25 l 1
 408.291 0 l 1
 21 0 l 1
 27.6992 25 l 1
 42.9678 25 l 2
 108.411 33.5957 117.338 42.3135 127.918 81.7988 c 2
 265.236 594.278 l 2
 275.944 634.24 270.307 645.267 211.374 651 c 2
 195.435 651 l 1
 202.134 676 l 1
 589.425 676 l 1
 582.726 651 l 1
 563.712 651 l 2
 487.104 646.073 472.658 633.173 462.057 593.609 c 2
 407.634 390.5 l 1
 648.634 390.5 l 1
 703.057 593.609 l 2
 713.641 633.107 706.221 646.065 632.158 651 c 2
 613.144 651 l 1
 619.843 676 l 1
 1010.13 676 l 1
 1003.43 651 l 1
 987.218 651 l 2
 923.922 646.173 910.806 633.725 900.242 594.3 c 2
 762.917 81.7939 l 2
 752.519 42.9863 756.734 33.7314 820.37 25 c 2
 835.699 25 l 1
 829 0 l 1
 438.709 0 l 1
 445.408 25 l 1
 463.65 25 l 2
 544.1 32.8193 555.574 43.1963 566.001 82.1084 c 2
 626.662 308.5 l 1
EndSplineSet
EndChar
StartChar: I
Encoding: 73 73 41
Width: 424
Flags: W
Validated: 33
HStem: 0 25<26.6992 121.663 328.016 405> 651 25<201.134 275.707 481.692 579.435>
VStem: 20 566.134<0 676 -67.3314 9.65302>
Fore
134.901 81.7373 m 2
 272.242 594.299 l 2
 282.822 633.785 276.559 646.061 210.723 651 c 2
 194.435 651 l 1
 201.134 676 l 1
 586.134 676 l 1
 579.435 651 l 1
 562.644 651 l 2
 493.089 648.047 480.062 634.68 469.248 594.321 c 2
 331.893 81.7041 l 2
 321.001 41.0566 325.999 29.9248 395.347 25 c 2
 411.699 25 l 1
 405 0 l 1
 20 0 l 1
 26.6992 25 l 1
 42.5723 25 l 2
 114.051 31.8838 124.459 42.7637 134.901 81.7373 c 2
EndSplineSet
EndChar
StartChar: J
Encoding: 74 74 42
Width: 570
Flags: W
Validated: 33
HStem: -96 68<155.064 252.756> 651 25<308.134 424.949 633.005 723.435>
Fore
614.463 576.465 m 2
 497.644 140.487 l 2
 456.057 -14.7168 349.764 -96 177.086 -96 c 0
 144.918 -96 93.2051 -92.8877 59.9521 -70.7412 c 0
 23.0918 -46.1934 4.22949 4.58984 17.335 53.5 c 0
 29.6133 99.3213 81.0264 143 128.816 143 c 0
 178.409 143 207.589 99.2295 194.531 50.5 c 0
 189.841 32.9941 183.695 21.4102 162.812 1.78418 c 0
 161.802 0.835938 157.022 -3.77637 153.569 -7.9873 c 0
 151.326 -10.7236 150.72 -11.9023 150.383 -13.5 c 0
 149.959 -15.5029 148.058 -21.2959 158.131 -25.4072 c 0
 163.693 -27.6777 170.241 -28 174.369 -28 c 0
 223.048 -28 257.976 -18.75 274.119 41.499 c 2
 423.097 597.489 l 2
 433.694 637.04 422.713 648.18 318.288 651 c 2
 301.435 651 l 1
 308.134 676 l 1
 730.134 676 l 1
 723.435 651 l 1
 707.099 651 l 2
 641.941 646.732 631.237 639.067 614.463 576.465 c 2
EndSplineSet
EndChar
StartChar: K
Encoding: 75 75 43
Width: 848
Flags: W
Validated: 33
HStem: 0 25<36.5049 126.699 332.627 425.158 470.885 507.676 507.676 553.844 806.526 839> 651.398 24.602<211.134 280.693 488.643 600.979 663.134 705.675 866.082 980.583>
Fore
828.897 25 m 2
 845.699 25 l 1
 839 0 l 1
 464.316 0 l 1
 470.885 24.5166 l 1
 490.952 25 l 2
 505.955 26.0508 518.787 25.6943 523.945 26.0293 c 0
 548.612 27.6309 552.935 29.6318 555.078 30.7861 c 1
 555.187 31.8027 555.17 33.1035 554.809 34.9727 c 0
 553.683 40.7969 549.987 48.9258 543.328 61.6406 c 2
 397.004 273.938 l 1
 385.515 266.898 l 1
 335.046 78.5449 l 2
 325.242 41.958 331.365 33.2363 412.494 25 c 2
 431.643 24.1992 l 1
 425.158 0 l 1
 30 0 l 1
 36.5049 24.2783 l 1
 52.2666 25 l 2
 119.378 32.6562 127.858 40.5254 138.91 81.7686 c 2
 276.246 594.312 l 2
 287.41 635.979 282.147 647.178 220.922 651 c 2
 204.542 651.398 l 1
 211.134 676 l 1
 607.555 676 l 1
 600.979 651.46 l 1
 580.241 651 l 2
 499.381 646.736 485.001 638.184 468.465 576.47 c 2
 422.48 404.856 l 1
 694.959 592.83 l 2
 714.407 608.29 726.755 618.24 732.702 625.794 c 0
 734.521 628.104 735.414 629.954 735.981 631.409 c 0
 736.395 632.469 736.914 633.785 737.273 635.47 c 0
 738.27 640.137 740.114 642.643 728.408 645.468 c 0
 723.655 646.615 716.881 647.505 708.159 647.997 c 2
 706.937 648.065 l 1
 705.782 648.31 l 2
 703.634 648.764 692.568 649.825 672.908 651 c 2
 656.543 651.404 l 1
 663.134 676 l 1
 987.134 676 l 1
 980.583 651.553 l 1
 964.373 651 l 2
 872.229 643.136 832.437 619.394 605.511 427.927 c 1
 796.804 40.6104 l 2
 803.007 29.3398 806.94 25.9404 828.897 25 c 2
EndSplineSet
EndChar
StartChar: L
Encoding: 76 76 44
Width: 737
Flags: W
Validated: 33
HStem: 0 25<25.6992 114.966> 0 65.998<343.557 545.612> 651 25<200.134 268.579 476.321 592.775>
Fore
781.645 261.992 m 1x60
 664.122 0 l 1
 19 0 l 1x60
 25.6992 25 l 1
 41.0566 25 l 2xa0
 108.735 33.5381 115.729 40.0381 126.916 81.792 c 2
 264.246 594.315 l 2
 275.215 635.252 269.858 647.202 209.907 651 c 2
 193.435 651 l 1
 200.134 676 l 1
 599.474 676 l 1
 592.775 651 l 1
 573.543 651 l 2
 484.044 647.466 473.586 640.367 456.468 576.483 c 2
 330 104.497 l 2
 326.269 88.5547 327.043 83.5586 328.931 79.6064 c 0
 329.666 78.0645 330.603 76.833 331.986 75.627 c 0
 338.94 69.5654 355.047 65.998 391.677 65.998 c 0
 477.465 65.998 540.56 82.9277 592.069 116.451 c 0
 634.081 146.499 659.08 173.687 712.722 251.312 c 2
 720.103 261.992 l 1
 781.645 261.992 l 1x60
EndSplineSet
EndChar
StartChar: M
Encoding: 77 77 45
Width: 1049
Flags: W
Validated: 33
HStem: 0 25<20.6992 113.548 206.553 298.858 651.718 757.536 957.64 1026> 651 25<197.134 268.829 1076.75 1165.43>
Fore
770.126 82.5762 m 2
 847.917 503.516 l 1
 490.197 0 l 1
 439.914 0 l 1
 313.426 490.488 l 1
 210.549 106.547 l 2
 193.396 42.5303 204.639 30.2852 286.787 25 c 2
 305.557 25 l 1
 298.858 0 l 1
 14 0 l 1
 20.6992 25 l 1
 36.4131 25 l 2
 107.556 32.5088 115.547 39.3613 129.459 91.2812 c 2
 264.238 594.284 l 2
 275.452 636.135 271.107 645.243 206.501 651 c 2
 190.435 651 l 1
 197.134 676 l 1
 487.417 676 l 1
 588.408 231.354 l 1
 890.824 676 l 1
 1172.13 676 l 1
 1165.43 651 l 1
 1149.13 651 l 2
 1085.72 646.488 1074.04 638.32 1056.29 572.069 c 2
 965.877 104.037 l 2
 948.248 38.2471 952.835 34.0986 1017.43 25 c 2
 1032.7 25 l 1
 1026 0 l 1
 645.019 0 l 1
 651.718 25 l 1
 670.086 25 l 2
 748.998 31.2314 758.206 38.0879 770.126 82.5762 c 2
EndSplineSet
EndChar
StartChar: N
Encoding: 78 78 46
Width: 792
Flags: W
Validated: 37
HStem: 0 24.209<22.4863 38.0566 208.038 286.396> 651 25<200.134 212.657 212.657 239.515 693.914 770.74 930.596 945.69>
Fore
443.394 676 m 1
 698.046 313.664 l 1
 766.576 569.422 l 2
 783.176 631.372 772.426 644.952 704.468 651 c 2
 687.383 651.625 l 1
 693.914 676 l 1
 952.134 676 l 1
 945.69 651.955 l 1
 930.596 651 l 2
 872.562 642.427 863.397 635.931 850.639 588.316 c 2
 688.177 -18 l 1
 634.406 -18 l 1
 306.191 459.756 l 1
 211.568 106.618 l 2
 195.002 44.791 205.165 32.8633 276.26 25 c 2
 292.893 24.2451 l 1
 286.396 0 l 1
 16 0 l 1
 22.4863 24.209 l 1
 38.0566 25 l 2
 105.135 33.4707 115.362 42.4033 128.49 91.3994 c 2
 261.312 587.1 l 1
 238.202 630.296 226.253 647.646 215.856 651 c 0
 214.759 651 213.751 651 212.657 651 c 2
 212.657 651 214.004 651 210.935 651 c 2
 193.435 651 l 1
 200.134 676 l 1
 443.394 676 l 1
EndSplineSet
EndChar
StartChar: O
Encoding: 79 79 47
Width: 848
Flags: W
Validated: 33
HStem: -19 68<356.377 528.098> 623 68<501.983 667.327>
Fore
613.592 691 m 0
 840.813 691 957.665 539.896 903.031 336 c 0
 847.518 128.82 652.156 -19 418.909 -19 c 0
 185.734 -19 69.1074 127.292 124.775 335.047 c 0
 180.131 541.635 376.282 691 613.592 691 c 0
594.262 623 m 0
 449.998 623 372.945 470.033 334.505 326.574 c 0
 298.587 192.524 295.529 49 437.13 49 c 0
 578.729 49 652.664 192.812 689.263 329.402 c 0
 741.361 523.836 698.192 623 594.262 623 c 0
EndSplineSet
EndChar
StartChar: P
Encoding: 80 80 48
Width: 681
Flags: W
Validated: 33
HStem: 0 25<22.6992 61.5633 316.933 408.511> 268.233 69.936<387.612 518.059> 606 70<471.52 578.84> 651 25<197.134 261.004>
Fore
368.873 268.233 m 1xe0
 323.694 99.623 l 2
 306.551 35.6445 312.199 33.5811 395.818 25 c 2
 415.21 25 l 1
 408.511 0 l 1
 16 0 l 1
 22.6992 25 l 1
 37.0674 25 l 2
 48.3799 27.0703 58.1533 28.7744 63.9033 29.4824 c 0
 98.3164 33.7197 111.62 43.3662 127.911 104.165 c 2
 253.284 572.066 l 2
 270.73 637.175 263.753 645.671 206.44 651 c 2
 190.435 651 l 1
 197.134 676 l 1xd0
 552.264 676 l 2
 746.342 676 831.987 604.545 797.689 476.543 c 0
 775.181 392.539 709.249 325.775 611.997 291.312 c 0
 561.757 273.507 521.892 269.379 368.873 268.233 c 1xe0
454.688 588.5 m 2
 387.612 338.169 l 1
 461.086 339.347 494.023 346.273 519.247 360.775 c 0
 550.027 378.471 572.915 410.207 589.338 471.5 c 0
 620.046 586.104 575.45 606 500.561 606 c 0xe0
 487.794 606 477.822 604.629 471.207 602.784 c 0
 456.105 598.479 455.661 591.156 454.688 588.5 c 2
EndSplineSet
EndChar
StartChar: Q
Encoding: 81 81 49
Width: 848
Flags: W
Validated: 33
HStem: -176 82<535.43 724.62> 623 68<502.836 663.602>
Fore
774.268 -77.7754 m 1
 773.247 -134.606 l 1
 756.924 -139.966 l 2
 673.85 -167.241 624.942 -176 562.341 -176 c 0
 460.962 -176 371.863 -142.729 321.479 -82.874 c 0
 301.938 -59.6592 292.422 -38.4844 281.584 1.55566 c 1
 209.522 28.6777 183.17 49.3047 153.443 93.1514 c 0
 109.845 157.466 99.6748 241.371 123.889 331.738 c 0
 179.444 539.074 378.545 691 609.153 691 c 0
 841.504 691 958.343 542.426 902.651 334.585 c 0
 879.412 247.854 827.102 158.604 737.631 87.1758 c 0
 685.222 45.3359 646.179 24.7598 563.844 1.2334 c 1
 571.081 -22.0928 577.132 -32.6191 589.247 -47.126 c 0
 611.725 -77.8311 647.774 -94 690.312 -94 c 0
 707.209 -94 721.487 -91.5791 755.615 -82.6533 c 2
 774.268 -77.7754 l 1
592.042 623 m 0
 449.555 623 369.55 457.362 331.002 313.5 c 0
 291.021 164.292 286.151 14 427.751 14 c 0
 569.352 14 645.796 167.182 684.734 312.5 c 0
 739.856 518.221 698.541 623 592.042 623 c 0
EndSplineSet
EndChar
StartChar: R
Encoding: 82 82 50
Width: 792
Flags: W
Validated: 33
HStem: 0 25<32.6992 121.534 332.092 413.873 756.915 785> 607 69<485.633 608.371> 651 25<207.134 275.397>
Fore
791.699 25 m 1xc0
 785 0 l 1
 553.093 0 l 1
 390.287 295.5 l 1
 390.179 295.5 l 1
 339.07 104.76 l 2
 321.28 38.3682 326.82 34.1816 402.716 25 c 2
 420.571 25 l 1
 413.873 0 l 1
 26 0 l 1
 32.6992 25 l 1
 48.1924 25 l 2
 117.26 33.1719 123.745 36.3691 141.87 104.014 c 2
 267.284 572.066 l 2
 285.078 638.474 278.501 646.495 216.755 651 c 2
 200.435 651 l 1
 207.134 676 l 1xa0
 559.522 676 l 2
 836.201 676 849.703 558.7 828.75 480.5 c 0
 815.598 431.416 786.013 386.032 744.564 355.569 c 0
 715.746 334.389 691.021 320.598 634.365 302.388 c 1
 750.468 36.8779 l 2
 755.026 27.7842 762.576 25 774.199 25 c 2
 791.699 25 l 1xc0
467.08 582.5 m 2
 403.542 345.37 l 1
 481.409 347.221 516.38 354.302 544.042 367.139 c 0
 587.834 387.462 608.714 428.117 621.678 476.5 c 0
 646.057 567.484 624.157 607 518.777 607 c 0xc0
 502.539 607 491.836 605.456 485.325 603.73 c 0
 479.984 602.315 478.743 601.66 478.031 601.085 c 1
 474.947 597.605 468.108 586.335 467.08 582.5 c 2
EndSplineSet
EndChar
StartChar: S
Encoding: 83 83 51
Width: 626
Flags: W
Validated: 33
HStem: -19 68<219.053 412.228> 625 66<373.161 524.716>
Fore
671.897 440 m 1
 613.473 440 l 1
 612.98 452.354 l 2
 610.554 513.457 603.328 540.95 577.722 574.301 c 0
 535.686 623.069 482.04 625 462.956 625 c 0
 396.316 625 347.999 597.124 334.502 546.753 c 0
 324.609 509.835 338.455 490.462 418.147 454.451 c 2
 566.518 385.196 l 2
 627.283 352.185 656.839 275.572 635.979 197.722 c 0
 601.299 68.292 469.657 -19 292.721 -19 c 0
 240.474 -19 196.716 -11.2959 148.605 5.87793 c 0
 138.99 9.43066 122.71 15.2031 115.52 15 c 0
 111.258 14.8799 110.028 15.3896 104.608 7.54297 c 0
 102.455 4.42773 99.877 0.0390625 97.0205 -5.58398 c 2
 90.2061 -19 l 1
 29.9092 -19 l 1
 105.471 263 l 1
 165.729 263 l 1
 165.395 249.63 l 2
 163.651 180.215 167.661 150.722 184.569 116.021 c 0
 206.275 71.4746 252.979 49 314.429 49 c 0
 391.763 49 449.84 83.8203 465.03 140.511 c 0
 475.621 180.039 462.361 200.442 372.934 239.332 c 2
 303.197 269.682 l 2
 188.77 325.764 148.703 390.758 173.124 481.899 c 0
 207.321 609.524 318.8 691 480.641 691 c 0
 527.039 691 566.062 684.581 617.19 668.006 c 0
 633.16 661.947 643.553 657.787 650.811 658 c 0
 656.833 658.177 657.903 657.127 665.114 668.074 c 0
 667.012 670.957 669.171 674.618 671.553 679.05 c 2
 678.509 692 l 1
 739.421 692 l 1
 671.897 440 l 1
EndSplineSet
EndChar
StartChar: T
Encoding: 84 84 52
Width: 772
Flags: W
Validated: 33
HStem: 0 25<162.962 294.455 505.623 618.263> 588.081 20G<379.151 445.839> 656 20G<209.998 920.224>
Fore
314.938 99.5508 m 2
 451.198 608.081 l 1
 307.104 600.306 257.914 554.598 217.016 455.045 c 2
 210.844 440.021 l 1
 148.903 440.021 l 1
 215.655 676 l 1
 920.224 676 l 1
 859.34 440.015 l 1
 797.486 440.015 l 1
 799.365 455.039 l 2
 812.794 562.386 779.309 601.055 648.199 608.086 c 1
 511.934 99.5361 l 2
 494.395 34.0801 501.401 30.2529 608.666 25 c 2
 624.962 25 l 1
 618.263 0 l 1
 156.263 0 l 1
 162.962 25 l 1
 179.042 25 l 2
 288.327 31.1201 297.829 35.7002 314.938 99.5508 c 2
EndSplineSet
EndChar
StartChar: U
Encoding: 85 85 53
Width: 792
Flags: W
Validated: 33
HStem: -19 84<367.604 546.703> 651 25<197.134 260.507 502.091 575.264 685.183 770.114 866.088 945.435>
Fore
849.298 583.312 m 2
 763.849 264.411 l 2
 738.783 170.866 690.511 87.7354 627.687 44.1631 c 0
 563.535 3.54688 475.331 -19 388.446 -19 c 0
 303.377 -19 238.997 -0.237305 197.228 37.3262 c 0
 145.003 84.293 134.937 137.85 162.969 242.466 c 2
 252.452 576.423 l 2
 269.469 639.93 263.218 645.142 206.193 651 c 2
 190.435 651 l 1
 197.134 676 l 1
 581.963 676 l 1
 575.264 651 l 1
 556.447 651 l 2
 509.832 649.285 492.033 647.05 480.228 639.365 c 0
 467.257 630.925 456.881 615.342 446.469 576.486 c 2
 356.977 242.495 l 2
 318.481 98.8301 367.533 65 454.71 65 c 0
 560.733 65 643.294 109.326 684.868 264.482 c 2
 766.585 569.455 l 2
 783.52 632.657 771.832 645.746 696.612 651 c 2
 678.484 651 l 1
 685.183 676 l 1
 952.134 676 l 1
 945.435 651 l 1
 930.636 651 l 2
 874.174 642.535 862.819 633.774 849.298 583.312 c 2
EndSplineSet
EndChar
StartChar: V
Encoding: 86 86 54
Width: 792
Flags: W
Validated: 33
HStem: -18 21G<374.777 447.994> 651 25<197.134 251.924 567.578 585.658 704.134 713.706 868.908 945.435>
Fore
952.134 676 m 1
 945.435 651 l 1
 930.27 651 l 2
 885.29 645.157 873.291 638.12 835.235 580.033 c 2
 434.595 -18 l 1
 378.675 -18 l 1
 259.923 591.286 l 2
 250.851 639.879 248.412 644.762 205.508 651 c 2
 190.435 651 l 1
 197.134 676 l 1
 592.356 676 l 1
 585.658 651 l 1
 567.578 651 l 2
 550.755 636.711 528.847 617.824 520.367 614.012 c 0
 515.593 613.879 502.923 613.309 491.314 609.891 c 0
 483.489 607.587 478.315 605.598 475.609 595.5 c 0
 472.77 584.899 473.042 575.595 482.082 530.245 c 2
 537.662 236.664 l 1
 730.838 524.868 l 2
 759.545 568.146 763.637 576.613 766.956 589.5 c 0
 768.472 595.389 767.861 593.194 768.04 594.114 c 0
 769.094 599.516 770.394 604.171 760.509 607.906 c 0
 754.897 627.788 739.268 640.407 713.706 651 c 2
 697.435 651 l 1
 704.134 676 l 1
 952.134 676 l 1
EndSplineSet
EndChar
StartChar: W
Encoding: 87 87 55
Width: 1070
Flags: W
Validated: 33
HStem: -15 21G<299.404 367.937 710.352 780.841> 651 25<200.134 245.997 473.804 522.435 571.16 636.818 922.633 938.391 1015.13 1024.96 1161.07 1225.43>
Fore
1232.13 676 m 1
 1225.43 651 l 1
 1209.51 651 l 2
 1185.68 648.884 1163.16 635.3 1141.62 598.971 c 2
 768.693 -15 l 1
 712.719 -15 l 1
 660.1 429.562 l 1
 354.174 -15 l 1
 301.09 -15 l 1
 249.365 598.562 l 2
 245.949 641.762 242.071 646.009 208.46 651 c 2
 193.435 651 l 1
 200.134 676 l 1
 529.134 676 l 1
 522.435 651 l 1
 506.277 651 l 2
 483.27 648.976 474.97 647.512 467.286 645.028 c 0
 459.763 642.585 456.764 641.179 453.438 631.649 c 0
 453.078 630.619 453.28 631.763 451.864 626.479 c 0
 450.261 620.495 449.909 614.729 450.618 598.829 c 2
 473.823 281.622 l 1
 648.114 537.632 l 1
 637.002 626.837 l 2
 633.217 643.595 619.976 649.278 582.401 651 c 2
 564.462 651 l 1
 571.16 676 l 1
 945.09 676 l 1
 938.391 651 l 1
 922.633 651 l 2
 904.827 614.415 900.179 619.926 896.525 615.021 c 0
 875.6 613.562 868.652 612.119 861.622 610.164 c 0
 852.606 607.657 848.588 605.413 846.199 596.5 c 0
 843.479 586.344 846.461 550.945 846.816 545.787 c 2
 869.129 261.28 l 1
 1045.16 553.159 l 2
 1052.45 564.818 1058.11 578.285 1060.96 589.5 c 0
 1062.58 595.896 1062.27 595.275 1062.46 596.7 c 0
 1063.69 606.125 1058.92 607.964 1056.17 609.271 c 0
 1053.84 629.246 1044.58 643.588 1024.96 651 c 2
 1008.43 651 l 1
 1015.13 676 l 1
 1232.13 676 l 1
EndSplineSet
EndChar
StartChar: X
Encoding: 88 88 56
Width: 792
Flags: W
Validated: 33
HStem: 0 25<22.6992 113.408 291.912 301 372.723 390.838 721.666 769> 651 25<198.134 247.94 584.1 602.398 654.134 663.002 835.005 932.435>
Fore
939.134 676 m 1
 932.435 651 l 1
 916.583 651 l 2
 845.979 644.111 818.975 626.06 701.682 503.93 c 2
 599.956 396.677 l 1
 698 107.708 l 2
 724.074 35.584 732.157 25.835 758.714 25 c 2
 775.699 25 l 1
 769 0 l 1
 366.024 0 l 1
 372.723 25 l 1
 390.838 25 l 2
 408.379 41.3828 425.611 58.6348 433.084 61.9854 c 0
 437.161 62.0996 451.455 62.8174 463.778 66.2119 c 0
 468.515 67.5176 474.229 69.0996 475.14 72.5 c 0
 477.532 81.4307 471.986 104.901 466.573 117.198 c 2
 406.107 257.484 l 1
 372.549 227.067 l 2
 330.234 186.233 248.437 107.19 242.374 83.5 c 0
 240.802 77.3574 240.839 74.9043 247.971 71.0479 c 0
 252.764 51.3867 265.237 37.1797 291.912 25 c 2
 307.699 25 l 1
 301 0 l 1
 16 0 l 1
 22.6992 25 l 1
 38.1133 25 l 2
 82.7705 30.4883 106.188 40.3193 144.606 77.4863 c 2
 371.384 300.745 l 1
 260.183 597.583 l 2
 243.06 642.33 235.115 648.503 207.481 651 c 2
 191.435 651 l 1
 198.134 676 l 1
 609.098 676 l 1
 602.398 651 l 1
 584.1 651 l 2
 569.833 638.41 546.678 617.712 538.429 614.014 c 0
 533.553 613.878 524.629 613.383 515.053 611.504 c 0
 502.339 609.01 501.492 606.531 499.922 600.5 c 0
 499.52 598.959 499.086 597.466 498.868 595.484 c 0
 498.743 594.335 498.744 593.518 498.931 592.239 c 0
 499.353 589.357 500.526 585.416 506.275 573.02 c 2
 565.365 444.602 l 1
 593.595 470.874 615.811 492.148 624.896 501.146 c 0
 693.374 568.959 701.598 583.388 704.832 596.5 c 0
 707.062 605.542 707.837 608.053 697.56 610.96 c 0
 692.543 612.378 684.736 613.485 674.152 614.021 c 2
 671.795 614.142 l 1
 669.728 614.898 l 2
 672.169 629.479 664.449 607.638 663.002 651 c 2
 647.435 651 l 1
 654.134 676 l 1
 939.134 676 l 1
EndSplineSet
EndChar
StartChar: Y
Encoding: 89 89 57
Width: 792
Flags: W
Validated: 33
HStem: 0 25<199.346 318.284 530.709 630> 651 25<196.134 249.102 695.134 704.632 870.615 943.435>
Fore
950.134 676 m 1
 943.435 651 l 1
 928.48 651 l 2
 898.414 646.506 881.889 638.467 863.913 618.131 c 2
 588.653 293.537 l 1
 537.857 103.964 l 2
 519.602 35.832 525.528 32.3271 616.089 25 c 2
 636.699 25 l 1
 630 0 l 1
 192.647 0 l 1
 199.346 25 l 1
 219.794 25 l 2
 313.834 32.3516 322.887 36.8975 340.862 103.984 c 2
 381.298 254.891 l 1
 258.623 602.084 l 2
 249.565 633.588 232.825 649.295 205.907 651 c 2
 189.435 651 l 1
 196.134 676 l 1
 590.853 676 l 1
 584.154 651 l 1
 527.749 615.007 l 2
 522.429 614.911 509.958 615.091 498.241 613.199 c 0
 484.803 611.03 483.004 608.865 481.299 602.5 c 0
 479.238 594.811 481.066 585.705 488.499 564.021 c 0
 491.422 555.5 492.039 552.908 492.415 550.505 c 2
 554.538 347.401 l 1
 696.989 505.557 l 2
 741.711 556.509 754.541 583.555 756.492 591.5 c 0
 758.675 600.384 758.99 603.688 749.837 607.42 c 0
 744.521 627.069 728.727 640.899 704.632 651 c 2
 688.435 651 l 1
 695.134 676 l 1
 950.134 676 l 1
EndSplineSet
EndChar
StartChar: Z
Encoding: 90 90 58
Width: 737
Flags: W
Validated: 1
HStem: 0 70<302.35 559.044> 603.089 72.911<365.056 516.419 516.419 551.394 551.394 579.941>
Fore
779.943 276 m 1
 676.214 0 l 1
 28 0 l 1
 37.7314 36.3174 l 1
 579.941 605.102 l 1
 551.443 604.338 532.512 603.419 523.758 603.031 c 0
 519.019 602.821 513.573 603.089 509.092 603.089 c 0
 364.792 603.089 318.253 573.151 240.758 446.788 c 2
 233.529 435 l 1
 173.683 435 l 1
 262.827 676 l 1
 855.134 676 l 1
 845.408 639.705 l 1
 302.35 70 l 1
 349.504 70 l 2
 452.009 70 541.859 84.4482 580.933 105.81 c 0
 633.02 136.147 664.559 173.846 714.239 263.331 c 2
 721.273 276 l 1
 779.943 276 l 1
EndSplineSet
EndChar
StartChar: bracketleft
Encoding: 91 91 59
Width: 333
Flags: HMW
Validated: 33
HStem: -149 33<221 301 221 301> 645 33<210 238 238 301>
VStem: 67 104<-84.5 -63 -63 575>
Fore
292.107 -98.5 m 1
 273.887 -166.5 l 1
 4.88672 -166.5 l 1
 235.858 695.5 l 1
 504.858 695.5 l 1
 486.638 627.5 l 1
 406.138 627.5 l 2
 385.434 627.196 375.834 625.976 368.62 623.241 c 0
 364.372 621.631 360.907 619.581 357.062 613.656 c 0
 352.503 606.63 347.779 594.44 342.57 575 c 2
 171.619 -63 l 2
 167.754 -78.5127 167.519 -80.8477 167.217 -85.1738 c 0
 166.612 -93.833 167.987 -95.7861 176.885 -97.3604 c 0
 181.035 -98.0957 186.978 -98.5 194.607 -98.5 c 2
 292.107 -98.5 l 1
EndSplineSet
EndChar
StartChar: backslash
Encoding: 92 92 60
Width: 278
Flags: HMW
Validated: 1
HStem: -19 20 671 20<-25 68 68 68>
Fore
188.595 -36.5 m 1
 140.583 708.5 l 1
 270.483 708.5 l 1
 317.446 -36.5 l 1
 188.595 -36.5 l 1
EndSplineSet
EndChar
StartChar: bracketright
Encoding: 93 93 61
Width: 333
Flags: HMW
Validated: 33
HStem: -149 33<32 112 32 112 112 133 32 266> 645 33<32 95 32 266>
VStem: 162 104<-63 575 575 604>
Fore
-30.1133 -166.5 m 1
 -11.8926 -98.5 l 1
 85.6074 -98.5 l 2
 91.332 -98.3896 96.8613 -98.5801 104.499 -97.4258 c 0
 112.98 -96.1426 116.104 -95.7422 121.243 -83.0391 c 0
 123.245 -78.0908 125.376 -71.3721 127.619 -63 c 2
 298.57 575 l 2
 304.019 596.374 305.589 606.63 304.795 613.656 c 0
 304.125 619.581 301.759 621.631 298.374 623.241 c 0
 292.626 625.976 282.021 627.5 263.138 627.5 c 2
 182.638 627.5 l 1
 200.858 695.5 l 1
 469.858 695.5 l 1
 238.887 -166.5 l 1
 -30.1133 -166.5 l 1
EndSplineSet
EndChar
StartChar: asciicircum
Encoding: 94 94 62
Width: 581
Flags: HMW
Validated: 1
HStem: 656 20<251 331 331 331>
Fore
251.711 293.5 m 1
 123.64 293.5 l 1
 425.887 693.5 l 1
 527.759 693.5 l 1
 615.647 293.5 l 1
 487.575 293.5 l 1
 436.271 542.161 l 1
 251.711 293.5 l 1
EndSplineSet
EndChar
StartChar: underscore
Encoding: 95 95 63
Width: 500
Flags: HMW
Validated: 1
HStem: -125 50<0 500 0 500>
Fore
479.317 -142.5 m 1
 -55.6826 -142.5 l 1
 -32.9072 -57.5 l 1
 502.093 -57.5 l 1
 479.317 -142.5 l 1
EndSplineSet
EndChar
StartChar: grave
Encoding: 96 96 64
Width: 333
Flags: W
Validated: 33
HStem: 510.5 220
VStem: 169.49 251.795<510.5 668 668 668>
Fore
421.285 510.5 m 1
 321.806 510.5 l 1
 199.849 601.128 l 2
 172.665 621.366 162.037 640.188 169.49 668 c 0
 178.923 703.203 215.729 730.5 250.737 730.5 c 0
 276.087 730.5 295.968 717.195 308.777 696.566 c 2
 421.285 510.5 l 1
EndSplineSet
EndChar
StartChar: a
Encoding: 97 97 65
Width: 570
Flags: W
Validated: 33
HStem: -14 106<112.797 282.783> 423.5 49.5<318.049 424.566>
VStem: 52.377 536.74<102.174 328.859 277.202 391.096>
Fore
282.282 92 m 0
 303.659 92 326.016 100.095 361.268 124.156 c 1
 392.019 238.922 l 1
 329.575 223.483 265.84 195.083 251.482 141.5 c 0
 243.524 111.8 255.845 92 282.282 92 c 0
525.199 78.3525 m 1
 554.601 100.27 l 1
 577.544 54.166 l 1
 565.234 44.4072 l 2
 512.554 2.64258 472.505 -14 424.749 -14 c 0
 379.577 -14 354.063 1.38965 348.838 42.6562 c 1
 275.729 2.69141 211.695 -14 149.749 -14 c 0
 75.8457 -14 34.6016 35.835 52.377 102.174 c 0
 64.6123 147.835 97.7246 185.041 154.578 216.396 c 0
 199.373 241.592 253.875 260.479 407.501 292.97 c 1
 423.586 353 l 2
 438.1 407.167 414.428 424.109 355.323 423.5 c 0
 322.699 423.164 307.493 416.789 298.495 411.733 c 0
 296.4 410.556 291.137 407.303 290.252 404 c 0
 290.061 403.287 291.285 401.518 297.86 393.104 c 0
 310.95 376.348 317.475 358.336 312.294 339 c 0
 300.304 294.252 245.689 263.5 197.104 263.5 c 0
 148.336 263.5 122.317 292.285 135.253 340.562 c 0
 156.545 420.024 255.134 473 398.839 473 c 0
 540.773 473 613.321 419.189 589.117 328.859 c 2
 523.872 85.3594 l 2
 522.941 80.29 522.854 79.6934 523.259 78.5957 c 1
 523.482 78.4854 524.075 78.3291 525.199 78.3525 c 1
EndSplineSet
EndChar
StartChar: b
Encoding: 98 98 66
Width: 626
Flags: W
Validated: 33
HStem: -14 67<275.759 393.459> 384 89<380.388 552.097> 656 20G<192.775 427.134>
VStem: 68.5166 586.352<-13 38.2939 220.761 238.363 -13 238.363 -13 -13>
Fore
427.134 676 m 1
 363.586 438.837 l 1
 409.255 462.169 454.247 473 505.814 473 c 0
 634.735 473 691.337 374.461 654.869 238.363 c 0
 615.256 90.5225 486.788 -14 326.933 -14 c 0
 263.068 -14 224.811 0.458008 189.696 38.2939 c 1
 103.59 -13 l 1
 68.5166 -13 l 1
 226.473 576.5 l 2
 230.097 591.039 230.295 593.57 230.36 597.627 c 0
 230.464 603.991 228.477 605.967 225.781 607.857 c 0
 221.629 610.771 215.091 613.498 196.552 617.325 c 2
 183.153 620.092 l 1
 198.134 676 l 1
 427.134 676 l 1
415.747 384 m 0
 383.271 384 363.617 373.702 338.015 343.405 c 1
 275.104 108.619 l 2
 268.831 85.207 273.317 53 325.783 53 c 0
 384.234 53 433.886 92.876 468.152 220.761 c 0
 490.638 304.675 492.664 384 415.747 384 c 0
EndSplineSet
EndChar
StartChar: c
Encoding: 99 99 67
Width: 514
Flags: W
Validated: 33
HStem: -14 102<211.465 400.795> 407 66<340.858 413.483>
VStem: 431.396 156.634<350.609 426.694>
Fore
504.436 152.057 m 1
 535.29 109.909 l 1
 522.453 97.7041 l 2
 440.235 19.5312 369.815 -14 274.095 -14 c 0
 118.63 -14 48.123 86.2969 84.8691 223.436 c 0
 123.313 366.91 259.553 473 435.047 473 c 0
 534.054 473 602.597 435.146 588.03 380.781 c 0
 575.247 333.076 533.731 300.281 480.96 300.281 c 0
 451.562 300.281 412.185 312.523 431.396 389.603 c 0
 433.146 396.835 439.372 418.773 440.383 425.949 c 0
 440.726 428.546 440.92 428.812 438.927 432.342 c 0
 437.775 434.378 437.225 434.787 435.564 436 c 0
 425.49 419.81 412.397 407 402.131 407 c 0
 328.471 407 288.04 324.837 274.199 273.183 c 0
 242.984 156.689 294.45 88 384.079 88 c 0
 420.539 88 445.279 100.567 488.364 138.068 c 2
 504.436 152.057 l 1
EndSplineSet
EndChar
StartChar: d
Encoding: 100 100 68
Width: 626
Flags: W
Validated: 33
HStem: -14 91<182.09 349.692> 382 91<331.903 452.627> 656 20G<449.994 726.134>
Fore
369.008 -18.6309 m 1
 381.623 28.4502 l 1
 326.807 -2.92285 281.347 -14 223.986 -14 c 0
 102.68 -14 48.6133 88.127 84.3691 221.57 c 0
 122.303 363.139 238.797 473 368.486 473 c 0
 419.804 473 454.316 461.538 487.483 434.721 c 1
 525.473 576.5 l 2
 529.164 591.263 529.349 593.791 529.378 597.969 c 0
 529.414 602.767 528.885 606.823 519.994 609.749 c 0
 510.876 612.75 497.099 614.851 460.183 617.049 c 2
 439.881 618.258 l 1
 455.353 676 l 1
 726.134 676 l 1
 576.151 116.259 l 2
 572.618 101.7 572.349 96.5273 573.077 92.1875 c 0
 573.622 88.9404 574.52 86.7383 577.94 84.4736 c 0
 582.51 81.4463 590.433 79.0967 608.529 77.9629 c 2
 624.604 76.8955 l 1
 609.925 22.1133 l 1
 529.852 12.127 l 2
 466.217 5.15332 441.944 0.530273 392.952 -12.3408 c 2
 369.008 -18.6309 l 1
404.251 124.096 m 2
 461.879 339.166 l 1
 453.498 366.793 426.2 382 396.313 382 c 0
 344.739 382 300.893 346.68 269.374 229.052 c 0
 237.966 111.835 261.424 77 305.675 77 c 0
 325.865 77 347.924 83.9072 376.079 102.276 c 0
 395.355 114.853 404.249 124.088 404.251 124.096 c 2
EndSplineSet
EndChar
StartChar: e
Encoding: 101 101 69
Width: 479
Flags: W
Validated: 33
HStem: -14 107<206.623 357.072> -14 487<242.804 331.175> 227.5 72<279.829 378.146> 407 66<315.651 389.859>
VStem: 86.1191 435.484<227.5 292.501 228.101 245 228.101 228.101>
Fore
447.091 153.566 m 2xb8
 459.652 165.151 l 1
 504.644 134.045 l 1
 489.589 118.475 l 2
 394.442 20.0684 331.175 -14 244.749 -14 c 0
 110.483 -14 47.3594 83.4473 86.1191 228.101 c 0
 124.927 372.931 242.804 473 378.24 473 c 0
 437.183 473 482.981 453.484 509.302 412.127 c 0
 534.075 373.202 536.826 324.542 521.603 245 c 2
 518.254 227.5 l 1
 266.162 227.5 l 1
 257.266 178.5 257.984 155.255 267.05 132.192 c 0
 280.783 97.2578 309.903 93 330.419 93 c 0
 370.598 93 401.55 111.565 447.091 153.566 c 2xb8
279.829 299.5 m 1
 378.146 299.5 l 1
 386.797 338.552 391.335 362.623 390.806 377.835 c 0
 390.136 397.109 381.209 407 360.556 407 c 0
 330.654 407 308.778 391.328 279.829 299.5 c 1
EndSplineSet
EndChar
StartChar: f
Encoding: 102 102 70
Width: 403
Flags: W
Validated: 33
HStem: 0 52.4004<28.041 44.0664 302.726 362> 382 79<137.524 173.356 368.524 469.356> 625 66<411.469 488.697>
VStem: 14 598.669<0 573.5 -56.7541 2.51999>
Fore
95.9141 92.9805 m 2
 173.356 382 l 1
 116.356 382 l 1
 137.524 461 l 1
 194.629 461 l 1
 215.742 536.258 234.697 577.955 267.351 614.732 c 0
 312.048 665.074 377.757 691 467.153 691 c 0
 575.547 691 631.56 644 612.669 573.5 c 0
 600.42 527.787 559.566 494 511.867 494 c 0
 470.805 494 429.138 523 440.793 566.5 c 0
 444.798 581.446 460.206 595.338 481.346 611.504 c 0
 482.328 612.64 488.267 619.529 490.618 623.158 c 1
 488.894 624.2 485.495 625 477.468 625 c 0
 440.585 625 410.925 619.24 396.525 565.5 c 2
 368.524 461 l 1
 490.524 461 l 1
 469.356 382 l 1
 347.356 382 l 1
 274.578 110.386 l 2
 268.172 84.2041 269.3 72.1348 278.124 65.8096 c 0
 279.447 64.8613 280.903 64.0615 282.71 63.2949 c 0
 292.839 58.9941 314.999 55.0215 359.48 54.042 c 2
 376.361 53.5957 l 1
 362 0 l 1
 14 0 l 1
 28.041 52.4004 l 1
 44.0664 53.9541 l 2
 64.4717 56.2578 70.3203 57.8271 76.3398 60.4688 c 0
 79.8447 62.0068 83.1367 63.9951 86.3047 68.6816 c 0
 89.3125 73.1318 92.3291 79.6006 95.9141 92.9805 c 2
EndSplineSet
EndChar
StartChar: g
Encoding: 103 103 71
Width: 570
Flags: W
Validated: 33
HStem: -206 67<131.326 393.467> -52 155<228.632 414.257> 137.502 61.998<283.48 386.841> 363 88<587.191 649.266> 407 66<324.853 429.006>
Fore
649.266 363 m 1xf0
 587.191 363 l 1xf0
 595.778 341.897 596.269 318.227 588.446 289.033 c 0
 573.733 234.125 535.291 191.464 478.493 164.882 c 0
 433.171 142.05 401.831 136.502 348.054 136.502 c 2
 287.085 137.502 l 2
 248.198 137.502 223.138 128.344 219.71 114.61 c 0
 218.554 109.979 218.123 108.579 227.948 106.54 c 0
 242.207 103.877 278.104 103 321.65 103 c 2
 399.099 103 l 2
 509.396 103 566.64 50.9033 542.952 -37.5 c 0
 524.893 -104.9 460.353 -206 204.833 -206 c 0
 10.1299 -206 -9.59375 -140.3 2.14258 -96.5 c 0
 12.6641 -57.2363 43.1445 -31.8379 83.6309 -17.123 c 1
 51.9023 -6.42969 43.5537 5.79883 48.6992 25 c 0
 62.7285 77.3613 106.599 115.747 173.075 143.435 c 1
 152.096 156.526 138.406 169.301 127.586 187.715 c 0
 109.849 217.903 105.526 255.743 115.857 294.301 c 0
 144.499 401.193 257.719 473 401.74 473 c 0xe8
 464.359 473 494.281 464.6 528.413 451 c 1
 672.845 451 l 1
 649.266 363 l 1xf0
362.566 -52 m 2
 160.868 -52 l 1
 138.174 -67.4971 131.129 -74.1602 127.019 -89.5 c 0
 116.408 -129.1 172.45 -139 251.363 -139 c 0
 325.305 -139 404.676 -128.1 416.358 -84.5 c 0
 421.664 -64.7002 409.859 -52 362.566 -52 c 2
384.056 407 m 0xe8
 344.456 407 313.859 391.342 290.009 302.328 c 0
 266.169 213.356 288.856 199.5 328.456 199.5 c 0
 368.055 199.5 398.469 214.475 422.009 302.328 c 0
 445.635 390.504 423.654 407 384.056 407 c 0xe8
EndSplineSet
EndChar
StartChar: h
Encoding: 104 104 72
Width: 626
Flags: W
Validated: 33
HStem: 0 51.8975<302.752 308.65 332.001 353.152 602.658 604> 371 102<407.953 544.648> 656 20G<191.775 424.134>
Fore
424.134 676 m 1
 355.659 420.451 l 1
 421.467 458.697 473.642 473 529.24 473 c 0
 620.74 473 666.16 414.855 642.196 325.42 c 2
 580.323 94.5068 l 2
 575.821 75.7988 576.189 70.2949 577.902 65.5479 c 0
 578.749 63.2021 579.871 61.6064 582.226 60.0107 c 0
 585.319 57.915 590.65 55.8301 602.658 54.8789 c 2
 618.371 53.6338 l 1
 604 0 l 1
 318.029 0 l 1
 332.001 52.1426 l 1
 353.152 53.8037 l 2
 382.479 56.1084 397.357 61.0449 405.118 90.0088 c 2
 464.371 311.146 l 2
 477.346 359.566 460.402 371 434.187 371 c 0
 411.802 371 382.497 362.312 350.696 343.539 c 0
 341.857 338.321 335.089 334.373 331.827 331.509 c 1
 267.118 90.0088 l 2
 266.249 86.1846 262.052 72.79 267.374 64.8838 c 0
 268.146 63.7705 269.049 62.8447 270.219 61.9609 c 0
 274.343 58.8486 283.413 55.5986 302.752 53.7705 c 2
 322.556 51.8975 l 1
 308.65 0 l 1
 16 0 l 1
 30.1074 52.6504 l 1
 44.8867 55.3027 l 2
 62.0596 58.5879 70.0195 60.6631 75.9121 63.292 c 0
 80.3203 65.2607 83.0605 66.9062 86.2305 72.4385 c 0
 88.7539 76.8438 91.6602 84.5703 94.6406 95.6904 c 2
 223.473 576.5 l 2
 227.216 591.312 227.71 594.719 227.845 599.067 c 0
 227.961 602.823 227.871 606.396 221.801 609.609 c 0
 217.202 612.043 210.296 614.28 195.552 617.325 c 2
 182.153 620.092 l 1
 197.134 676 l 1
 424.134 676 l 1
EndSplineSet
EndChar
StartChar: i
Encoding: 105 105 73
Width: 313
Flags: W
Validated: 33
HStem: 0 21G<16 295.359> 441 20G<134.165 366.524> 501 190<267.782 361.524>
VStem: 16 393.563<0 595.5 13.4348 587.91>
Fore
366.524 461 m 1
 268.542 95.3232 l 2
 264.937 80.208 265.021 74.8555 266.331 70.6924 c 0
 267.067 68.3525 268.24 66.6377 270.359 65.0566 c 0
 273.406 62.7842 279.337 60.377 290.737 58.8242 c 2
 305.187 56.6777 l 1
 290 0 l 1
 16 0 l 1
 30.8203 55.3086 l 1
 45.1104 58.5205 l 2
 62.7607 62.3564 71.1689 64.6504 77.2852 67.3848 c 0
 80.8535 68.9795 84.6299 70.5527 88.2646 77.7236 c 0
 90.418 81.9746 92.7822 88.7568 95.2754 98.0615 c 2
 167.75 368.54 l 2
 171.151 382.245 171.587 386.256 171.319 390.363 c 0
 170.983 395.503 169.046 397.265 165.541 399.242 c 0
 161.064 401.77 153.056 404.272 139.062 407.047 c 2
 125.773 409.68 l 1
 139.524 461 l 1
 366.524 461 l 1
340.653 691 m 0
 393.454 691 423.591 647.849 409.563 595.5 c 0
 395.252 542.087 342.878 501 288.742 501 c 0
 235.621 501 205.084 541.461 219.832 596.5 c 0
 233.738 648.4 288.01 691 340.653 691 c 0
EndSplineSet
EndChar
StartChar: j
Encoding: 106 106 74
Width: 368
Flags: W
Validated: 33
HStem: -203 66<41.4034 78.1799> 441 20G<176.165 418.524> 501 190<316.924 408.546>
VStem: -79.9092 537.472<-85.5 595.5 -111.663 -11.5507>
Fore
387.653 691 m 0
 440.336 691 471.68 648.18 457.563 595.5 c 0
 443.416 542.699 389.092 501 336.742 501 c 0
 280.043 501 253.744 543.925 267.832 596.5 c 0
 281.648 648.065 334.898 691 387.653 691 c 0
418.524 461 m 1
 298.121 11.6484 l 2
 282.869 -45.2715 263.805 -84.5781 233.92 -118.309 c 0
 204.975 -152.332 145.223 -203 46.1064 -203 c 0
 -43.9873 -203 -98.7998 -156 -79.9092 -85.5 c 0
 -67.9619 -40.9111 -26.585 -7 20.624 -7 c 0
 61.1387 -7 88.9658 -37.4473 77.9658 -78.5 c 0
 73.9404 -93.5244 64.1064 -107.384 49.0254 -124.64 c 0
 43.6045 -130.843 41.9463 -133.063 40.7744 -134.904 c 1
 43.3711 -136.1 47.8555 -137 53.791 -137 c 0
 69.3848 -137 85.6846 -131.798 99.9658 -78.5 c 2
 219.236 366.623 l 2
 222.878 381.453 223.172 386.169 222.544 390.522 c 0
 222.061 393.887 220.826 396.528 216.854 398.805 c 0
 211.473 401.887 202.82 404.142 182.824 405.645 c 2
 167.011 406.832 l 1
 181.524 461 l 1
 418.524 461 l 1
EndSplineSet
EndChar
StartChar: k
Encoding: 107 107 75
Width: 626
Flags: W
Validated: 33
HStem: 0 59<36.5205 52.8018 316.801 324 359.645 401.802 604.159 613> 441 20G<452.165 706.524> 656 20G<197.775 425.134>
Fore
457.524 461 m 1
 706.524 461 l 1
 692.741 409.561 l 1
 676.967 407.773 l 2
 618.535 401.154 592.052 387.312 480.094 301.812 c 1
 602.34 66.25 l 2
 606.407 58.8164 606.909 59 611.309 59 c 2
 628.809 59 l 1
 613 0 l 1
 344 0 l 1
 359.645 58.3857 l 1
 376.681 58.9893 l 2
 391.017 59.8896 397.245 60.7402 402.027 62.5762 c 1
 401.079 69.75 395.983 82.7461 390.721 95.5195 c 2
 306.18 212.096 l 1
 299.859 208.469 l 1
 271.197 101.5 l 2
 266.902 84.5439 266.341 80.624 266.369 75.5439 c 0
 266.417 67.0811 269.715 66.127 278.612 64.0645 c 0
 286.233 62.2979 299.047 60.5732 316.801 58.8086 c 2
 339.162 56.5869 l 1
 324 0 l 1
 22 0 l 1
 36.5205 54.1914 l 1
 52.8018 55.5547 l 2
 74.6885 57.3887 87.4893 65.2695 95.6406 95.6904 c 2
 224.473 576.5 l 2
 233.169 608.954 224.008 615.195 203.305 617.067 c 2
 187.721 618.477 l 1
 203.134 676 l 1
 425.134 676 l 1
 316.279 269.749 l 1
 475.697 367.874 l 2
 488.016 378.357 494.473 386.693 497.565 391.957 c 2
 498.243 393.188 l 1
 498.243 393.188 497.777 391.94 498.484 393.69 c 1
 497.71 394.499 493.749 397.393 480.277 399.135 c 2
 478.615 399.35 l 1
 477.118 399.898 l 2
 475.281 400.57 472.791 400.155 456.428 403.282 c 2
 442.759 405.895 l 1
 457.524 461 l 1
503.199 411.163 m 2
 503.186 411.178 l 1
 503.158 411.093 503.127 411 503.127 411 c 1
 503.127 411 503.513 410.824 503.199 411.163 c 2
EndSplineSet
EndChar
StartChar: l
Encoding: 108 108 76
Width: 313
Flags: W
Validated: 33
HStem: 0 58.9922<31.4131 47.7529 264.749 290> 656 20G<191.775 422.134>
VStem: 16 406.134<0 676 15.9679 1.16299>
Fore
422.134 676 m 1
 267.585 99.2178 l 2
 258.963 67.0371 269.019 59.5654 288.837 58.9922 c 2
 305.669 58.4775 l 1
 290 0 l 1
 16 0 l 1
 31.4131 57.5234 l 1
 47.7529 58.9326 l 2
 66.7422 60.4678 84.9277 66.9072 93.4746 98.8037 c 2
 221.473 576.5 l 2
 229.654 607.034 219.735 615.1 197.348 617.062 c 2
 181.709 618.436 l 1
 197.134 676 l 1
 422.134 676 l 1
EndSplineSet
EndChar
StartChar: m
Encoding: 109 109 77
Width: 938
Flags: W
Validated: 33
HStem: 0 52.6699<300.903 306.631 332.802 354.673 613.605 619.971 643.471 665.384 898.639 919> 0 473<473.151 577.814 783.462 889.695 533.24 919 259.601 281.514> 371 102<405.758 532.153 722.683 858.993>
Fore
365.524 461 m 1x40
 354.401 419.488 l 1
 410.87 456.194 471.996 473 533.24 473 c 0
 592.943 473 627.438 452.668 644.885 399.476 c 1
 714.376 451.421 773.673 473 843.24 473 c 0x40
 934.74 473 980.16 414.855 956.196 325.42 c 2
 893.574 91.7139 l 2
 890.038 77.2139 889.398 71.4561 889.881 66.8447 c 0
 890.216 63.6396 891.016 59.7275 898.477 57.46 c 0
 901.89 56.4229 907.51 55.3779 917.11 54.9131 c 2
 933.502 54.1211 l 1
 919 0 l 1x80
 629.349 0 l 1x40
 643.471 52.7012 l 1
 665.384 53.8643 l 2
 684.189 55.1807 688.643 56.0098 694.178 57.4219 c 0
 702.74 59.6055 705.696 62.2061 708.812 66.2109 c 0
 712.243 70.623 715.63 76.9922 719.118 90.0088 c 2
 778.371 311.146 l 2
 792.613 364.296 774.67 371 746.846 371 c 0
 734.708 371 715.94 368.878 681.148 352.396 c 0
 662.394 343.512 650.192 334.818 645.688 330.987 c 1
 581.118 90.0088 l 2
 580.213 86.0449 576.297 73.625 580.417 65.1914 c 0
 581.611 62.8311 583.3 61.1006 586.284 59.5244 c 0
 590.428 57.3359 598.02 55.0508 613.605 53.8105 c 2
 633.955 52.1904 l 1
 619.971 0 l 1xa0
 318.689 0 l 1x40
 332.802 52.6699 l 1
 354.673 53.8613 l 2
 361.147 54.3359 371.724 54.6289 382.27 57.458 c 0
 390.457 59.6553 393.733 62.4326 396.925 66.5654 c 0
 400.291 70.9229 403.72 77.3262 407.118 90.0088 c 2
 466.371 311.146 l 2
 480.62 364.322 463.51 371 433.506 371 c 0
 421.61 371 403.334 369.247 369.32 353.276 c 0
 350.489 344.435 337.824 335.07 333.82 331.483 c 1
 269.118 90.0088 l 2
 265.639 74.9668 266.051 69.5146 268.098 65.291 c 0
 269.499 62.3975 271.172 60.8672 275.164 59.0791 c 0
 279.666 57.0625 287.922 55.0518 300.903 53.7529 c 2
 320.509 51.792 l 1
 306.631 0 l 1xa0
 16 0 l 1
 29.9727 52.1465 l 1
 44.9922 54.5742 l 2
 65.0635 58.1045 73.1904 60.5146 79.2539 63.9512 c 0
 82.1553 65.5957 84.6631 67.7578 86.7646 70.7324 c 0
 89.7705 74.9883 92.8086 81.3926 96.2773 94.3379 c 2
 169.496 367.592 l 2
 172.901 381.513 173.387 387.112 172.671 391.418 c 0
 172.172 394.419 171.35 396.571 167.785 398.919 c 0
 163.477 401.759 154.176 404.453 140.007 406.312 c 2
 125.385 408.23 l 1
 139.524 461 l 1
 365.524 461 l 1x40
EndSplineSet
EndChar
StartChar: n
Encoding: 110 110 78
Width: 626
Flags: W
Validated: 33
HStem: 0 51.8975<307.752 313.65 337.001 358.152 607.549 609> 0 473<476.074 580.695> 371 102<410.059 549.648>
Fore
370.524 461 m 1x40
 359.443 419.643 l 1
 415.049 455.399 475.449 473 534.24 473 c 0x40
 625.74 473 671.16 414.855 647.196 325.42 c 2
 584.574 91.7139 l 2
 581.097 77.542 580.403 71.832 580.818 67.2803 c 0
 581.107 64.1211 581.785 60.2773 589.096 57.8633 c 0
 592.466 56.749 598.012 55.583 607.549 54.8867 c 2
 623.396 53.7295 l 1
 609 0 l 1x80
 323.029 0 l 1x40
 337.001 52.1426 l 1
 358.152 53.8037 l 2
 387.479 56.1084 402.357 61.0449 410.118 90.0088 c 2
 469.371 311.146 l 2
 482.346 359.566 465.402 371 439.187 371 c 0
 416.802 371 387.497 362.312 355.696 343.539 c 0
 346.857 338.321 340.089 334.373 336.827 331.509 c 1
 272.118 90.0088 l 2
 271.249 86.1846 267.052 72.79 272.374 64.8838 c 0
 273.146 63.7705 274.049 62.8447 275.219 61.9609 c 0
 279.343 58.8486 288.413 55.5986 307.752 53.7705 c 2
 327.556 51.8975 l 1
 313.65 0 l 1xa0
 21 0 l 1
 34.9082 51.9062 l 1
 49.6768 54.5205 l 2
 66.8379 57.7598 74.7891 59.8057 80.6729 62.3975 c 0
 85.0732 64.3379 87.8066 65.96 90.9561 71.4141 c 0
 93.4629 75.7568 96.3398 83.375 99.2773 94.3379 c 2
 172.496 367.592 l 2
 176.031 381.794 176.546 386.188 176.32 390.519 c 0
 176.028 396.072 173.989 397.79 170.798 399.558 c 0
 166.436 401.973 158.863 404.175 144.635 406.365 c 2
 130.47 408.547 l 1
 144.524 461 l 1
 370.524 461 l 1x40
EndSplineSet
EndChar
StartChar: o
Encoding: 111 111 79
Width: 570
Flags: W
Validated: 33
HStem: -14 66<252.297 360.52> 407 66<334.685 441.399>
VStem: 87.1191 520.25<90.4229 215.391 231.832 367.371 229.033 231.832 231.832 231.832>
Fore
412.883 473 m 0
 569.318 473 644.744 368.518 607.369 229.033 c 0
 570.229 90.4229 438.81 -14 282.392 -14 c 0
 123.843 -14 49.0518 89.7637 87.1191 231.832 c 0
 123.437 367.371 258.085 473 412.883 473 c 0
396.485 407 m 0
 348.228 407 311.849 391.302 264.714 215.391 c 0
 226.314 72.083 252.591 52 300.076 52 c 0
 346.79 52 383.439 72.5488 423.909 223.583 c 0
 467.217 385.211 442.428 407 396.485 407 c 0
EndSplineSet
EndChar
StartChar: p
Encoding: 112 112 80
Width: 591
Flags: W
Validated: 33
HStem: -205 55.979<221.815 272.07> -13 90<286.894 381.121> 381 92<385.912 527.836>
Fore
370.524 461 m 1
 362.252 430.128 l 1
 399.204 460.681 437.011 473 482.24 473 c 0
 604.34 473 659.642 375.599 622.878 238.396 c 0
 584.17 93.9336 470.391 -13 346.017 -13 c 0
 305.517 -13 281.089 -1.98145 255.67 24.8936 c 1
 228.502 -76.5 l 2
 212.621 -135.769 222.032 -146.609 270.429 -149.021 c 2
 286.851 -149.84 l 1
 272.07 -205 l 1
 -35.9297 -205 l 1
 -20.8369 -148.675 l 1
 -5.56152 -146.238 l 2
 12.6406 -143.111 21.2549 -141.032 27.6416 -138.282 c 0
 35.1445 -135.053 37.1748 -131.353 39.1592 -127.428 c 0
 39.2803 -127.189 42.3369 -121.9 46.7314 -105.5 c 2
 173.163 366.348 l 2
 176.721 380.739 177.152 385.026 176.87 389.344 c 0
 176.508 394.884 174.354 396.803 170.941 398.683 c 0
 166.494 401.129 158.621 403.425 144.44 405.639 c 2
 130.283 407.849 l 1
 144.524 461 l 1
 370.524 461 l 1
338.474 333.92 m 2
 280.913 119.102 l 1
 286.656 91.5 305.591 77 329.132 77 c 0
 369.462 77 406.524 113.919 436.399 225.413 c 0
 469.017 347.144 452.865 381 419.589 381 c 0
 404.137 381 383.171 373.058 360.688 355.603 c 0
 345.044 343.458 338.476 333.927 338.474 333.92 c 2
EndSplineSet
EndChar
StartChar: q
Encoding: 113 113 81
Width: 626
Flags: W
Validated: 33
HStem: -14 89<194.4 363.5> 406 67<357.596 469.674>
VStem: 92.8691 584.603<219.704 236.431 420.581 472 219.704 472 219.704 219.704>
Fore
355.698 -79.5 m 2
 382.694 21.2529 l 1
 335.711 -2.53418 291.333 -14 238.674 -14 c 0
 112.03 -14 56.6816 84.6475 92.8691 219.704 c 0
 132.43 367.346 259.826 473 416.362 473 c 0
 484.332 473 518.282 457.354 553.943 420.581 c 1
 639.34 472 l 1
 677.472 472 l 1
 522.731 -105.5 l 2
 519.106 -120.039 518.909 -122.57 518.843 -126.628 c 0
 518.74 -132.991 520.728 -134.967 523.423 -136.857 c 0
 527.575 -139.772 534.113 -142.498 552.652 -146.325 c 2
 566.051 -149.092 l 1
 551.07 -205 l 1
 228.952 -205 l 1
 244.243 -147.935 l 1
 263.222 -145.291 l 2
 301.369 -139.779 320.124 -135.913 330.71 -129.531 c 0
 332.668 -128.35 334.203 -127.179 335.758 -125.683 c 0
 343.33 -118.389 349.053 -104.3 355.698 -79.5 c 2
331.403 75 m 0
 364.037 75 390.341 88.6895 407.496 113.812 c 1
 470.643 349.477 l 2
 480.029 384.51 460.531 406 422.646 406 c 0
 343.56 406 301.206 321.726 278.352 236.431 c 0
 246.506 117.581 273.619 75 331.403 75 c 0
EndSplineSet
EndChar
StartChar: r
Encoding: 114 114 82
Width: 479
Flags: W
Validated: 33
HStem: 293 180<414.088 532.814>
VStem: 19.6221 550.528<-35 377.5 -35 -35>
Fore
376.524 461 m 1
 363.515 412.446 l 1
 409.991 452.756 451.113 473 497.24 473 c 0
 551.565 473 585.504 434.8 570.15 377.5 c 0
 557.053 328.617 513.514 293 467.009 293 c 0
 436.438 293 418.845 303.56 404.301 336.508 c 0
 400.667 344.74 397.414 350.497 394.306 351.992 c 1
 375.96 351.458 343.388 322.404 330.552 274.5 c 2
 279.91 85.5 l 2
 265.744 32.6348 271.197 27.2275 320.066 23.9629 c 2
 336.133 22.8896 l 1
 320.622 -35 l 1
 19.6221 -35 l 1
 34.6553 21.1055 l 1
 49.7246 23.7178 l 2
 69.6836 27.4873 76.1133 29.5879 82.0781 32.8027 c 0
 86.8887 35.3945 88.8096 37.6426 90.9111 40.8428 c 0
 93.9746 45.5049 97.0947 52.6016 100.818 66.5 c 2
 179.596 360.5 l 2
 183.827 377.718 183.918 382.587 182.914 387.214 c 0
 182.293 390.078 180.795 392.363 178.472 394.117 c 0
 174.607 397.035 166.143 400.095 151.843 402.168 c 2
 137.324 404.272 l 1
 152.524 461 l 1
 376.524 461 l 1
EndSplineSet
EndChar
StartChar: s
Encoding: 115 115 83
Width: 424
Flags: W
Validated: 33
HStem: -49 522<227.186 310.032 211.37 328.24 328.24 328.24> -49 104<173.527 282.889> 405 68<267.47 348.801>
Fore
501.204 471 m 1x80
 452.974 291 l 1
 397.95 291 l 1
 397.087 302.854 l 2
 393.292 354.847 383.552 366.448 374.664 377.834 c 0
 360.478 396.01 340.059 405 319.02 405 c 0x20
 291.944 405 266.179 388.8 259.668 364.5 c 0
 253.803 342.614 265.75 321.392 325.753 292.604 c 0
 418.127 248.285 449.444 199.456 428.288 120.5 c 0
 401.037 18.7998 310.032 -49 211.37 -49 c 0x80
 196.984 -49 142.533 -34.7861 112.478 10.3799 c 0
 108.691 12.2676 102.215 14.5205 98.5703 14.9336 c 1
 94.3848 11.7324 86.9336 2.57129 82.0322 -3.62012 c 2
 65.2275 -48 l 1
 12.1387 -48 l 1
 75.1064 187 l 1
 134.385 187 l 1
 134.029 173.606 l 2
 132.317 109.081 150.244 55 222.237 55 c 0x40
 258.35 55 284.333 72.1523 291.481 98.8301 c 0
 296.258 116.657 287.15 135.919 223.562 164.292 c 0
 128.699 206.62 94.8066 253.059 113.315 322.133 c 0
 136.511 408.699 227.186 473 328.24 473 c 0
 352.46 473 376.252 468.274 407.37 457.152 c 0
 423.488 451.392 430.045 450.875 432.345 451 c 0
 437.959 451.305 435.063 451.131 435.479 451.318 c 0
 437.229 452.422 441.069 457.845 442.509 459.999 c 2
 449.856 471 l 1
 501.204 471 l 1x80
EndSplineSet
EndChar
StartChar: t
Encoding: 116 116 84
Width: 368
Flags: W
Validated: 33
HStem: -12 106<158.286 294.586> 382 79<369.524 442.356> 610 20G<356.059 414.808>
VStem: 98.9307 364.593<100.506 461 100.506 100.506>
Fore
463.524 461 m 1
 442.356 382 l 1
 348.356 382 l 1
 280.624 129.22 l 2
 279.661 125.197 276.202 113.556 277.247 104.229 c 0
 278.215 95.6025 283.457 94.7256 287.907 94.2373 c 0
 288.841 94.1338 287.571 94 292.688 94 c 0
 300.99 94 313.535 96.2432 345.629 136.65 c 2
 357.098 151.089 l 1
 407.165 126.115 l 1
 394.539 109.674 l 2
 325.999 20.4229 271.467 -12 198.284 -12 c 0
 118.288 -12 80.8428 33.002 98.9307 100.506 c 2
 174.356 382 l 1
 122.356 382 l 1
 136.455 434.616 l 1
 144.057 439.859 l 2
 222.662 494.079 272.479 537.101 356.059 622.625 c 2
 363.266 630 l 1
 414.808 630 l 1
 369.524 461 l 1
 463.524 461 l 1
EndSplineSet
EndChar
StartChar: u
Encoding: 117 117 85
Width: 591
Flags: W
Validated: 33
HStem: -14 100<195.72 315.809> -14 475<168.982 270.258 337.604 350.769 139.524 337.604 139.524 139.524>
VStem: 100.178 539.346<131.286 461 329.366 342.531>
Fore
337.604 -20.1387 m 1x60
 351.767 32.7158 l 1
 296.396 -2.12207 258.568 -14 211.749 -14 c 0xa0
 120.673 -14 75.5635 39.4219 100.178 131.286 c 2
 162.465 363.743 l 2
 165.97 377.761 166.681 382.732 166.451 387.154 c 0
 166.125 393.469 162.274 395.079 160.873 395.825 c 0
 156.938 397.92 151.207 399.817 137.951 402.324 c 2
 124.542 405.085 l 1
 139.524 461 l 1
 362.524 461 l 1x60
 275.155 134.933 l 2
 264.091 93.6416 273.178 86 300.544 86 c 0xa0
 321.807 86 340.254 93.2295 373.206 116.461 c 1
 439.706 364.643 l 2
 443.184 378.86 443.433 383.414 442.772 387.604 c 0
 442.264 390.829 441.033 393.37 437.12 395.543 c 0
 431.862 398.464 423.448 400.615 403.835 402.056 c 2
 388.076 403.344 l 1
 403.524 461 l 1
 639.524 461 l 1
 545.705 110.861 l 2
 542.152 96.2832 541.643 90.2568 542.418 85.7197 c 0
 543.217 81.0459 545.622 79.1357 548.562 77.7217 c 0
 552.914 75.625 560.199 73.9082 574.931 73.2803 c 2
 591.446 72.5752 l 1
 577.688 21.2295 l 1
 497.931 13.1055 l 2
 430.949 6.09473 408.816 2.5791 363.042 -12.0234 c 2
 337.604 -20.1387 l 1x60
EndSplineSet
EndChar
StartChar: v
Encoding: 118 118 86
Width: 570
Flags: W
Validated: 33
HStem: -14 475<242.96 292.553 292.553 492.524 429.524 456.18> 402.795 58.205<144.524 145.074 398.423 414.266 492.524 519.18 648.007 664.203 130.333 678.524 492.524 492.524>
Fore
492.524 461 m 1x80
 678.524 461 l 1x40
 664.203 407.55 l 1
 648.007 406.125 l 2
 626.238 404.209 621.175 402.798 593.404 364.839 c 2
 292.553 -14 l 1
 242.96 -14 l 1x80
 195.11 271.961 l 2
 185.961 332.539 168.675 391.075 165.727 399.739 c 0
 165.076 401.652 164.756 402.34 160.041 403.613 c 0
 157.19 404.384 152.455 405.259 145.074 406.188 c 2
 130.333 408.037 l 1
 144.524 461 l 1x40
 429.524 461 l 1x80
 414.266 404.052 l 1
 398.423 402.135 l 2
 389.357 401.039 381.854 400.317 378.385 400.028 c 0
 369.662 399.302 362.326 397.965 359.259 395.708 c 1
 359.141 395.562 358.802 395.07 358.438 393.5 c 0
 357.978 391.514 358.159 392.143 358.104 391.264 c 0
 358.041 390.26 358.062 390.478 358.055 389.831 c 0
 358.021 386.435 358.309 382.117 359.657 368.698 c 2
 401.251 207.41 l 1
 507.426 347.891 l 2
 519.485 366.25 525.706 378.771 527.562 386.5 c 0
 529.615 395.045 530.281 396.679 519.449 399.181 c 0
 513.747 400.498 505.041 401.471 493.407 402.019 c 2
 476.929 402.795 l 1x40
 492.524 461 l 1x80
EndSplineSet
EndChar
StartChar: w
Encoding: 119 119 87
Width: 827
Flags: W
Validated: 33
HStem: -49 510<220.475 271.465 505.705 553.367 553.367 765.524 452.524 452.524> 404.322 56.678<372.737 388.338 689.607 706.071>
Fore
765.524 461 m 1x80
 935.524 461 l 1x40
 920.531 405.045 l 1
 905.604 402.314 l 2
 887.396 398.984 881.461 396.479 857.923 362.872 c 2
 553.367 -49 l 1
 505.705 -49 l 1
 488.812 227.572 l 1
 271.465 -49 l 1
 220.475 -49 l 1x80
 179.494 366.594 l 2
 176.556 392.658 173.906 419.422 168.809 430.04 c 0
 167.165 433.465 165.614 434.77 162.531 436 c 0
 160.938 436.228 158.498 436.502 154.248 436.846 c 2
 140.354 437.97 l 1
 146.524 461 l 1
 403.524 461 l 1
 388.338 404.322 l 1x40
 372.737 402.176 l 2
 367.677 401.329 365.203 401.104 360.176 399.873 c 0
 347.286 396.718 347.76 394.7 346.902 391.5 c 0
 345.543 386.428 344.317 372.13 355.611 282.692 c 0
 370.476 269.019 388.667 249.531 397.101 229.02 c 2
 399.461 207.063 l 1
 481.406 330.174 l 1
 480.773 343.444 l 2
 480.263 367.396 479.976 382.913 477.735 391.794 c 0
 476.274 397.582 475.345 398.489 468.927 399.875 c 0
 465.747 400.562 461.701 401.116 452.455 402.092 c 2
 437.172 403.703 l 1
 452.524 461 l 1
 721.524 461 l 1
 706.071 403.327 l 1
 689.607 402.055 l 2
 658.685 399.221 657.83 397.221 656.243 396.436 c 0
 656.087 396.358 655.974 395.5 655.974 395.5 c 2
 653.354 385.72 654.746 314.39 655.186 294.325 c 2
 655.981 221.869 l 1
 717.615 262.837 l 2
 717.968 263.38 785.43 365.076 792.682 383.539 c 2
 792.888 384.083 l 1
 793 384.414 l 2
 793.021 384.48 793.026 384.5 793.026 384.5 c 2
 795.212 394.614 795.317 395.666 784.9 398.676 c 0
 780.355 399.988 773.828 401.159 765.362 402.102 c 2
 750.195 403.79 l 1
 765.524 461 l 1x80
EndSplineSet
EndChar
StartChar: x
Encoding: 120 120 88
Width: 535
Flags: W
Validated: 33
HStem: -35 58.0801<20.1846 36.9795 207.895 208.622 249.138 265.794> 402.522 58.478<357.802 404.855 432.71 466.287>
Fore
512.938 23.2031 m 2
 524.189 19.3662 l 1
 509.622 -35 l 1
 233.622 -35 l 1
 249.138 22.9072 l 1
 265.794 23.9639 l 2
 282.789 25.4062 289.92 26.4873 295.409 28.8838 c 1
 295.711 35.3721 293.246 48.9512 279.649 80.6436 c 2
 262.38 123.95 l 1
 262.231 123.793 l 1
 261.533 123.046 l 1
 260.776 122.354 l 2
 218.111 83.0088 186.33 48.584 177.241 32.543 c 2
 177.241 32.543 176.949 33.5 176.173 30.5 c 0
 176.146 30.3994 176.062 30.4121 175.979 30.4561 c 1
 176.074 30.3662 l 2
 179.937 26.6611 193.708 24.7734 207.895 23.9727 c 2
 224.178 23.0547 l 1
 208.622 -35 l 1
 4.62207 -35 l 1
 20.1846 23.0801 l 1
 36.9795 23.9746 l 2
 66.9053 25.5693 87.752 38.127 159.506 109.512 c 0
 173.619 123.552 202.688 151.615 237.429 184.473 c 1
 166.26 370.879 l 2
 155.404 398.103 153.047 399.244 134.608 402.203 c 2
 120.382 404.486 l 1
 135.524 461 l 1
 420.524 461 l 1
 404.855 402.522 l 1
 387.748 402.008 l 2
 370.761 401.117 363.211 400.242 357.535 398.062 c 1
 358.472 390.382 363.282 364.2 387.61 314.54 c 1
 399.597 326.097 412.068 337.717 418.755 343.449 c 0
 445.894 366.718 462.255 383.934 465.704 394.588 c 2
 465.704 394.588 462.927 383.398 465.974 395.5 c 0
 466.269 396.671 466.36 397.188 466.377 397.456 c 1
 464.463 398.829 462.315 399.738 453.302 400.008 c 0
 448.951 400.138 440.81 401.135 432.312 402.107 c 2
 417.208 403.837 l 1
 432.524 461 l 1
 635.524 461 l 1
 620.411 404.597 l 1
 605.062 402.224 l 2
 578.781 398.16 559.432 389.896 537.068 369.455 c 2
 412.967 253.422 l 1
 495.858 35.9619 l 2
 496.667 34.1484 496.95 33.0645 498.036 31.459 c 0
 498.85 30.2588 499.637 29.5322 500.4 28.9316 c 0
 502.469 27.3076 505.769 25.6484 512.938 23.2031 c 2
EndSplineSet
EndChar
StartChar: y
Encoding: 121 121 89
Width: 535
Flags: W
Validated: 33
HStem: -205 178<23.5822 138.659> 436 25<374.711 418.051 452.524 488.542>
Fore
452.524 461 m 1
 638.524 461 l 1
 624.225 407.632 l 1
 608.029 406.208 l 2
 585.738 404.25 578.57 400.718 553.697 365.348 c 2
 305.92 -3.62793 l 2
 246.037 -96.7207 213.247 -141.463 182.511 -166.587 c 0
 152.021 -191.511 113.671 -205 75.5703 -205 c 0
 11.6953 -205 -28.5869 -166.4 -13.0723 -108.5 c 0
 -0.538086 -61.7227 42.7256 -27 90.2656 -27 c 0
 132.405 -27 158.619 -53.6719 147.946 -93.5 c 0
 147.013 -96.9863 145.769 -100.605 140.936 -110.932 c 2
 140.436 -112 l 1
 139.86 -112.957 l 1
 141.609 -112.812 143.055 -112.438 145.737 -111.221 c 0
 174.022 -98.3965 206.433 -44.5312 207.444 -42.8691 c 2
 235.89 3.9502 l 1
 190.264 272.365 l 2
 183.35 312.307 168.478 378.003 162.847 395.366 c 2
 160.985 399.502 l 2
 159.85 401.562 160.14 402.405 155.083 403.768 c 0
 152.231 404.536 147.495 405.408 140.113 406.334 c 2
 125.371 408.18 l 1
 139.524 461 l 1
 424.524 461 l 1
 418.051 436.84 l 1
 385.568 436 l 2
 381.078 435.454 379.002 435.413 374.502 434.406 c 0
 367.748 432.896 363.545 431.255 362.804 428.455 c 0
 362.175 426.077 362.134 425.989 362.135 424.457 c 0
 362.138 420.314 363.025 412.746 367.502 375.823 c 2
 384.612 234.691 l 1
 476.468 382.34 l 2
 492.063 407.41 494.923 413.139 496.929 421.455 c 0
 498.989 430 499.646 431.634 488.815 434.136 c 0
 483.043 435.189 474.284 435.968 462.622 436.406 c 2
 446.021 436.729 l 1
 452.524 461 l 1
EndSplineSet
EndChar
StartChar: z
Encoding: 122 122 90
Width: 514
Flags: W
Validated: 1
HStem: -35 102.001<266.685 399.277> 393.902 67.098<230.332 365.878>
VStem: 11.6221 597.902<-35 461 -35 -35>
Fore
483.493 195 m 1
 544.087 195 l 1
 462.959 -35 l 1
 11.6221 -35 l 1
 24.2695 12.2021 l 1
 365.878 393.902 l 1
 238.92 392.172 218.742 373.721 178.017 297.046 c 2
 171.088 284 l 1
 113.214 284 l 1
 169.366 461 l 1
 609.524 461 l 1
 598.12 418.439 l 1
 266.685 67.001 l 1
 356.312 67.1123 388.986 77.3926 428.801 116.949 c 0
 448.448 136.47 459.313 150.977 476.483 182.238 c 2
 483.493 195 l 1
EndSplineSet
EndChar
StartChar: braceleft
Encoding: 123 123 91
Width: 394
Flags: HMW
Validated: 33
HStem: -175 12<340 340> 686 12<340 340>
VStem: 129 105<-34 131 377 391 391 556 556 562>
Fore
150.353 145 m 2
 166.632 205.754 156.84 224.523 83.1855 244.011 c 2
 18.9717 261 l 1
 92.29 277.989 l 2
 176.388 297.477 196.238 316.246 212.517 377 c 2
 260.479 556 l 2
 276.534 615.916 306.673 658.68 352.814 683.76 c 0
 396.265 707.377 441.9 714.495 531.521 715.499 c 2
 549.271 715.697 l 1
 537.516 671.828 l 1
 522.864 668.882 l 2
 444.796 653.188 419.563 627.221 402.088 562 c 2
 356.269 391 l 2
 337.333 320.334 310.795 284.046 248.438 261 c 1
 298.444 237.954 305.536 201.665 286.602 131 c 2
 240.782 -40 l 2
 221.862 -110.611 240.658 -132.199 304.394 -145.849 c 2
 317.659 -148.689 l 1
 305.871 -192.68 l 1
 288.241 -192.499 l 2
 190.019 -191.494 144.023 -181.644 116.176 -151.396 c 0
 90.2168 -123.199 89.0557 -83.7637 102.39 -34 c 2
 150.353 145 l 2
EndSplineSet
EndChar
StartChar: bar
Encoding: 124 124 92
Width: 220
Flags: HMW
Validated: 1
HStem: -19 20 671 20<66 154 154 154>
VStem: 66 88<-19 691 -19 691>
Fore
38.7197 -36.5 m 1
 238.342 708.5 l 1
 361.342 708.5 l 1
 161.72 -36.5 l 1
 38.7197 -36.5 l 1
EndSplineSet
EndChar
StartChar: braceright
Encoding: 125 125 93
Width: 394
Flags: HMW
Validated: 33
HStem: -175 12<54 54> 686 12<54 54>
VStem: 160 105<-39 -33 -33 132 132 146 392 557>
Fore
177.869 132 m 2
 196.539 201.675 223.685 238.484 286.046 261.848 c 1
 235.728 284.886 228.558 321.172 247.536 392 c 2
 293.355 563 l 2
 312.136 633.09 293.107 655.278 229.744 668.849 c 2
 216.479 671.689 l 1
 228.27 715.695 l 1
 245.912 715.499 l 2
 335.931 714.496 376.911 707.3 407.611 683.76 c 0
 440.613 658.455 448.043 617.816 431.748 557 c 2
 383.785 378 l 2
 367.506 317.246 377.298 298.477 450.952 278.989 c 2
 515.166 262 l 1
 441.848 245.011 l 2
 357.75 225.523 337.899 206.754 321.62 146 c 2
 273.657 -33 l 2
 257.604 -92.916 227.466 -135.68 181.322 -160.76 c 0
 137.872 -184.378 92.2373 -191.495 2.61621 -192.499 c 2
 -15.1328 -192.697 l 1
 -3.37793 -148.828 l 1
 11.2734 -145.882 l 2
 89.3418 -130.187 114.574 -104.221 132.05 -39 c 2
 177.869 132 l 2
EndSplineSet
EndChar
StartChar: asciitilde
Encoding: 126 126 94
Width: 520
Flags: W
Validated: 1
HStem: 157.5 123<397.142 493.739> 225.5 123<156.867 269.882>
VStem: 71.8105 513.06<243.239 262.746 243.239 243.239>
Fore
522.902 333.335 m 1xa0
 584.871 262.746 l 1
 572.182 249.828 l 2
 506.791 183.256 462.982 157.5 410.202 157.5 c 0xa0
 374.016 157.5 346.16 167.241 306.258 192.624 c 0
 267.757 217.114 242.821 225.5 211.423 225.5 c 0
 187.083 225.5 173.263 217.067 147.331 190.786 c 2
 131.963 175.211 l 1
 71.8105 243.239 l 1
 82.3623 255.737 l 2
 136.646 320.037 186.312 348.5 246.38 348.5 c 0x60
 283.083 348.5 309.742 338.517 375.825 304.994 c 0
 413.285 285.99 428.354 280.5 443.16 280.5 c 0
 464.844 280.5 486.612 298.747 507.625 318.773 c 2
 522.902 333.335 l 1xa0
EndSplineSet
EndChar
StartChar: uni0591
Encoding: 256 1425 95
Width: 0
Flags: HMW
Validated: 33
VStem: -92 55 -28 55 38 55
Fore
-61.5771 -60 m 2
 -53.9639 -31.5879 -32.8701 -10 -14.6797 -10 c 2
 9.32031 -10 l 2
 27.4766 -10 37.0283 -31.6182 29.4229 -60 c 2
 22.4902 -85.875 l 1
 48.291 -97.6641 75.4287 -127.156 62.6094 -175 c 2
 50.5508 -220 l 2
 48.5254 -227.561 33.877 -235 15.0322 -235 c 2
 -10.9678 -235 l 2
 -30.0068 -235 -40.4941 -227.635 -38.4492 -220 c 2
 -27.1953 -178 l 2
 -21.5586 -156.965 -26.1523 -140 -37.5127 -140 c 0
 -48.8604 -140 -62.5527 -156.942 -68.1953 -178 c 2
 -79.4492 -220 l 2
 -81.4746 -227.561 -96.123 -235 -114.968 -235 c 2
 -140.968 -235 l 2
 -160.007 -235 -170.494 -227.635 -168.449 -220 c 2
 -156.391 -175 l 2
 -143.88 -128.306 -103.408 -96.5098 -68.2852 -85.0352 c 1
 -61.5771 -60 l 2
EndSplineSet
EndChar
StartChar: uni0592
Encoding: 257 1426 96
Width: 0
Flags: W
Validated: 33
HStem: 630 110<78.312 154.709 212.312 288.709> 745 110<174.963 253.231>
VStem: 61.9111 109<657.565 741.186> 158.993 111<773.172 855.404> 195.911 109<657.565 741.186>
Fore
101.808 630 m 0xe0
 70.9873 630 54.0352 655.105 61.9111 684.5 c 0
 69.9385 714.459 100.417 740 131.282 740 c 0
 162.192 740 178.937 714.452 170.911 684.5 c 0
 163.034 655.104 132.598 630 101.808 630 c 0xe0
199.622 745 m 0
 168.97 745 150.783 769.86 158.993 800.5 c 0
 167.059 830.6 198.527 855 229.097 855 c 0
 259.664 855 278.058 830.596 269.993 800.5 c 0xd0
 261.78 769.848 230.262 745 199.622 745 c 0
235.808 630 m 0
 204.987 630 188.035 655.105 195.911 684.5 c 0
 203.938 714.459 234.417 740 265.282 740 c 0
 296.192 740 312.937 714.452 304.911 684.5 c 0xc8
 297.034 655.104 266.598 630 235.808 630 c 0
EndSplineSet
EndChar
StartChar: uni0593
Encoding: 258 1427 97
Width: 0
Flags: HMW
Validated: 33
HStem: 574 107
Fore
133.77 642.403 m 2
 105.774 669.612 l 2
 101.57 674.544 100.388 675.294 97.9082 679.859 c 0
 94.0918 686.888 91.3711 697.541 94.5303 709.329 c 0
 100.177 730.404 119.959 743 139.086 743 c 2
 143.586 743 l 1
 129.161 756.54 l 2
 121.592 765.069 116.367 770.946 115.786 782.836 c 0
 115.604 786.565 116.058 789.67 116.843 792.602 c 1
 118.585 796.072 123.263 814.801 147.695 820.588 c 0
 151.472 821.482 155.382 822 160.254 822 c 2
 167.754 822 l 1
 150.176 838.5 l 2
 145.397 843.656 139.754 849.164 137.525 858.389 c 0
 136.315 863.396 136.591 868.167 137.71 872.345 c 1
 141.047 878.521 145.022 894.197 169.142 898.905 c 0
 173.979 899.849 178.645 900 181.154 900 c 2
 254.154 900 l 2
 259.884 899.62 270.038 900.25 281.523 894.268 c 0
 282.18 893.926 283.796 893.003 284.699 892.411 c 0
 285.28 892.03 286.632 891.072 287.493 890.37 c 0
 288.002 889.955 289.074 889.005 289.868 888.213 c 2
 301.15 876.965 l 2
 305.155 871.552 308.033 868.596 310.034 862.021 c 0
 311.246 858.034 311.941 852.896 310.312 846.815 c 0
 307.877 837.729 299.328 824.792 279.547 821.05 c 1
 292.407 809.494 l 2
 296.896 804.352 302.334 798.58 304.206 789.482 c 0
 305.223 784.542 304.89 779.976 303.795 775.89 c 0
 299.311 759.156 282.363 748 261.426 748 c 2
 252.712 748 l 1
 271.348 730.394 l 2
 275.838 725.252 281.166 719.58 283.038 710.482 c 0
 284.055 705.542 283.722 700.976 282.627 696.89 c 0
 278.143 680.156 261.195 669 240.258 669 c 2
 224.591 669 l 1
 225.471 665.457 225.785 661.089 224.437 656.058 c 0
 221.644 645.635 210.525 630 182.808 630 c 2
 170.808 630 l 2
 165.385 630.179 162.552 630.027 157.355 630.795 c 0
 150.955 631.74 146.34 633.597 142.473 635.888 c 0
 138.825 638.05 135.395 641.004 133.77 642.403 c 2
EndSplineSet
EndChar
StartChar: uni0594
Encoding: 259 1428 98
Width: 0
Flags: HMW
Validated: 33
HStem: 665 75<-10.5 10.5> 780 75<-10.5 10.5>
Fore
198.282 740 m 0
 228.935 740 247.121 715.14 238.911 684.5 c 0
 230.846 654.4 199.377 630 168.808 630 c 0
 138.24 630 119.847 654.404 127.911 684.5 c 0
 136.124 715.152 167.643 740 198.282 740 c 0
229.097 855 m 0
 259.664 855 278.058 830.596 269.993 800.5 c 0
 261.78 769.848 230.262 745 199.622 745 c 0
 168.97 745 150.783 769.86 158.993 800.5 c 0
 167.059 830.6 198.527 855 229.097 855 c 0
EndSplineSet
EndChar
StartChar: uni0595
Encoding: 260 1429 99
Width: 0
Flags: HMW
Validated: 33
HStem: 665 75<39.5 60.5> 780 75<39.5 60.5>
VStem: -88 55
Fore
121.612 633 m 2
 97.6123 633 l 2
 80.6621 633 67.4883 645.6 72.5518 664.5 c 2
 114.353 820.5 l 2
 119.535 839.844 139.778 852 156.293 852 c 2
 180.293 852 l 2
 197.243 852 210.417 839.4 205.353 820.5 c 2
 163.553 664.5 l 2
 158.369 645.156 138.126 633 121.612 633 c 2
248.282 740 m 0
 278.935 740 297.121 715.14 288.911 684.5 c 0
 280.846 654.4 249.377 630 218.808 630 c 0
 188.24 630 169.847 654.404 177.911 684.5 c 0
 186.124 715.152 217.643 740 248.282 740 c 0
279.097 855 m 0
 309.664 855 328.058 830.596 319.993 800.5 c 0
 311.78 769.848 280.262 745 249.622 745 c 0
 218.97 745 200.783 769.86 208.993 800.5 c 0
 217.059 830.6 248.527 855 279.097 855 c 0
EndSplineSet
EndChar
StartChar: uni0596
Encoding: 261 1430 100
Width: 0
Flags: W
Validated: 33
HStem: -265 255<-50.2223 -35.4225>
VStem: -96.6777 64.1035<-137.97 -30.1627>
Fore
-32.5742 -36.8242 m 0
 -41.7588 -124.373 -27.7441 -152.594 15.2227 -177.877 c 0
 21.0771 -181.322 33.5957 -193.709 27.2207 -217.5 c 0
 20.1885 -243.745 -6.8125 -265 -33.0068 -265 c 0
 -38.5938 -265 -48.9941 -263.695 -58.0371 -255.42 c 0
 -110.658 -207.265 -115.474 -118.004 -96.6777 -41.7275 c 0
 -92.7969 -25.9805 -75.5801 -10 -56.6797 -10 c 0
 -41.3027 -10 -30.9258 -21.1084 -32.5742 -36.8242 c 0
EndSplineSet
EndChar
StartChar: uni0597
Encoding: 262 1431 101
Width: 0
Flags: W
Validated: 1
HStem: 630.122 214.628<190.435 204.788>
VStem: 108.969 177.287<722.17 752.83 722.17 752.83 722.17 722.17>
Fore
120.037 704.848 m 1
 118.544 706.344 110.708 709.964 108.969 722.17 c 0
 108.253 727.198 108.332 732.377 110.112 737.5 c 0
 113.352 746.817 113.341 747.165 117.185 752.83 c 0
 121.673 759.446 128.569 766.199 137.535 770.152 c 0
 156.856 778.672 176.701 796.526 190.199 821.23 c 0
 195.099 830.197 208.304 844.75 225.975 844.75 c 0
 244.022 844.75 249.4 829.879 249.621 820.514 c 0
 250.415 786.811 268.38 773.684 274.934 770.292 c 1
 276.427 768.796 284.518 765.036 286.256 752.83 c 0
 286.973 747.802 286.894 742.623 285.112 737.5 c 0
 281.874 728.183 281.884 727.835 278.041 722.17 c 0
 273.553 715.554 266.656 708.801 257.689 704.848 c 0
 238.368 696.328 218.525 678.474 205.025 653.77 c 0
 200.096 644.749 186.623 630.122 168.557 630.122 c 0
 150.781 630.122 145.377 644.933 145.327 653.919 c 0
 145.192 678.657 134.793 696.328 120.037 704.848 c 1
EndSplineSet
EndChar
StartChar: uni0598
Encoding: 263 1432 102
Width: 0
Flags: W
Validated: 33
HStem: 630 83<239.066 289.448> 630 67<98.3923 140.397> 736 84<98.9243 149.342> 752 68<248.415 289.964>
VStem: 31.6289 325<672.64 697 752 777.143 724.5 724.5 724.5 724.5>
Fore
120.127 733.045 m 2x58
 119.772 733.529 118.011 736 113.211 736 c 0
 106.896 736 100.325 730.83 98.6289 724.5 c 0
 94.627 709.562 104.495 697 118.761 697 c 0
 137.174 697 148.19 681.809 143.284 663.5 c 0
 138.351 645.086 119.116 630 100.808 630 c 0x68
 48.9482 630 17.7334 672.64 31.6289 724.5 c 0
 45.7354 777.145 99.8213 820 151.719 820 c 0
 178.575 820 199.147 808.826 211.527 791.915 c 2
 268.163 715.915 l 2
 268.518 715.431 270.248 713 275.048 713 c 0x98
 281.363 713 287.933 718.17 289.629 724.5 c 0
 293.632 739.438 283.764 752 269.498 752 c 0
 249.697 752 240.163 767.544 244.974 785.5 c 0
 249.727 803.236 267.803 820 287.719 820 c 0
 339.618 820 370.734 777.143 356.629 724.5 c 0
 342.733 672.64 288.668 630 236.808 630 c 0
 209.951 630 189.41 641.134 177.03 658.045 c 2
 120.127 733.045 l 2x58
EndSplineSet
EndChar
StartChar: uni0599
Encoding: 264 1433 103
Width: 0
Flags: W
Validated: 33
HStem: 630 255<201.551 216.351>
VStem: 198.702 64.105<656.824 764.633>
Fore
198.702 656.824 m 0
 207.888 744.373 193.872 772.594 150.905 797.877 c 0
 145.052 801.322 132.532 813.709 138.907 837.5 c 0
 145.939 863.745 172.94 885 199.135 885 c 0
 204.722 885 215.122 883.695 224.166 875.42 c 0
 276.787 827.265 281.603 738.004 262.807 661.729 c 0
 258.926 645.98 241.708 630 222.808 630 c 0
 207.431 630 197.054 641.108 198.702 656.824 c 0
EndSplineSet
EndChar
StartChar: uni059A
Encoding: 265 1434 104
Width: 0
Flags: W
Validated: 33
HStem: -235.125 215.125<37.5605 85.6406 85.6406 85.6406>
VStem: -159.878 271.774<-125.5 -54.5 -125.5 -125.5>
Fore
71.6533 -22.6016 m 2
 74.4199 -21.3818 76.0811 -19.6514 85.6406 -20 c 0
 88.0957 -20.0898 97.9062 -19.4688 106.151 -28.0547 c 0
 112.082 -34.2285 114.807 -43.6387 111.896 -54.5 c 0
 107.636 -70.4023 93.9248 -82.084 81.8711 -87.3984 c 2
 2.2373 -117.364 l 1
 62.6484 -145.283 l 2
 68.5957 -148.842 70.3447 -149.213 73.7695 -153.339 c 0
 77.3633 -157.668 78.8525 -162.575 79.2754 -167.111 c 0
 79.6777 -171.438 79.248 -176.345 77.5996 -182.5 c 2
 70.9004 -207.5 l 2
 66.459 -224.075 53.123 -235.125 37.5605 -235.125 c 0
 33.2959 -235.125 29.3545 -234.088 26.1865 -232.768 c 2
 -146.172 -151.741 l 2
 -158.545 -146.436 -162.7 -136.033 -159.878 -125.5 c 0
 -157.056 -114.967 -147.333 -104.567 -132.116 -99.2617 c 2
 71.6533 -22.6016 l 2
EndSplineSet
EndChar
StartChar: uni059B
Encoding: 266 1435 105
Width: 0
Flags: W
Validated: 33
HStem: -155 110<-112.667 -35.6311> -30 20G<59.6274 75.5112>
VStem: -129.429 110<-127.671 -44.5517> 28.8018 62.4804<-144.11 -1.31732>
Fore
-59.0576 -45 m 0
 -28.1475 -45 -11.4033 -70.5479 -19.4287 -100.5 c 0
 -27.3057 -129.896 -57.7422 -155 -88.5322 -155 c 0
 -119.1 -155 -137.493 -130.596 -129.429 -100.5 c 0
 -121.216 -69.8477 -89.6973 -45 -59.0576 -45 c 0
28.8018 -36.9121 m 0
 35.4805 -21.0928 51.9346 -10 67.3203 -10 c 0
 83.7021 -10 96.918 -23.0049 91.2822 -41.8408 c 0
 68.3516 -118.477 16.5801 -207.399 -61.8418 -255.42 c 0
 -71.9492 -261.609 -82.7109 -265 -93.0068 -265 c 0
 -118.472 -265 -135.004 -244.463 -127.779 -217.5 c 0
 -123.529 -201.639 -109.312 -184.919 -93.5469 -177.877 c 0
 -37.0303 -152.634 -8.13672 -124.414 28.8018 -36.9121 c 0
EndSplineSet
EndChar
StartChar: uni059C
Encoding: 267 1436 106
Width: 0
Flags: W
Validated: 33
HStem: 630 255
VStem: 91.8125 218.095 91.8125 61.4755<638.955 777.005>
Fore
153.288 656.824 m 0xa0
 146.48 641.026 130.193 630 114.808 630 c 0
 99.0576 630 86.3555 642.831 91.8125 661.729 c 0xa0
 113.839 738.005 166.495 827.369 244.971 875.42 c 0
 255.019 881.572 265.253 885 275.135 885 c 0
 301.38 885 316.926 863.694 309.907 837.5 c 0xc0
 303.532 813.709 284.376 801.322 276.676 797.877 c 0
 220.174 772.601 191.018 744.368 153.288 656.824 c 0xa0
EndSplineSet
EndChar
StartChar: uni059D
Encoding: 268 1437 107
Width: 0
Flags: W
Validated: 33
HStem: 630 255
VStem: 91.8125 218.095 91.8125 61.4755<638.955 777.005>
Fore
153.288 656.824 m 0xa0
 146.48 641.026 130.193 630 114.808 630 c 0
 99.0576 630 86.3555 642.831 91.8125 661.729 c 0xa0
 113.839 738.005 166.495 827.369 244.971 875.42 c 0
 255.019 881.572 265.253 885 275.135 885 c 0
 301.38 885 316.926 863.694 309.907 837.5 c 0xc0
 303.532 813.709 284.376 801.322 276.676 797.877 c 0
 220.174 772.601 191.018 744.368 153.288 656.824 c 0xa0
EndSplineSet
EndChar
StartChar: uni059E
Encoding: 269 1438 108
Width: 0
Flags: W
Validated: 33
HStem: 630 255
VStem: 31.8125 338.095<661.729 837.5 661.729 661.729> 31.8125 61.4756<638.955 777.004> 151.812 61.476<638.956 718.177>
Fore
93.2881 656.824 m 0xb0
 86.4805 641.026 70.1934 630 54.8076 630 c 0
 39.0576 630 26.3555 642.831 31.8125 661.729 c 0
 53.8389 738.005 106.495 827.369 184.971 875.42 c 0
 195.019 881.572 205.253 885 215.135 885 c 0
 241.38 885 256.926 863.694 249.907 837.5 c 0
 248.963 833.974 247.737 830.699 246.31 827.666 c 1
 263.854 845.944 283.44 862.237 304.971 875.42 c 0
 315.019 881.572 325.253 885 335.135 885 c 0
 361.38 885 376.926 863.694 369.907 837.5 c 0xc0
 363.532 813.709 344.376 801.322 336.676 797.877 c 0
 280.175 772.598 251.018 744.368 213.288 656.824 c 0
 206.48 641.026 190.193 630 174.808 630 c 0
 159.058 630 146.355 642.831 151.812 661.729 c 0
 165.089 707.705 189.495 758.438 223.976 802.011 c 1
 221.097 800.081 218.548 798.715 216.675 797.877 c 0
 160.175 772.598 131.018 744.368 93.2881 656.824 c 0xb0
EndSplineSet
EndChar
StartChar: uni059F
Encoding: 270 1439 109
Width: 0
Flags: W
Validated: 33
HStem: 630.676 255.415<82.4053 99.46 95.7334 108.614 591.113 596.361> 687.084 60.882<62.3447 67.2921 58.0587 73.2188 308.706 335.19 333.039 337.34 337.34 338.489> 808.844 77.247<63.1329 103.615 94.2839 99.0596 333.487 338.735 338.735 340.782 339.758 383.134>
VStem: -21.6025 466.359<783.688 787.674 808.844 818.48 783.688 818.48 1013.81 1015.86>
Fore
150.701 727.066 m 1x90
 165.444 684.418 l 2
 166.775 680.031 167.495 674.419 165.829 668.201 c 0
 161.796 653.148 148.223 645.76 140.226 643.035 c 2
 108.546 633.035 l 2
 103.407 631.284 99.46 630.676 95.7334 630.676 c 0x90
 82.4053 630.676 76.0381 639.568 74.8496 650.66 c 2
 72.7168 683.412 l 1
 65.6416 681.983 58.4717 681.212 51.3633 681.212 c 0
 40.5137 681.212 29.9131 683.078 20.042 687.084 c 0x50
 -17.4951 702.315 -32.8564 741.688 -21.6025 783.688 c 0
 -18.502 795.26 -13.3604 807.041 -6.13477 818.48 c 0
 20.1699 860.129 66.6152 886.091 108.614 886.091 c 0
 120.188 886.091 131.624 884.191 141.867 879.902 c 0
 179.644 864.084 193.365 824.014 182.407 783.117 c 0
 177.611 765.221 167.732 746.607 153.425 730.145 c 2
 150.701 727.066 l 1x90
112.04 777.336 m 0
 115.271 789.39 110.689 802.053 99.0596 807.143 c 0
 96.0234 808.471 92.917 808.844 89.4902 808.844 c 0
 76.8652 808.844 62.7402 800.936 54.5576 787.674 c 0
 52.4258 784.217 50.8184 780.641 49.8887 777.174 c 0
 46.4834 764.465 51.1924 752.411 62.3447 747.966 c 0x70
 65.457 746.725 68.7881 746.146 72.2559 746.146 c 0
 84.9639 746.146 99.2441 754.404 107.083 766.714 c 0
 109.305 770.202 111.116 773.885 112.04 777.336 c 0
343.968 808.844 m 0
 340.542 808.844 337.232 808.47 333.487 807.143 c 0
 319.137 802.055 307.763 789.39 304.532 777.336 c 0
 303.608 773.886 303.446 770.2 303.798 766.714 c 0
 305.041 754.392 314.883 746.146 327.603 746.146 c 0
 331.068 746.146 334.714 746.726 338.489 747.966 c 0
 352.037 752.415 363.188 764.454 366.598 777.174 c 0
 367.525 780.639 367.836 784.218 367.556 787.674 c 0
 366.479 800.95 356.6 808.844 343.968 808.844 c 0
313.697 681.212 m 0
 306.587 681.212 299.832 681.983 293.522 683.412 c 1
 273.838 650.66 l 2
 268.941 643.045 257.923 630.676 242.245 630.676 c 0x90
 238.519 630.676 234.897 631.284 230.696 633.035 c 2
 204.376 643.035 l 2
 196.594 646.279 188.546 654.343 192.259 668.201 c 0
 193.972 674.594 197.814 680.225 201.335 684.418 c 2
 238.954 727.091 l 1
 237.858 730.145 l 2
 232.337 746.59 232.469 765.219 237.265 783.117 c 0
 248.221 824.008 283.425 864.087 329.67 879.902 c 0
 342.213 884.191 354.667 886.091 366.24 886.091 c 0
 408.236 886.091 440.772 860.125 444.757 818.48 c 0
 445.852 807.04 444.681 795.261 441.579 783.688 c 0
 430.326 741.691 393.86 702.315 348.166 687.084 c 0
 336.145 683.077 324.55 681.212 313.697 681.212 c 0
EndSplineSet
EndChar
StartChar: uni05A0
Encoding: 271 1440 110
Width: 0
Flags: W
Validated: 33
HStem: 630.676 21G<118.646 127.836> 681.212 64.934<185.701 213.079 210.833 215.325 215.325 216.6> 808.844 77.247<210.376 215.94 215.94 218.782 217.361 261.123>
VStem: 69.8447 252.912<668.301 818.48 674.047 678.539>
Fore
221.483 808.844 m 0
 217.878 808.844 214.43 808.531 210.376 807.107 c 0
 196.133 802.104 185.208 789.558 181.8 776.837 c 0
 180.867 773.357 180.513 769.871 180.829 766.428 c 0
 181.966 754.088 191.718 746.146 205.087 746.146 c 0
 208.731 746.146 212.515 746.671 216.6 748.001 c 0
 230.151 752.414 241.188 764.454 244.597 777.174 c 0
 245.525 780.639 245.836 784.218 245.556 787.674 c 0
 244.48 800.934 234.77 808.844 221.483 808.844 c 0
191.53 681.212 m 0
 184.519 681.212 177.804 681.941 171.437 683.269 c 1
 151.838 650.66 l 2
 146.755 642.756 135.781 630.676 119.89 630.676 c 0
 117.402 630.676 113.284 630.984 107.891 632.959 c 2
 82.293 643.066 l 2
 72.8848 646.989 66.4434 655.608 69.8447 668.301 c 0
 71.7061 675.249 75.6582 680.717 79.9023 685.037 c 2
 116.693 727.918 l 1
 116.445 728.771 116.003 729.736 115.693 730.628 c 0
 109.92 747.218 110.023 765.205 114.851 783.222 c 0
 125.853 824.279 161.575 864.139 207.671 879.902 c 0
 220.213 884.191 232.668 886.091 244.241 886.091 c 0
 286.236 886.091 318.772 860.125 322.757 818.48 c 0
 323.852 807.04 322.681 795.261 319.579 783.688 c 0
 308.326 741.691 271.86 702.314 226.166 687.084 c 0
 214.145 683.077 202.514 681.212 191.53 681.212 c 0
EndSplineSet
EndChar
StartChar: uni05A1
Encoding: 272 1441 111
Width: 0
Flags: HMW
Validated: 33
HStem: 655 75 770 75
VStem: -89 55<682 730 755 838>
Fore
185.802 755 m 1
 187.302 755 l 2
 191.879 755.174 200.127 754.957 208.262 757.938 c 0
 212.756 759.584 216.699 762.029 220.354 768.237 c 0
 222.158 771.302 224.56 776.49 226.706 784.5 c 2
 236.353 820.5 l 2
 241.417 839.4 260.943 852 277.293 852 c 2
 302.293 852 l 2
 318.675 852 331.401 839.345 326.353 820.5 c 2
 313.759 773.5 l 2
 296.932 710.7 252.274 695 211.225 695 c 2
 169.725 695 l 1
 161.553 664.5 l 2
 156.488 645.6 136.962 633 120.612 633 c 2
 95.6123 633 l 2
 79.2305 633 66.5029 645.655 71.5518 664.5 c 2
 113.353 820.5 l 2
 118.454 839.539 137.751 852 154.293 852 c 2
 179.293 852 l 2
 195.643 852 208.417 839.4 203.353 820.5 c 2
 185.802 755 l 1
EndSplineSet
EndChar
StartChar: uni05A3
Encoding: 273 1443 112
Width: 0
Flags: HMW
Validated: 33
HStem: -110 55
Fore
27.667 -130 m 1
 51.1123 -42.5 l 2
 55.9893 -24.2998 74.0049 -10 92.3203 -10 c 2
 97.3203 -10 l 2
 115.521 -10 126.02 -24.1846 121.112 -42.5 c 2
 82.2598 -187.5 l 2
 77.3828 -205.7 59.3662 -220 41.0508 -220 c 2
 -158.949 -220 l 2
 -177.148 -220 -187.648 -205.815 -182.74 -187.5 c 2
 -176.042 -162.5 l 2
 -171.165 -144.3 -153.148 -130 -134.833 -130 c 2
 27.667 -130 l 1
EndSplineSet
EndChar
StartChar: uni05A4
Encoding: 274 1444 113
Width: 0
Flags: W
Validated: 33
HStem: -235.125 215.125<37.5605 85.6406 85.6406 85.6406>
VStem: -159.878 271.774<-125.5 -54.5 -125.5 -125.5>
Fore
71.6533 -22.6016 m 2
 74.4199 -21.3818 76.0811 -19.6514 85.6406 -20 c 0
 88.0957 -20.0898 97.9062 -19.4688 106.151 -28.0547 c 0
 112.082 -34.2285 114.807 -43.6387 111.896 -54.5 c 0
 107.636 -70.4023 93.9248 -82.084 81.8711 -87.3984 c 2
 2.2373 -117.364 l 1
 62.6484 -145.283 l 2
 68.5957 -148.842 70.3447 -149.213 73.7695 -153.339 c 0
 77.3633 -157.668 78.8525 -162.575 79.2754 -167.111 c 0
 79.6777 -171.438 79.248 -176.345 77.5996 -182.5 c 2
 70.9004 -207.5 l 2
 66.459 -224.075 53.123 -235.125 37.5605 -235.125 c 0
 33.2959 -235.125 29.3545 -234.088 26.1865 -232.768 c 2
 -146.172 -151.741 l 2
 -158.545 -146.436 -162.7 -136.033 -159.878 -125.5 c 0
 -157.056 -114.967 -147.333 -104.567 -132.116 -99.2617 c 2
 71.6533 -22.6016 l 2
EndSplineSet
EndChar
StartChar: uni05A5
Encoding: 275 1445 114
Width: 0
Flags: W
Validated: 33
HStem: -265 255
VStem: -143.779 218.095 12.8398 61.4766<-139.756 -1.70722>
Fore
12.8398 -36.8242 m 0xa0
 19.6484 -21.0264 35.9346 -10 51.3203 -10 c 0
 67.0703 -10 79.7734 -22.8311 74.3164 -41.7275 c 0
 52.29 -118.005 -0.366211 -207.369 -78.8418 -255.42 c 0
 -88.8896 -261.572 -99.125 -265 -109.007 -265 c 0
 -135.252 -265 -150.798 -243.694 -143.779 -217.5 c 0xc0
 -137.404 -193.709 -118.247 -181.322 -110.547 -177.877 c 0
 -54.0459 -152.601 -24.8887 -124.368 12.8398 -36.8242 c 0xa0
EndSplineSet
EndChar
StartChar: uni05A6
Encoding: 276 1446 115
Width: 0
Flags: W
Validated: 33
HStem: -265 255
VStem: -203.779 338.095<-217.5 -41.7275 -217.5 -217.5> -47.1602 61.4766<-80.928 -1.70677> 72.8398 61.4762<-139.755 -1.70755>
Fore
72.8398 -36.8242 m 0xb0
 79.6484 -21.0264 95.9346 -10 111.32 -10 c 0
 127.07 -10 139.773 -22.8311 134.316 -41.7275 c 0
 112.29 -118.005 59.6338 -207.369 -18.8418 -255.42 c 0
 -28.8896 -261.572 -39.125 -265 -49.0068 -265 c 0
 -75.252 -265 -90.7979 -243.694 -83.7793 -217.5 c 0
 -82.834 -213.974 -81.6084 -210.699 -80.1816 -207.666 c 1
 -97.7246 -225.944 -117.312 -242.237 -138.842 -255.42 c 0
 -148.89 -261.572 -159.125 -265 -169.007 -265 c 0
 -195.252 -265 -210.798 -243.694 -203.779 -217.5 c 0xc0
 -197.404 -193.709 -178.247 -181.322 -170.547 -177.877 c 0
 -114.046 -152.598 -84.8887 -124.368 -47.1602 -36.8242 c 0
 -40.3516 -21.0264 -24.0654 -10 -8.67969 -10 c 0
 7.07031 -10 19.7725 -22.8311 14.3164 -41.7275 c 0
 1.03906 -87.7051 -23.3662 -138.438 -57.8467 -182.011 c 1
 -54.9688 -180.081 -52.4189 -178.715 -50.5469 -177.877 c 0
 5.9541 -152.598 35.1113 -124.368 72.8398 -36.8242 c 0xb0
EndSplineSet
EndChar
StartChar: uni05A7
Encoding: 277 1447 116
Width: 0
Flags: HMW
Validated: 33
HStem: -95 60
Fore
30.2646 -169.427 m 2
 30.9512 -170.505 34.7637 -176.096 36.9639 -180.75 c 0
 41.71 -190.789 40.8008 -199.808 40.083 -204.772 c 0
 39.5254 -208.632 38.6758 -212.072 38.0244 -214.5 c 2
 34.0059 -229.5 l 2
 32.9688 -231.896 30.2168 -239.213 28.8486 -241.487 c 0
 20.0771 -256.075 5.68359 -264 -5.73828 -264 c 2
 -135.738 -264 l 1
 -141.715 -262.167 -156.962 -261.361 -158.261 -241.487 c 0
 -158.559 -236.938 -157.958 -233.096 -156.994 -229.5 c 2
 -152.439 -212.5 l 2
 -148.11 -196.343 -132.387 -179 -112.963 -179 c 2
 -58.2119 -179 l 1
 -104.422 -115.874 l 2
 -106.372 -113.134 -110.589 -107.753 -113.334 -101.525 c 0
 -117.666 -91.6992 -116.708 -83.0928 -115.996 -78.3047 c 0
 -115.736 -76.5566 -115.216 -73.5801 -114.122 -69.5 c 2
 -110.104 -54.5 l 2
 -105.374 -36.8496 -88.6592 -20 -70.3594 -20 c 2
 59.6406 -20 l 2
 77.9404 -20 85.626 -36.8496 80.8965 -54.5 c 2
 76.6094 -70.5 l 2
 71.8799 -88.1504 55.165 -105 36.8652 -105 c 2
 -16.8857 -105 l 1
 30.2646 -169.427 l 2
EndSplineSet
EndChar
StartChar: uni05A8
Encoding: 278 1448 117
Width: 0
Flags: W
Validated: 33
HStem: 630 255<201.551 216.351>
VStem: 198.702 64.105<656.824 764.633>
Fore
198.702 656.824 m 0
 207.888 744.373 193.872 772.594 150.905 797.877 c 0
 145.052 801.322 132.532 813.709 138.907 837.5 c 0
 145.939 863.745 172.94 885 199.135 885 c 0
 204.722 885 215.122 883.695 224.166 875.42 c 0
 276.787 827.265 281.603 738.004 262.807 661.729 c 0
 258.926 645.98 241.708 630 222.808 630 c 0
 207.431 630 197.054 641.108 198.702 656.824 c 0
EndSplineSet
EndChar
StartChar: uni05A9
Encoding: 279 1449 118
Width: 0
Flags: W
Validated: 33
HStem: 630.676 255.415<202.197 222.587 218.089 230.614 225.348 230.569> 808.844 77.247<185.142 226.278 217.071 222.151>
VStem: 100.397 204.479<765.207 766.428 787.674 795.26 783.222 783.688 783.688 783.688>
Fore
273.398 727.911 m 1xa0
 287.208 685.037 l 2
 289.137 680.717 290.158 675.249 288.297 668.301 c 0
 284.247 653.188 270.424 645.827 262.324 643.066 c 2
 231.311 632.959 l 2
 227.328 631.74 222.587 630.676 218.089 630.676 c 0
 202.197 630.676 197.696 642.756 196.85 650.66 c 2
 194.727 683.269 l 1
 187.647 681.941 180.541 681.212 173.53 681.212 c 0
 162.55 681.212 151.914 683.078 142.041 687.084 c 0
 104.505 702.315 89.1436 741.688 100.397 783.688 c 0
 103.498 795.26 108.64 807.041 115.865 818.48 c 0
 142.17 860.129 188.615 886.091 230.614 886.091 c 0
 242.188 886.091 253.624 884.191 263.867 879.902 c 0
 301.521 864.137 315.879 824.284 304.876 783.222 c 0
 300.049 765.207 290.406 747.292 275.85 730.628 c 0
 274.74 729.358 273.933 728.532 273.398 727.911 c 1xa0
234.506 776.837 m 0
 237.913 789.551 233.708 802.104 222.151 807.107 c 0
 218.86 808.532 215.581 808.844 211.976 808.844 c 0x60
 198.694 808.844 184.728 800.916 176.558 787.674 c 0
 174.425 784.217 172.818 780.641 171.89 777.174 c 0
 168.484 764.465 173.076 752.41 184.253 748.001 c 0
 187.627 746.671 191.127 746.146 194.772 746.146 c 0
 208.133 746.146 222.157 754.104 229.898 766.428 c 0
 232.062 769.873 233.573 773.355 234.506 776.837 c 0
EndSplineSet
EndChar
StartChar: uni05AA
Encoding: 280 1450 119
Width: 0
Flags: HMW
Validated: 33
VStem: -92 55 -28 55 38 55
Fore
-137.635 -105 m 2
 -125.577 -60 l 2
 -118.824 -34.7969 -99.5244 -10 -80.6797 -10 c 2
 -54.6797 -10 l 2
 -35.6406 -10 -29.7578 -34.5508 -36.5771 -60 c 2
 -47.8311 -102 l 2
 -48.2764 -103.661 -39.4951 -105 -28.1348 -105 c 0
 -16.7871 -105 -7.27637 -103.662 -6.83105 -102 c 2
 4.42285 -60 l 2
 11.1758 -34.7969 30.4756 -10 49.3203 -10 c 2
 75.3203 -10 l 2
 94.3594 -10 100.242 -34.5508 93.4229 -60 c 2
 81.3652 -105 l 2
 73.3252 -135.008 33.3281 -153.506 2.38672 -160.9 c 1
 -13.4492 -220 l 2
 -15.7324 -228.524 -32.7773 -235 -50.9678 -235 c 2
 -74.9678 -235 l 2
 -93.124 -235 -106.73 -228.515 -104.449 -220 c 2
 -88.7363 -161.359 l 1
 -118.822 -154.164 -145.467 -134.229 -137.635 -105 c 2
EndSplineSet
EndChar
StartChar: uni05AB
Encoding: 281 1451 120
Width: 0
Flags: W
Validated: 33
HStem: 628.875 215.125<269.068 317.149 317.149 317.149>
VStem: 71.6309 271.506<738.5 808.5 738.5 738.5>
Fore
310.881 843 m 2
 311.48 843 312.35 844 317.149 844 c 0
 336.743 844 348.374 828.046 343.137 808.5 c 1
 337.327 796.134 338.692 797.008 333.428 791.043 c 0
 328.846 785.854 321.63 780.239 313.379 776.602 c 2
 233.745 746.636 l 1
 294.156 718.717 l 2
 300.104 715.158 301.853 714.787 305.278 710.661 c 0
 308.871 706.332 310.36 701.425 310.784 696.889 c 0
 311.186 692.562 310.757 687.655 309.107 681.5 c 2
 302.408 656.5 l 2
 297.968 639.925 284.632 628.875 269.068 628.875 c 0
 264.805 628.875 260.862 629.912 257.694 631.232 c 2
 85.3359 712.259 l 2
 72.9629 717.564 68.8086 727.967 71.6309 738.5 c 0
 74.4531 749.033 84.1758 759.433 99.3916 764.738 c 2
 307.367 843 l 1
 310.881 843 l 2
EndSplineSet
EndChar
StartChar: uni05AC
Encoding: 282 1452 121
Width: 0
Flags: HMW
Validated: 33
HStem: 775 55
Fore
255.424 720 m 1
 278.869 807.5 l 2
 283.746 825.7 301.762 840 320.077 840 c 2
 325.077 840 l 2
 343.277 840 353.776 825.815 348.869 807.5 c 2
 310.017 662.5 l 2
 305.14 644.3 287.123 630 268.808 630 c 2
 68.8076 630 l 2
 50.6084 630 40.1084 644.185 45.0166 662.5 c 2
 51.7148 687.5 l 2
 56.5918 705.7 74.6084 720 92.9238 720 c 2
 255.424 720 l 1
EndSplineSet
EndChar
StartChar: uni05AD
Encoding: 283 1453 122
Width: 0
Flags: W
Validated: 33
HStem: -265 255<-50.2223 -35.4225>
VStem: -96.6777 64.1035<-137.97 -30.1627>
Fore
-32.5742 -36.8242 m 0
 -41.7588 -124.373 -27.7441 -152.594 15.2227 -177.877 c 0
 21.0771 -181.322 33.5957 -193.709 27.2207 -217.5 c 0
 20.1885 -243.745 -6.8125 -265 -33.0068 -265 c 0
 -38.5938 -265 -48.9941 -263.695 -58.0371 -255.42 c 0
 -110.658 -207.265 -115.474 -118.004 -96.6777 -41.7275 c 0
 -92.7969 -25.9805 -75.5801 -10 -56.6797 -10 c 0
 -41.3027 -10 -30.9258 -21.1084 -32.5742 -36.8242 c 0
EndSplineSet
EndChar
StartChar: uni05AE
Encoding: 284 1454 123
Width: 0
Flags: W
Validated: 33
HStem: 630 83<239.066 289.448> 630 67<98.3923 140.397> 736 84<98.9243 149.342> 752 68<248.415 289.964>
VStem: 31.6289 325<672.64 697 752 777.143 724.5 724.5 724.5 724.5>
Fore
120.127 733.045 m 2x58
 119.772 733.529 118.011 736 113.211 736 c 0
 106.896 736 100.325 730.83 98.6289 724.5 c 0
 94.627 709.562 104.495 697 118.761 697 c 0
 137.174 697 148.19 681.809 143.284 663.5 c 0
 138.351 645.086 119.116 630 100.808 630 c 0x68
 48.9482 630 17.7334 672.64 31.6289 724.5 c 0
 45.7354 777.145 99.8213 820 151.719 820 c 0
 178.575 820 199.147 808.826 211.527 791.915 c 2
 268.163 715.915 l 2
 268.518 715.431 270.248 713 275.048 713 c 0x98
 281.363 713 287.933 718.17 289.629 724.5 c 0
 293.632 739.438 283.764 752 269.498 752 c 0
 249.697 752 240.163 767.544 244.974 785.5 c 0
 249.727 803.236 267.803 820 287.719 820 c 0
 339.618 820 370.734 777.143 356.629 724.5 c 0
 342.733 672.64 288.668 630 236.808 630 c 0
 209.951 630 189.41 641.134 177.03 658.045 c 2
 120.127 733.045 l 2x58
EndSplineSet
EndChar
StartChar: uni05AF
Encoding: 285 1455 124
Width: 0
Flags: HMW
Validated: 33
HStem: 680 44 813 44
VStem: -89 44 44 44
Fore
205.785 768 m 0
 188.475 768 170.481 753.804 165.845 736.5 c 0
 161.206 719.189 171.601 705 188.904 705 c 0
 206.215 705 224.208 719.196 228.845 736.5 c 0
 233.483 753.811 223.089 768 205.785 768 c 0
225.881 843 m 0
 284.585 843 319.574 795.202 303.845 736.5 c 0
 288.115 677.796 227.51 630 168.808 630 c 0
 110.104 630 75.1152 677.798 90.8447 736.5 c 0
 106.574 795.204 167.179 843 225.881 843 c 0
EndSplineSet
EndChar
StartChar: afii57799
Encoding: 286 1456 125
Width: 0
Flags: W
Validated: 33
HStem: -235 110<-87.1026 -8.8345> -120 110<-56.8134 21.455>
VStem: -103.865 142.082<-180.5 -125 -120 -64.5 -180.5 -64.5 -180.5 -180.5>
Fore
-33.4932 -125 m 0
 -2.8418 -125 15.3447 -149.86 7.13477 -180.5 c 0
 -0.929688 -210.6 -32.3984 -235 -62.9678 -235 c 0
 -93.5352 -235 -111.929 -210.596 -103.865 -180.5 c 0
 -95.6514 -149.848 -64.1328 -125 -33.4932 -125 c 0
-2.67969 -10 m 0
 27.8877 -10 46.2812 -34.4043 38.2168 -64.5 c 0
 30.0039 -95.1523 -1.51465 -120 -32.1543 -120 c 0
 -62.8066 -120 -80.9922 -95.1396 -72.7832 -64.5 c 0
 -64.7178 -34.4004 -33.249 -10 -2.67969 -10 c 0
EndSplineSet
EndChar
StartChar: afii57801
Encoding: 287 1457 126
Width: 0
Flags: W
Validated: 33
HStem: -235 110<-151.464 -75.0669 44.897 123.165> -120 110<-188.813 -110.545 -54.8134 23.455 75.187 153.455>
VStem: -204.783 111<-91.8284 -9.59648> -167.865 109<-207.434 -123.813> -70.7832 111<-91.8274 -9.5952>
Fore
-134.68 -10 m 0xe0
 -104.112 -10 -85.7188 -34.4043 -93.7832 -64.5 c 0
 -101.996 -95.1523 -133.514 -120 -164.154 -120 c 0
 -194.806 -120 -212.992 -95.1396 -204.783 -64.5 c 0
 -196.718 -34.4004 -165.248 -10 -134.68 -10 c 0xe0
-98.4941 -125 m 0
 -67.583 -125 -50.8389 -150.548 -58.8652 -180.5 c 0
 -66.7412 -209.896 -97.1777 -235 -127.968 -235 c 0
 -158.788 -235 -175.741 -209.895 -167.865 -180.5 c 0xd0
 -159.837 -150.541 -129.358 -125 -98.4941 -125 c 0
-0.679688 -10 m 0
 29.8877 -10 48.2812 -34.4043 40.2168 -64.5 c 0
 32.0039 -95.1523 0.485352 -120 -30.1543 -120 c 0
 -60.8066 -120 -78.9922 -95.1396 -70.7832 -64.5 c 0xc8
 -62.7178 -34.4004 -31.249 -10 -0.679688 -10 c 0
98.5059 -125 m 0
 129.158 -125 147.345 -149.86 139.135 -180.5 c 0
 131.07 -210.6 99.6006 -235 69.0322 -235 c 0
 38.4648 -235 20.0713 -210.596 28.1348 -180.5 c 0
 36.3486 -149.848 67.8662 -125 98.5059 -125 c 0
129.32 -10 m 0
 159.888 -10 178.281 -34.4043 170.217 -64.5 c 0
 162.004 -95.1523 130.486 -120 99.8457 -120 c 0
 69.1943 -120 51.0078 -95.1396 59.2168 -64.5 c 0
 67.2822 -34.4004 98.752 -10 129.32 -10 c 0
EndSplineSet
EndChar
StartChar: afii57800
Encoding: 288 1458 127
Width: 0
Flags: HMW
Validated: 33
HStem: -235 75<120.5 141.5> -110 55<-159.5 23 -155 23>
VStem: 94 75
Fore
-201.567 -52.5 m 2
 -197.213 -36.25 -179.859 -20 -160.359 -20 c 2
 17.6406 -20 l 2
 37.1406 -20 45.7871 -36.25 41.4326 -52.5 c 2
 34.7344 -77.5 l 2
 30.3799 -93.75 13.0254 -110 -6.47461 -110 c 2
 -184.475 -110 l 2
 -203.975 -110 -212.62 -93.75 -208.266 -77.5 c 2
 -201.567 -52.5 l 2
97.5059 -125 m 0
 128.416 -125 145.161 -150.548 137.135 -180.5 c 0
 129.259 -209.896 98.8223 -235 68.0322 -235 c 0
 37.4648 -235 19.0713 -210.596 27.1348 -180.5 c 0
 35.3486 -149.848 66.8662 -125 97.5059 -125 c 0
128.32 -10 m 0
 159.141 -10 176.094 -35.1055 168.217 -64.5 c 0
 160.189 -94.459 129.711 -120 98.8457 -120 c 0
 68.1943 -120 50.0078 -95.1396 58.2168 -64.5 c 0
 66.2822 -34.4004 97.752 -10 128.32 -10 c 0
EndSplineSet
EndChar
StartChar: afii57802
Encoding: 289 1459 128
Width: 0
Flags: HMW
Validated: 33
HStem: -235 75<120.5 141.5> -110 55<-159.5 23 -155 -122 -24 -10 -10 23>
VStem: -84 37 94 75
Fore
-151.475 -110 m 2
 -184.475 -110 l 2
 -203.975 -110 -212.62 -93.75 -208.266 -77.5 c 2
 -201.567 -52.5 l 2
 -197.213 -36.25 -179.859 -20 -160.359 -20 c 2
 17.6406 -20 l 2
 37.1406 -20 45.7871 -36.25 41.4326 -52.5 c 2
 34.7344 -77.5 l 2
 30.3799 -93.75 13.0254 -110 -6.47461 -110 c 2
 -39.4746 -110 l 2
 -44.3535 -110.169 -46.1611 -110.157 -47.8506 -110.288 c 0
 -59.5 -111.186 -60.5371 -112.1 -62.7881 -120.5 c 0
 -63.0254 -121.385 -63.7598 -124.039 -63.9961 -124.923 c 0
 -65.5869 -130.859 -67.4873 -136.864 -63.627 -143.661 c 0
 -62.4414 -145.748 -56.9521 -151.802 -57.6963 -167.155 c 0
 -57.9082 -171.531 -58.6592 -176 -59.8652 -180.5 c 0
 -67.7412 -209.896 -98.1777 -235 -128.968 -235 c 0
 -159.535 -235 -177.929 -210.596 -169.865 -180.5 c 0
 -165.906 -165.728 -156.215 -152.602 -145.382 -142.893 c 0
 -144.49 -142.095 -140.958 -139.474 -138.628 -134.019 c 0
 -137.692 -131.827 -137.052 -129.484 -136.777 -128.459 c 0
 -136.019 -125.627 -135.426 -123.441 -134.788 -120.5 c 0
 -133.244 -113.386 -130.753 -111.406 -143.947 -110.281 c 0
 -144.377 -110.245 -146.274 -110 -151.475 -110 c 2
97.5059 -125 m 0
 128.416 -125 145.161 -150.548 137.135 -180.5 c 0
 129.259 -209.896 98.8223 -235 68.0322 -235 c 0
 37.4648 -235 19.0713 -210.596 27.1348 -180.5 c 0
 35.3486 -149.848 66.8662 -125 97.5059 -125 c 0
128.32 -10 m 0
 159.141 -10 176.094 -35.1055 168.217 -64.5 c 0
 160.189 -94.459 129.711 -120 98.8457 -120 c 0
 68.1943 -120 50.0078 -95.1396 58.2168 -64.5 c 0
 66.2822 -34.4004 97.752 -10 128.32 -10 c 0
EndSplineSet
EndChar
StartChar: afii57793
Encoding: 290 1460 129
Width: 0
Flags: W
Validated: 33
HStem: -120 110<-56.8134 21.455>
VStem: -72.7832 111<-91.8274 -9.59519>
Fore
-2.67969 -10 m 0
 27.8877 -10 46.2812 -34.4043 38.2168 -64.5 c 0
 30.0039 -95.1523 -1.51465 -120 -32.1543 -120 c 0
 -62.8066 -120 -80.9922 -95.1396 -72.7832 -64.5 c 0
 -64.7178 -34.4004 -33.249 -10 -2.67969 -10 c 0
EndSplineSet
EndChar
StartChar: afii57794
Encoding: 291 1461 130
Width: 0
Flags: HMW
Validated: 33
VStem: -95 75<-92.5 -72> 20 75<-92.5 -72>
Fore
55.3203 -10 m 0
 85.334 -10 101.156 -42.3359 90.5283 -82 c 0
 84.9199 -102.929 55.9414 -120 25.8457 -120 c 0
 -4.80664 -120 -25.0928 -102.979 -19.4717 -82 c 0
 -8.81738 -42.2354 24.751 -10 55.3203 -10 c 0
-60.6797 -10 m 0
 -30.1123 -10 -13.8184 -42.2402 -24.4717 -82 c 0
 -30.0957 -102.987 -59.5146 -120 -90.1543 -120 c 0
 -120.254 -120 -140.08 -102.93 -134.472 -82 c 0
 -123.848 -42.3486 -90.7031 -10 -60.6797 -10 c 0
EndSplineSet
EndChar
StartChar: afii57795
Encoding: 292 1462 131
Width: 0
Flags: W
Validated: 33
HStem: -235 110<-87.1026 -8.8345> -120 110<-122.581 -46.1837 11.4192 87.8163>
VStem: -138.783 109<-92.9736 -9.35286> -103.865 111<-206.675 -124.443> -4.7832 109<-92.9736 -9.35292>
Fore
-69.6797 -10 m 0xe0
 -38.8594 -10 -21.9062 -35.1055 -29.7832 -64.5 c 0
 -37.8105 -94.459 -68.2891 -120 -99.1543 -120 c 0
 -130.064 -120 -146.809 -94.4521 -138.783 -64.5 c 0
 -130.906 -35.1045 -100.47 -10 -69.6797 -10 c 0xe0
-33.4932 -125 m 0
 -2.8418 -125 15.3447 -149.86 7.13477 -180.5 c 0
 -0.929688 -210.6 -32.3984 -235 -62.9678 -235 c 0
 -93.5352 -235 -111.929 -210.596 -103.865 -180.5 c 0xd0
 -95.6514 -149.848 -64.1328 -125 -33.4932 -125 c 0
64.3203 -10 m 0
 95.1406 -10 112.094 -35.1055 104.217 -64.5 c 0
 96.1895 -94.459 65.7109 -120 34.8457 -120 c 0
 3.93555 -120 -12.8086 -94.4521 -4.7832 -64.5 c 0xc8
 3.09375 -35.1045 33.5303 -10 64.3203 -10 c 0
EndSplineSet
EndChar
StartChar: afii57798
Encoding: 293 1463 132
Width: 0
Flags: W
Validated: 33
HStem: -110 90<-144.046 -129.475 -129.475 109.212 -105.359 70.5254 -105.359 -105.359>
VStem: -153.266 271.699<-68.174 -61.826 -77.5 -52.5 -77.5 98.3844>
Fore
-146.567 -52.5 m 2
 -141.69 -34.2998 -123.674 -20 -105.359 -20 c 2
 94.6406 -20 l 2
 112.841 -20 123.34 -34.1846 118.433 -52.5 c 2
 111.734 -77.5 l 2
 106.857 -95.7002 88.8408 -110 70.5254 -110 c 2
 -129.475 -110 l 2
 -147.675 -110 -158.174 -95.8154 -153.266 -77.5 c 2
 -146.567 -52.5 l 2
EndSplineSet
EndChar
StartChar: afii57797
Encoding: 294 1464 133
Width: 0
Flags: W
Validated: 33
HStem: -235.31 215<-65.9907 -8.68451> -110.31 90.0004<-144.239 -129.668 -129.668 -78.1072 5.25986 22.0705 22.0705 109.019>
VStem: -104.059 111<-218.412 -162.549>
Fore
7.28418 -151.701 m 1x60
 6.60449 -152.79 l 1
 7.53223 -155.374 8.30469 -158.484 8.66406 -162.279 c 0
 9.20801 -168.026 8.68945 -174.288 6.94141 -180.81 c 0
 -1.12305 -210.909 -32.5918 -235.31 -63.1611 -235.31 c 0xa0
 -93.7285 -235.31 -112.122 -210.905 -104.059 -180.81 c 0
 -100.1 -166.037 -90.5391 -152.764 -79.5752 -143.202 c 0
 -73.0752 -137.534 -70.7764 -131.328 -69.1416 -125.229 c 0
 -68.9053 -124.346 -68.1572 -121.691 -67.9814 -120.81 c 0
 -66.7646 -114.713 -64.5176 -111.738 -78.085 -110.592 c 0
 -78.5361 -110.554 -80.4678 -110.31 -85.668 -110.31 c 2
 -129.668 -110.31 l 2
 -147.868 -110.31 -158.366 -96.125 -153.459 -77.8096 c 2
 -146.761 -52.8096 l 2
 -141.884 -34.6094 -123.868 -20.3096 -105.552 -20.3096 c 2
 94.4473 -20.3096 l 2
 112.648 -20.3096 123.147 -34.4941 118.239 -52.8096 c 2
 111.541 -77.8096 l 2
 106.664 -96.0098 88.6475 -110.31 70.332 -110.31 c 2
 26.332 -110.31 l 2
 21.4531 -110.479 19.6455 -110.467 17.9561 -110.598 c 0
 6.30566 -111.498 5.26953 -112.409 3.01855 -120.81 c 0
 2.7832 -121.687 2.05566 -124.315 1.82129 -125.192 c 0
 0.208984 -131.209 -1.32422 -137.53 2.58984 -143.973 c 2
 7.28418 -151.701 l 1x60
EndSplineSet
EndChar
StartChar: afii57806
Encoding: 295 1465 134
Width: 0
Flags: W
Validated: 33
HStem: 610 110<139.315 217.583>
VStem: 122.552 111.001<638.325 720.556>
Fore
192.924 720 m 0
 223.576 720 241.762 695.14 233.553 664.5 c 0
 225.487 634.4 194.019 610 163.449 610 c 0
 132.882 610 114.488 634.404 122.552 664.5 c 0
 130.766 695.152 162.284 720 192.924 720 c 0
EndSplineSet
EndChar
StartChar: afii57796
Encoding: 296 1467 135
Width: 0
Flags: W
Validated: 33
HStem: -235 110<18.5362 94.9332> -178 111<-71.3346 5.68645> -120 110<-160.581 -84.1838>
VStem: -176.783 109<-92.9753 -9.35499> -88.3242 111<-149.829 -66.4431> 2.13477 109<-207.434 -123.813>
Fore
71.5059 -125 m 0x84
 102.416 -125 119.161 -150.548 111.135 -180.5 c 0
 103.259 -209.896 72.8223 -235 42.0322 -235 c 0
 11.2119 -235 -5.74121 -209.895 2.13477 -180.5 c 0
 10.1631 -150.541 40.6416 -125 71.5059 -125 c 0x84
-88.3242 -122.5 m 0x48
 -80.1104 -91.8477 -48.5918 -67 -17.9521 -67 c 0
 12.6992 -67 30.8857 -91.8604 22.6758 -122.5 c 0
 14.4629 -153.152 -17.0557 -178 -47.6953 -178 c 0
 -78.3477 -178 -96.5342 -153.14 -88.3242 -122.5 c 0x48
-176.783 -64.5 m 0x30
 -168.906 -35.1045 -138.47 -10 -107.68 -10 c 0
 -76.8594 -10 -59.9062 -35.1055 -67.7832 -64.5 c 0
 -75.8105 -94.459 -106.289 -120 -137.154 -120 c 0
 -168.063 -120 -184.809 -94.4521 -176.783 -64.5 c 0x30
EndSplineSet
EndChar
StartChar: afii57807
Encoding: 297 1468 136
Width: 0
Flags: W
Validated: 33
HStem: 245 111<77.8896 119.029>
VStem: 25.0186 111<262.213 338.787 300.5 300.5 300.5 300.5>
Fore
25.0186 300.5 m 0
 31.5566 324.9 53.0244 345.827 77.0674 352.929 c 1
 77.8896 356 l 1
 95.3896 356 l 2
 126.042 356 144.229 331.14 136.019 300.5 c 0
 127.806 269.848 96.2871 245 65.6475 245 c 0
 34.9951 245 16.8086 269.86 25.0186 300.5 c 0
EndSplineSet
EndChar
StartChar: afii57839
Encoding: 298 1469 137
Width: 0
Flags: HMW
Validated: 33
VStem: -28 55
Fore
-103.109 -215 m 2
 -61.5771 -60 l 2
 -53.9639 -31.5879 -32.8701 -10 -14.6797 -10 c 2
 9.32031 -10 l 2
 27.4766 -10 37.0283 -31.6182 29.4229 -60 c 2
 -12.1094 -215 l 2
 -14.3936 -223.524 -31.4375 -230 -49.6279 -230 c 2
 -73.6279 -230 l 2
 -91.7842 -230 -105.391 -223.515 -103.109 -215 c 2
EndSplineSet
EndChar
StartChar: afii57645
Encoding: 299 1470 138
Width: 503
Flags: W
Validated: 33
HStem: 439.322 195<226.875 590.674 249.466 539.216 249.466 249.466>
VStem: 165.341 462.237<455.645 591.822 455.645 745.395>
Fore
194.311 590.822 m 2
 198.202 601.859 200.513 609.229 208.844 618 c 0
 212.342 621.683 215.615 624.165 218.824 626.177 c 0
 229.432 632.828 240.845 634.322 249.466 634.322 c 2
 591.466 634.322 l 2
 629.466 634.322 632.134 608.822 627.578 591.822 c 2
 598.104 481.822 l 2
 593.549 464.822 577.216 439.322 539.216 439.322 c 2
 197.216 439.322 l 2
 185.869 440.066 177.982 440.816 170.939 447.468 c 0
 168.809 449.479 166.865 451.962 165.341 455.645 c 0
 161.71 464.416 163.204 474.732 165.372 482.822 c 2
 194.311 590.822 l 2
EndSplineSet
EndChar
StartChar: afii57841
Encoding: 300 1471 139
Width: 0
Flags: W
Validated: 33
HStem: 619 90<66.2891 80.8604 80.8604 289.547 104.976 250.86 104.976 104.976>
VStem: 57.0693 241.699<660.826 667.176 651.5 676.5 651.5 797.384>
Fore
63.7676 676.5 m 2
 68.6445 694.7 86.6611 709 104.976 709 c 2
 274.976 709 l 2
 293.176 709 303.675 694.815 298.768 676.5 c 2
 292.069 651.5 l 2
 287.192 633.3 269.176 619 250.86 619 c 2
 80.8604 619 l 2
 62.6602 619 52.1611 633.185 57.0693 651.5 c 2
 63.7676 676.5 l 2
EndSplineSet
EndChar
StartChar: afii57842
Encoding: 301 1472 140
Width: 190
Flags: W
Validated: 33
HStem: -15 21G<69.3804 112.638>
VStem: 50 262.827<0 645 1.53064e-18 1.53064e-18>
Fore
78.4805 -15 m 2
 60.2803 -15 47.7354 -8.45312 50 0 c 2
 222.827 645 l 2
 225.078 653.4 241.031 660 259.347 660 c 2
 284.347 660 l 2
 302.547 660 315.092 653.453 312.827 645 c 2
 140 0 l 2
 137.749 -8.40039 121.796 -15 103.48 -15 c 2
 78.4805 -15 l 2
EndSplineSet
EndChar
StartChar: afii57804
Encoding: 302 1473 141
Width: 0
Flags: W
Validated: 33
HStem: 595 110<778.77 857.039>
VStem: 762.801 111<623.171 705.403>
Fore
832.904 705 m 0
 863.471 705 881.865 680.596 873.801 650.5 c 0
 865.588 619.848 834.069 595 803.43 595 c 0
 772.777 595 754.591 619.86 762.801 650.5 c 0
 770.866 680.6 802.335 705 832.904 705 c 0
EndSplineSet
EndChar
StartChar: afii57803
Encoding: 303 1474 142
Width: 0
Flags: W
Validated: 33
HStem: 595 109.999<306.751 360.404 360.404 384.539>
VStem: 291.301 110<622.913 705.375>
Fore
360.404 704.999 m 1
 360.404 705 l 1
 390.971 705 409.365 680.596 401.301 650.5 c 0
 393.088 619.848 361.569 595 330.93 595 c 0
 300.83 595 283.11 619.931 291.301 650.5 c 0
 299.311 680.391 330.269 704.731 360.404 704.999 c 1
EndSplineSet
EndChar
StartChar: afii57658
Encoding: 304 1475 143
Width: 435
Flags: W
Validated: 33
HStem: 617.25 20G<381.185 393.365>
VStem: 140.559 333.54<150.25 519.875 150.25 150.25>
Fore
154.806 114.749 m 0
 140.689 121.015 136.038 136.326 140.559 150.25 c 0
 143.675 159.851 144.016 160.261 148.175 165.957 c 0
 149.871 168.279 158.415 178.932 173.92 184.442 c 0
 203.464 194.943 230.283 217.507 247.541 243.49 c 0
 257.81 258.95 275.054 267.25 289.033 267.25 c 0
 299.414 267.25 314.677 262.604 317.06 243.296 c 0
 320.412 216.142 336.536 194.132 360.033 184.411 c 0
 377.525 177.175 377.739 160.256 374.958 149.875 c 0
 371.229 135.959 358.749 120.829 341.786 114.749 c 0
 314.419 104.94 285.325 85.1807 267.214 56.9287 c 0
 254.776 37.5264 236.677 32.75 226.324 32.75 c 0
 215.972 32.75 200.433 37.5264 198.392 56.9287 c 0
 195.421 85.1807 176.915 104.937 154.806 114.749 c 0
253.947 484.749 m 0
 239.831 491.015 235.18 506.326 239.699 520.25 c 0
 242.816 529.851 243.157 530.261 247.316 535.957 c 0
 249.013 538.279 257.556 548.932 273.062 554.442 c 0
 302.605 564.943 329.424 587.507 346.683 613.49 c 0
 356.95 628.95 374.194 637.25 388.175 637.25 c 0
 398.556 637.25 413.817 632.604 416.201 613.296 c 0
 419.554 586.142 435.678 564.132 459.174 554.411 c 0
 476.666 547.175 476.881 530.256 474.099 519.875 c 0
 470.37 505.959 457.891 490.829 440.927 484.749 c 0
 413.56 474.94 384.467 455.181 366.355 426.929 c 0
 353.917 407.526 335.817 402.75 325.466 402.75 c 0
 315.112 402.75 299.573 407.526 297.533 426.929 c 0
 294.562 455.181 276.056 474.938 253.947 484.749 c 0
EndSplineSet
EndChar
StartChar: uni05C4
Encoding: 305 1476 144
Width: 0
Flags: W
Validated: 33
HStem: 610 110<139.315 217.583>
VStem: 122.552 111.001<638.325 720.556>
Fore
192.924 720 m 0
 223.576 720 241.762 695.14 233.553 664.5 c 0
 225.487 634.4 194.019 610 163.449 610 c 0
 132.882 610 114.488 634.404 122.552 664.5 c 0
 130.766 695.152 162.284 720 192.924 720 c 0
EndSplineSet
EndChar
StartChar: afii57664
Encoding: 306 1488 145
Width: 628
Flags: W
Validated: 33
HStem: -0.0664062 21G<67.4702 78.918 492.917 499.844> 623.769 20G<322.39 331.814>
Fore
348.599 629.363 m 0
 347.916 627.823 347.25 626.132 346.811 624.494 c 0
 344.587 616.194 345.151 611.046 345.969 607.923 c 0
 350.572 546.609 371.998 513.565 412.103 471.762 c 2
 484.493 391.946 l 1
 494.995 405.059 517.202 432.832 524.318 442.138 c 0
 524.513 442.392 524.98 442.932 525.37 443.943 c 0
 525.436 444.112 525.526 444.423 525.526 444.423 c 2
 525.848 445.622 525.197 446.898 524.494 447.685 c 0
 499.387 475.743 488.393 494.72 491.962 536.288 c 0
 492.449 541.968 493.737 547.915 495.291 553.714 c 0
 502.196 579.483 516.782 606.59 525.373 618 c 0
 539.85 625.693 557.279 630.381 574.016 633.384 c 0
 578.065 635.559 586.779 639.939 595.178 642.428 c 0
 599.109 643.593 603.306 644.903 607.353 644.407 c 0
 615.232 643.441 623.26 643.062 628.344 630.39 c 0
 631.901 622.284 632.498 612.447 635.278 600.621 c 0
 636.277 596.371 638.814 590.967 650.047 582.992 c 0
 663.103 573.726 714.074 546.755 715.47 496.817 c 0
 715.887 481.889 714.216 468.13 710.773 455.283 c 0
 701.46 420.525 680.65 394.283 661.58 370.037 c 0
 650.923 356.49 641.302 346.956 625.999 341.581 c 0
 621.467 339.99 617.688 339.436 614.369 339.436 c 0
 610.032 339.436 599.946 340.495 595.755 351.024 c 0
 590.731 363.646 581.969 374.083 569.274 382.389 c 1
 568.831 382.575 568.81 382.611 568.31 382.674 c 0
 568.078 382.704 567.965 382.696 567.965 382.696 c 1
 567.965 382.696 567.856 382.722 567.617 382.672 c 1
 567.627 382.658 567.61 382.617 567.536 382.526 c 2
 524.528 331.015 l 1
 588.477 268.594 631.715 221.247 615.351 135.83 c 0
 614.709 132.481 613.888 128.935 612.975 125.527 c 0
 602.459 86.2822 574.213 40.8975 531.2 13.875 c 0
 525.944 10.4189 523.224 8.71191 517.694 5.98242 c 0
 511.53 2.94043 503.901 -0.0664062 495.786 -0.0664062 c 1
 490.048 1.30469 476.882 0.712891 473.056 18.8955 c 0
 471.309 27.2061 471.108 32.5547 476.708 65.7617 c 0
 484.069 109.414 394.665 196.444 335.176 261.134 c 0
 309.921 288.596 280.671 324.024 264.944 340.616 c 1
 251.786 329.025 239.601 316.279 236.09 303.177 c 0
 235.968 302.721 235.694 301.693 235.627 301.24 c 0
 229.63 260.67 284.27 229.054 307.835 175.619 c 0
 312.605 164.802 317.401 141.451 308.338 107.625 c 0
 301.145 80.7783 284.992 50.3301 254.829 28.4844 c 0
 226.472 7.94531 200.583 0 169.5 0 c 2
 80.5 0 l 2
 80.1494 0 79.0938 -0.0126953 78.7422 -0.0126953 c 0
 56.1982 -0.0126953 52.0566 5.56445 53.0527 9.28223 c 1
 54.0684 10.4678 53.6758 12.0889 58.9912 15.1211 c 0
 60.0928 15.75 61.6357 16.5488 64.8945 17.9619 c 0
 67.9209 19.2734 73.4131 22.8271 77.416 25 c 0
 79.3994 27.1709 80.1387 29.1748 80.6143 31.1152 c 0
 80.7822 31.8018 81.5371 34.1299 80.8398 37.8027 c 0
 80.7148 38.459 80.3779 39.748 79.8809 41.0449 c 0
 76.8271 49.0098 62.3408 79.4141 77.7275 136.84 c 0
 79.623 143.914 81.9482 151.402 84.7588 159.338 c 0
 113.591 240.727 137.285 276.297 218.945 348.453 c 1
 201.035 378.624 173.981 411.975 177.698 453.159 c 0
 179.111 468.812 181.391 483.445 185.22 497.738 c 0
 192.735 525.787 206.344 551.746 226.897 579.035 c 0
 241.722 598.717 271.058 623.975 291.49 634.492 c 0
 298.455 638.073 302.499 639.779 309.689 641.771 c 0
 310.564 642.013 313.145 642.636 314.077 642.823 c 0
 314.961 643.001 317.46 643.401 318.483 643.515 c 0
 319.379 643.613 321.851 643.769 322.928 643.769 c 0
 340.699 643.769 351.136 638.496 349.016 630.586 c 0
 348.955 630.357 348.699 629.592 348.599 629.363 c 0
EndSplineSet
EndChar
StartChar: afii57665
Encoding: 307 1489 146
Width: 568
Flags: W
Validated: 33
HStem: 0 195<149.741 489.017> 624.51 20G<269.008 276.914>
VStem: 29.6533 579.733<31.2363 164.596 72.4389 175.73>
Fore
581.75 195 m 2
 603.22 195 614.273 182.838 609.386 164.596 c 0
 608.062 159.655 605.717 154.522 601.334 148.512 c 2
 522.474 32.2363 l 2
 505.984 5.85742 483.158 0 466.5 0 c 2
 57.5 0 l 2
 35.7705 0 24.6309 12.4941 29.6533 31.2363 c 0
 30.8242 35.6064 32.9932 40.5068 36.5537 45.9619 c 2
 116.109 163.268 l 2
 131.484 185.341 150.433 195 171.75 195 c 2
 506.284 195 l 1
 507.445 198.948 508.7 203.307 509.864 207.653 c 0
 530.731 285.529 531.903 364.588 507.408 384.905 c 0
 439.555 441.186 314.943 411.319 249.517 428.051 c 0
 190.302 444.39 188.548 479.966 189.222 506.817 c 0
 189.527 518.951 191.484 530.959 194.583 542.521 c 0
 202.2 570.949 216.864 597.271 234.761 619.381 c 0
 239.744 625.538 242.639 628.864 248.968 633.879 c 0
 255.327 639.229 264.175 644.51 273.84 644.51 c 1
 279.987 642.749 286.186 644.033 292.483 634.326 c 0
 294.003 632.221 296.243 628.641 297.916 622.202 c 0
 303.928 599.07 335.388 604.274 373.597 602.508 c 0
 422.125 600.264 549.239 604.915 598.458 539.237 c 0
 636.043 479.219 617.325 372.326 589.524 268.572 c 0
 582.969 244.104 575.906 219.991 568.324 195 c 1
 581.75 195 l 2
EndSplineSet
EndChar
StartChar: afii57666
Encoding: 308 1490 147
Width: 409
Flags: W
Validated: 33
HStem: 0 21G<34.6353 191.004 325.568 332.835>
VStem: 17.2197 465.382<29.6191 518.354 16.2536 65.5621>
Fore
240.718 40 m 6
 219.269 17.9268 208.507 0 173.5 0 c 2
 45.5 0 l 2
 23.7705 0 12.457 11.8467 17.2197 29.6191 c 0
 18.5391 34.5449 21.0186 39.2812 23.916 43.582 c 2
 101.845 154.813 l 2
 116.912 175.743 135.727 184.902 157.044 184.902 c 2
 288.732 184.902 l 2
 306.987 184.902 313.701 189.219 316.736 200.548 c 0
 338.576 282.054 350.555 322.925 377.454 397.128 c 0
 378.741 401.931 376.218 402.686 373.063 403.158 c 0
 318.05 408.215 260.801 413.312 236.739 441.768 c 0
 226.729 453.607 219.474 470.85 218.229 490.479 c 0
 216.903 511.361 222.763 535.338 226.445 546.417 c 0
 235.17 572.664 253.372 600.832 263.68 611.598 c 0
 270.054 618.254 284.804 634.417 300.862 640.893 c 0
 306.304 643.192 311.079 644.209 315.018 643.999 c 0
 316.854 643.901 323.729 644.309 331.012 638.513 c 0
 339.151 632.442 346.187 621.809 350.026 616.992 c 0
 360.656 603.659 400.036 597.958 414.658 595.741 c 0
 471.656 581.962 484.555 545.869 482.602 518.354 c 0
 482.229 513.116 481.208 507.861 479.834 502.734 c 0
 472.362 474.848 450.375 442.312 441.658 409.78 c 0
 441.157 407.912 440.723 406.156 440.312 404.296 c 0
 422.453 322.915 437.339 220.02 430.326 173.3 c 0
 427.945 157.435 425.367 143.388 421.728 129.805 c 0
 411.636 92.1445 393.599 62.2422 375.368 35.6621 c 0
 371.405 29.8838 362.835 17.1465 351.492 8.61523 c 0
 345.332 3.78027 337.028 -0.512695 328.641 -0.512695 c 1
 322.496 1.4082 315.987 0.0927734 309.995 10.123 c 0
 304.065 20.0508 303.923 35.0361 304.641 42.4238 c 0
 306.661 63.2021 308.752 84.1699 310.042 101.547 c 1
 240.718 40 l 6
EndSplineSet
EndChar
StartChar: afii57667
Encoding: 309 1491 148
Width: 593
Flags: W
Validated: 33
HStem: -4.68652 21G<446.695 464.915> 416.944 184.744<295.402 342.59 342.59 538.69> 624.51 20G<254.027 261.43>
VStem: 168.441 524.005<501.619 526.037 500.543 513.016 500.543 500.543>
Fore
354.354 601.819 m 2
 630.757 601.819 l 2
 704.31 601.819 702.766 556.213 692.446 513.016 c 0
 691.516 509.117 690.754 505.412 689.688 501.433 c 0
 683.848 479.639 666.772 428.574 605.535 418.707 c 1
 599.68 368.286 582.994 217.605 575.351 166.011 c 0
 573.865 155.985 571.59 146.031 570.236 140.981 c 0
 562.692 112.824 546.779 71.4443 513.099 29.0859 c 0
 506.31 20.5488 504.879 18.8252 498.135 13.0576 c 0
 485.911 2.15723 471.567 -4.68652 458.263 -4.68652 c 0
 435.128 -4.68652 423.684 13.8242 430.351 38.709 c 0
 430.448 39.0732 430.731 40.0723 430.84 40.4355 c 2
 538.69 416.944 l 1
 237.22 416.944 l 2
 182.489 416.944 166.499 472.797 168.441 500.543 c 0
 169.067 509.487 170.573 518.659 173.152 528.285 c 0
 182.918 564.731 203.171 598.905 219.627 619.027 c 0
 225.401 626.089 228.046 629.846 235.368 635.372 c 0
 241.425 640.14 249.714 644.51 258.34 644.51 c 1
 264.521 642.733 270.922 643.996 277.028 634.097 c 0
 278.508 631.878 280.192 628.422 281.875 621.751 c 0
 285.667 606.727 295.925 601.688 330.914 601.688 c 0
 337.558 601.688 345.785 601.819 354.354 601.819 c 2
EndSplineSet
EndChar
StartChar: afii57668
Encoding: 310 1492 149
Width: 631
Flags: W
Validated: 33
HStem: -4.68652 21G<494.195 512.415> 416.893 184.806<291.517 352.859 352.859 572.47> 624.51 20G<262.508 270.414>
Fore
59.8721 45.9492 m 0
 90.249 130.263 100.432 191.243 128.053 258.938 c 0
 144.311 298.78 171.542 332.151 197.922 354.224 c 0
 206.315 361.246 216.597 369.195 229.113 372.413 c 0
 232.756 373.349 235.59 373.634 238.226 373.634 c 1
 241.598 372.721 259.688 374.609 261.826 351.104 c 0
 262.396 345.766 261.874 340.277 260.391 334.74 c 0
 259.228 330.4 257.646 326.478 255.326 322.256 c 0
 250.808 313.531 247.415 304.013 244.559 293.352 c 0
 240.952 279.892 238.42 264.378 234.752 247.343 c 0
 232.504 236.899 229.635 226.21 226.861 215.86 c 0
 211.704 159.293 190.032 102.29 138.211 35.6738 c 0
 123.117 16.2705 107.411 0.310547 87.2266 -4.40918 c 0
 83.9424 -5.17676 80.8584 -5.63965 79.0332 -5.40234 c 0
 75.6328 -4.96094 57.8213 -6.52148 55.3438 16.9619 c 0
 54.915 21.0283 54.7627 27.9062 57.6865 38.8193 c 0
 58.0596 40.2109 59.373 44.5635 59.8721 45.9492 c 0
364.81 601.831 m 2
 666.26 601.831 l 2
 739.813 601.831 738.329 556.003 727.898 512.802 c 0
 727.354 510.548 726.749 508.122 726.127 505.799 c 0
 715.81 467.295 694.266 427.863 641.084 418.885 c 1
 635.939 369.804 630.688 218.887 622.852 166.014 c 0
 621.364 155.987 619.091 146.034 617.737 140.983 c 0
 610.192 112.826 594.279 71.4453 560.599 29.0859 c 0
 553.811 20.5488 552.379 18.8252 545.635 13.0576 c 0
 533.411 2.15723 519.067 -4.68652 505.763 -4.68652 c 0
 482.628 -4.68652 471.183 13.8223 477.85 38.7041 c 0
 477.947 39.0674 478.156 39.7969 478.267 40.1611 c 2
 572.47 416.893 l 1
 246.706 416.893 l 2
 191.375 416.893 174.969 472.611 176.925 500.481 c 0
 177.529 509.087 178.978 517.852 181.438 527.034 c 0
 189.98 558.914 208.006 593.684 228.169 619.038 c 0
 233.185 625.345 236.106 628.746 242.468 633.879 c 0
 248.827 639.229 257.675 644.51 267.34 644.51 c 1
 273.487 642.749 279.686 644.033 285.983 634.326 c 0
 287.49 632.174 289.7 628.511 291.344 621.935 c 0
 294.966 607.444 303.195 601.699 340.949 601.699 c 0
 348.416 601.699 356.44 601.831 364.81 601.831 c 2
EndSplineSet
EndChar
StartChar: afii57669
Encoding: 311 1493 150
Width: 301
Flags: W
Validated: 33
HStem: -4.68652 21G<170.695 188.915>
VStem: 150.298 245.525<23.582 522.966 29.5497 47.4484>
Fore
391.565 496.839 m 0
 382.923 464.583 364.701 433.901 336.851 407.681 c 0
 335.847 406.735 331.66 402.226 328.964 397.751 c 0
 328.605 397.156 328.847 397.672 328.121 396.236 c 0
 327.914 395.826 328.209 396.646 327.546 394.965 c 0
 327.284 394.302 327.729 395.9 327.215 393.979 c 0
 327.144 393.715 327.068 393.229 327.04 392.963 c 0
 319.94 325.17 305.972 214.273 297.5 159.104 c 0
 295.651 147.723 293.016 136.424 291.479 130.69 c 0
 284.036 102.913 268.273 62.0908 234.745 20.3037 c 0
 228.334 13.1738 226.979 11.7344 220.489 6.91797 c 0
 209.276 -0.210938 195.567 -4.68652 182.263 -4.68652 c 0
 159.128 -4.68652 145.955 7.37305 150.298 23.582 c 0
 150.436 24.0947 150.89 25.7305 151.042 26.2422 c 0
 195.684 172.592 239.455 319.555 260.264 392.765 c 0
 260.313 392.939 260.634 393.948 260.682 394.124 c 0
 262.093 399.393 260.288 404.86 255.632 406.148 c 0
 223.368 409.894 204.512 413.901 194.312 417.296 c 0
 180.813 431.201 168.837 455.085 168.925 485.724 c 0
 168.674 505.464 173.287 528.553 178.157 546.727 c 0
 179.298 550.983 180.485 554.691 181.584 558.154 c 0
 189.356 582.379 206.254 607.896 216.264 617.896 c 0
 219.115 620.604 233.608 635.133 247.794 641.507 c 0
 252.531 642.839 258.734 644.128 265.521 644.01 c 0
 267.382 643.979 274.239 644.16 282.317 641.38 c 0
 290.702 636.396 295.268 627.803 297.451 623.924 c 0
 301.581 604.567 324.52 597.083 333.123 593.936 c 0
 387.939 581.78 396.644 543.33 395.823 522.966 c 0
 395.362 514.27 393.88 505.477 391.565 496.839 c 0
EndSplineSet
EndChar
StartChar: afii57670
Encoding: 312 1494 151
Width: 326
Flags: W
Validated: 33
HStem: -7.1709 21G<151.91 157.024>
VStem: 132.785 291.126<13.7363 552.369 13.7363 13.7363>
Fore
179.313 299.153 m 0
 200.034 349.694 216.754 372.597 236.509 410.304 c 0
 237.216 411.653 238.89 414.707 239.63 417.471 c 0
 239.971 418.744 240.772 420.987 239.076 421.443 c 0
 219.538 426.7 203.036 435.365 190.451 447.616 c 0
 177.455 460.269 170.874 477.388 169.678 495.836 c 0
 168.695 510.98 171.99 527.485 175.687 541.28 c 0
 176.759 545.28 177.934 548.915 179.078 552.534 c 0
 187.479 579.096 205.958 606.944 216.291 618 c 0
 219.026 620.367 232.609 633.173 246.346 638.869 c 0
 251.548 641.746 258.321 644.449 265.249 644.245 c 0
 266.997 644.193 272.091 643.48 273.644 643.003 c 0
 280.637 640.967 288.905 635.677 300.611 617.945 c 0
 302.013 615.823 302.235 615.906 302.645 615.553 c 0
 304.787 613.702 302.757 615.395 303.895 614.564 c 0
 311.605 608.926 327.867 603.879 342.915 602.102 c 0
 381.366 597.559 409.995 582.588 423.911 552.369 c 0
 433.812 530.869 426.492 497.888 422.845 484.279 c 0
 420.231 474.526 416.922 464.705 412.765 455.144 c 0
 410.846 450.733 401.515 427.419 387.946 413.612 c 0
 375.737 401.189 363.884 399.742 358.799 399.742 c 0
 354.763 399.742 350.787 400.514 346.375 402.541 c 0
 339.489 405.705 331.423 408.297 320.256 408.297 c 0
 317.993 408.297 315.361 408.17 312.729 407.9 c 2
 311.738 407.798 l 1
 310.77 407.798 l 2
 308.088 407.502 305.815 407.553 300.735 398.471 c 0
 300.156 397.438 299.441 396.359 298.23 393.464 c 0
 294.123 383.646 291.446 375.442 289.427 367.906 c 0
 280.818 335.778 287.043 317.521 286.612 276.601 c 0
 286.307 247.61 285.207 223.41 276.735 191.791 c 0
 271.77 173.258 264.45 152.323 253.658 126.228 c 0
 239.197 91.2588 226.628 67.5566 206.708 35.9326 c 0
 201.743 28.0508 189.379 9.7041 173.561 -0.227539 c 0
 168.211 -3.7373 160.693 -7.1709 153.355 -7.1709 c 1
 150.465 -6.4668 135.088 -7.81055 132.785 13.7363 c 0
 131.963 20.3984 132.509 31.7568 137.369 49.8945 c 0
 146.804 85.1035 151.695 116.591 154.027 144.669 c 0
 157.911 191.478 155.739 220.995 166.743 262.062 c 0
 169.833 273.594 173.866 285.866 179.313 299.153 c 0
EndSplineSet
EndChar
StartChar: afii57671
Encoding: 313 1495 152
Width: 629
Flags: W
Validated: 33
HStem: -4.68652 21G<492.695 510.915> 440 161.699<303.806 350.611 350.611 577.154> 624.51 20G<261.008 268.913>
Fore
302.434 440 m 1
 292.083 431.583 278.144 415.82 270.325 397.671 c 0
 264.81 384.866 259.498 368.821 255.023 352.119 c 0
 242.791 306.469 236.01 256.963 231.827 238.271 c 0
 227.267 217.889 223.25 198.635 218.052 179.233 c 0
 204.588 128.987 185.58 86.7822 145.711 35.6738 c 0
 130.588 16.2881 114.911 0.310547 94.7266 -4.40918 c 0
 91.4424 -5.17676 88.3584 -5.63965 86.5332 -5.40234 c 0
 83.1328 -4.96094 65.3213 -6.52148 62.8438 16.9619 c 0
 62.3564 20.8096 62.1055 27.3184 64.8721 37.6455 c 0
 65.2256 38.9629 66.4775 43.082 66.9551 44.3926 c 0
 76.5986 70.8291 84.4258 96.9629 91.1963 122.231 c 0
 100.676 157.61 108.254 191.582 116.823 223.562 c 0
 120.496 237.271 124.332 250.645 128.664 263.595 c 0
 142.103 303.756 161.472 361.683 216.131 423.391 c 1
 166.368 441.298 174.215 481.939 175.49 500.725 c 0
 176.073 509.312 177.534 518.062 179.99 527.229 c 0
 188.517 559.05 206.525 593.757 226.676 619.065 c 0
 231.688 625.36 234.609 628.756 240.968 633.879 c 0
 247.327 639.229 256.175 644.51 265.84 644.51 c 1
 271.986 642.749 278.186 644.033 284.483 634.326 c 0
 285.99 632.174 288.204 628.513 289.844 621.935 c 0
 294.411 603.609 312.253 601.699 338.818 601.699 c 0
 346.222 601.699 354.168 601.831 362.445 601.831 c 2
 664.76 601.831 l 2
 738.313 601.831 736.829 556.003 726.398 512.802 c 0
 725.854 510.548 725.249 508.122 724.627 505.799 c 0
 714.31 467.295 692.766 427.863 639.584 418.885 c 1
 634.439 369.804 629.188 218.887 621.352 166.014 c 0
 619.864 155.987 617.591 146.034 616.237 140.983 c 0
 608.692 112.826 592.779 71.4453 559.099 29.0859 c 0
 552.311 20.5488 550.879 18.8252 544.135 13.0576 c 0
 531.911 2.15723 517.567 -4.68652 504.263 -4.68652 c 0
 481.128 -4.68652 469.954 14.8369 476.987 41.082 c 0
 477.09 41.4658 477.31 42.2354 477.425 42.6191 c 2
 577.154 440 l 1
 302.434 440 l 1
EndSplineSet
EndChar
StartChar: afii57672
Encoding: 314 1496 153
Width: 646
Flags: W
Validated: 33
HStem: 0.0107422 184.855<220.685 598.633> 595.406 20G<531.532 549.889>
Fore
226.516 417.816 m 0
 206.244 423.927 200.343 428.957 189.743 441.661 c 0
 178.878 454.686 171.495 471.697 170.214 490.376 c 0
 169.186 505.369 172.444 521.714 176.104 535.372 c 0
 177.165 539.333 178.331 542.932 179.466 546.516 c 0
 187.796 572.815 206.192 600.396 216.506 611.337 c 0
 219.451 614.461 234.342 631.267 248.653 638.743 c 0
 253.757 641.534 260.364 644.243 267.117 643.999 c 0
 268.96 643.933 275.818 644.297 283.067 638.488 c 0
 291.171 632.4 295.812 621.787 297.641 616.977 c 0
 302.742 603.55 327.034 598.073 335.725 595.727 c 0
 366.776 588.146 390.066 573.356 401.702 551.15 c 0
 412.997 529.598 399.275 501.123 395.625 487.5 c 0
 393.069 477.963 386.262 464.388 381.917 455 c 0
 373.659 437.158 365.418 418.98 341.02 405 c 4
 334.526 401.28 333.182 389.783 324.846 389.783 c 0
 322.395 389.783 316.181 391.062 314.052 391.759 c 0
 300.287 396.258 301.323 398.415 287.39 399.179 c 0
 287.314 399.183 287.006 399.232 286.866 399.212 c 2
 286.77 399.198 l 2
 286.178 398.985 284.777 397.782 283.807 396.588 c 0
 262.976 369.368 249.009 344.988 240.237 310.653 c 0
 228.748 265.682 225.123 240.236 220.686 190.293 c 1
 220.685 190.292 218.636 184.866 227.12 184.866 c 2
 598.633 184.854 l 1
 598.633 184.848 605.306 186.511 606.845 190.32 c 0
 613.701 207.297 618.902 223.048 622.968 238.221 c 0
 637.031 290.707 634.791 331.844 609.275 368.084 c 0
 589.397 396.319 556.606 414.475 528.207 414.475 c 0
 521.606 414.475 513.522 413.516 504.909 409.803 c 0
 480.379 399.226 446.01 356.958 411.202 283.257 c 0
 407.727 275.896 407.089 274.428 402.812 269.023 c 0
 393.862 257.718 381.191 250.91 367.243 250.91 c 0
 365.778 250.91 362.162 251.281 360.757 251.453 c 0
 354.046 252.276 332.67 257.898 339.681 284.064 c 0
 340.063 285.491 341.512 289.327 342.056 290.748 c 0
 383.215 398.237 444.206 513.241 503.27 600 c 1
 504.019 600.675 513.684 615.406 549.381 615.406 c 0
 550.397 615.406 553.456 615.284 554.446 615.201 c 0
 653.283 606.961 719.857 544.191 716.289 383.453 c 0
 715.4 343.429 708.167 301.664 697.054 260.189 c 0
 675.313 179.055 639.082 99.583 605.237 35.9238 c 1
 604.87 35.4922 589.42 0 547.429 0 c 2
 123.066 0.0107422 l 1
 122.894 0.0947266 85.5586 1.75488 92.3008 34.6045 c 0
 111.249 126.919 121.24 165.033 140.782 252.91 c 0
 141.081 254.253 142.087 258.309 142.447 259.653 c 0
 159.01 321.466 209.801 393.275 226.039 414.715 c 0
 226.387 415.173 227.342 416.288 227.898 417.333 c 1
 227.65 417.448 227.246 417.597 226.516 417.816 c 0
EndSplineSet
EndChar
StartChar: afii57673
Encoding: 315 1497 154
Width: 301
Flags: W
Validated: 41
HStem: 266.471 378.514<245.453 260.398 245.453 260.398 260.398 260.398>
VStem: 171.787 219.587<451.444 494.227 494.227 547.094 494.227 531.898 494.227 494.227>
Fore
370.275 397.969 m 0
 349.879 354.97 310.924 314.144 292.917 296.104 c 0
 290.095 293.276 275.692 278.012 262.543 271.163 c 0
 257.765 268.675 251.787 266.471 245.453 266.471 c 0
 241.926 266.471 234.848 266.973 229.719 272.792 c 0
 228.386 274.403 222.422 279.491 222.842 292.616 c 0
 222.938 295.607 223.342 298.782 224.443 302.893 c 0
 226.329 309.933 231.354 322.487 243.793 338.091 c 0
 265.008 364.703 268.913 370.667 271.095 378.811 c 0
 272.701 384.806 271.73 389.779 270.329 393.653 c 0
 264.935 408.558 250.336 403.289 222.424 418.447 c 0
 192.394 434.755 176.631 457.817 171.787 494.227 c 0
 168.684 517.545 175.313 545.545 178.741 558.34 c 0
 179.795 562.271 182.024 570.217 185.002 578.019 c 0
 192.641 598.034 203.956 622.727 225.29 642.343 c 0
 230.445 642.219 236.76 642.079 246.24 641.991 c 0
 251.719 644.197 256.512 645.377 260.398 644.985 c 0
 264.393 644.584 270.726 645.207 278.087 637.846 c 0
 283.912 632.02 286.921 623.052 288.871 617.771 c 0
 294.559 602.359 302.35 596.58 324.639 591.622 c 0
 352.062 585.521 381.452 567.679 391.374 531.898 c 0
 398.983 504.453 397.244 476.726 390.137 450.2 c 0
 385.274 432.055 378.14 414.546 370.275 397.969 c 0
EndSplineSet
EndChar
StartChar: afii57674
Encoding: 316 1498 155
Width: 566
Flags: W
Validated: 33
HStem: 413.885 187.523<295.337 342.715 342.715 509.859> 624.51 20G<254.027 261.43>
VStem: 167.936 497.179<504.792 524.052 498.654 511.744 498.654 498.654>
Fore
354.688 601.54 m 2
 603.682 601.54 l 2
 677.235 601.54 675.646 555.318 665.115 511.744 c 0
 664.566 509.471 663.955 507.025 663.327 504.682 c 0
 652.917 465.83 631.269 426.042 578.018 417.008 c 1
 568.913 353.918 480.492 -55.8711 473.599 -105.604 c 0
 472.72 -111.685 470.744 -120.504 467.992 -130.773 c 0
 460.094 -160.25 444.089 -204.813 409.185 -250.186 c 0
 402.817 -258.463 399.081 -262.742 390.955 -269.348 c 0
 379.362 -278.771 366.169 -284.688 353.832 -284.688 c 0
 330.586 -284.688 320.003 -264.888 326.95 -238.957 c 0
 327.056 -238.565 327.345 -237.539 327.461 -237.147 c 2
 509.859 413.885 l 1
 236.4 413.885 l 2
 181.67 413.885 165.89 470.521 167.936 498.654 c 0
 168.595 507.724 170.135 517.024 172.75 526.785 c 0
 182.652 563.741 203.034 598.395 219.565 618.799 c 0
 225.367 625.959 228.025 629.769 235.368 635.372 c 0
 241.425 640.14 249.714 644.51 258.34 644.51 c 1
 264.521 642.733 270.922 643.996 277.028 634.097 c 0
 278.503 631.858 280.179 628.373 281.847 621.645 c 0
 285.604 606.49 295.85 601.408 330.839 601.408 c 0
 337.5 601.408 345.918 601.54 354.688 601.54 c 2
EndSplineSet
EndChar
StartChar: afii57675
Encoding: 317 1499 156
Width: 571
Flags: W
Validated: 33
HStem: 0 195<117.038 452.724> 624.51 20G<276.237 284.143>
Fore
167.98 195 m 2
 538.516 195 l 1
 540.021 200.102 541.508 205.271 542.808 210.121 c 0
 556.589 261.554 557.447 300.576 549.988 332.835 c 0
 542.55 364.997 518.168 392.176 488.208 405.997 c 0
 467.555 415.524 438.868 422.532 358.134 422.532 c 0
 349.166 422.532 340.27 422.486 331.563 422.486 c 0
 284.249 422.486 269.074 424.596 256.664 428.074 c 0
 197.578 444.641 195.777 479.966 196.452 506.817 c 0
 196.758 518.951 198.715 530.959 201.813 542.521 c 0
 209.431 570.949 224.095 597.271 241.991 619.381 c 0
 246.975 625.538 249.869 628.864 256.198 633.879 c 0
 262.558 639.229 271.405 644.51 281.07 644.51 c 1
 287.217 642.749 293.416 644.033 299.713 634.326 c 0
 301.22 632.172 303.437 628.509 305.071 621.921 c 0
 310.509 600.001 330.418 604.785 382.535 601.756 c 0
 443.998 598.184 581.519 605.251 629.812 530.948 c 0
 664.995 467.294 646.614 360.263 618.474 255.242 c 0
 614.35 239.851 609.942 224.246 605.336 208.496 c 1
 605.874 208.496 l 1
 600.443 191.191 l 2
 592.535 165.991 578.51 147.192 577.813 146.166 c 2
 487.408 29.0186 l 2
 485.347 26.8818 482.037 23.3252 480.706 22.0488 c 0
 465.021 7.02539 448.382 0 427.375 0 c 2
 53.7305 0 l 2
 32.2607 0 21.207 12.1621 26.0947 30.4043 c 0
 27.4189 35.3447 29.7627 40.4775 34.1465 46.4883 c 2
 113.007 162.764 l 2
 124.638 181.37 142.145 195 167.98 195 c 2
EndSplineSet
EndChar
StartChar: afii57676
Encoding: 318 1500 157
Width: 580
Flags: W
Validated: 33
HStem: -5 21G<284.163 321.31> 404.733 197.057<285.809 547.303>
VStem: 166.523 516.551<502.071 514.218 498.315 534.873 498.315 498.315>
Fore
279.658 876.354 m 0
 286.424 887.199 300.095 899.462 318.806 899.462 c 0
 320.465 899.462 325.414 899.055 326.986 898.798 c 0
 383.101 889.62 398.643 825.629 389.938 794.5 c 0
 389.01 791.179 388.403 787.48 382.466 778.405 c 0
 363.745 749.325 324.946 727.235 309.581 710.155 c 0
 300.987 700.601 296.88 690.447 289.932 664.516 c 0
 287.661 656.042 285.129 646.126 282.014 634.5 c 0
 280.424 628.565 278.758 623.279 277.651 618.863 c 0
 273.906 603.898 273.656 603.351 285.806 602.169 c 0
 285.835 602.166 287.579 601.79 294.749 601.79 c 2
 596.707 601.79 l 2
 678.602 601.79 685.357 560.476 683.074 534.873 c 0
 680.396 504.871 675.401 480.569 669.282 457.734 c 0
 662.599 432.79 654.823 409.865 647.438 382.303 c 0
 628.145 310.298 542.175 257.637 498.42 202.187 c 0
 472.684 188.592 410.802 154.849 383.082 108.872 c 0
 382.472 107.859 381.947 106.832 381.729 106.018 c 0
 379.362 97.1826 395.778 83.9297 389.859 61.8418 c 0
 379.113 21.7373 339.46 -5 303.16 -5 c 0
 265.166 -5 242.277 9.03027 242.803 25 c 0
 243.312 28.1807 243.915 30.9756 244.749 34.0869 c 0
 259.316 88.4531 325.456 153.535 348.376 170.05 c 0
 515.206 292.328 543.379 310.807 554.174 351.095 c 0
 554.412 351.984 555.068 354.581 555.25 355.468 c 0
 560.33 380.216 559.939 388.371 556.534 394.009 c 0
 555.861 395.121 555.07 396.067 554.025 396.975 c 0
 549.74 400.695 538.487 404.733 513.102 404.733 c 2
 241.948 404.733 l 2
 172.258 404.733 152.828 447.206 166.523 498.315 c 0
 176.526 535.646 184.805 567.938 192.234 595.667 c 0
 202.991 635.811 215.274 681.822 231.431 707.172 c 0
 259.317 750.906 276.711 756.379 283.155 765.536 c 1
 282.63 768.01 261.209 789.923 258.502 800.246 c 0
 256.422 808.176 258.635 818.756 261.413 829.125 c 0
 264.112 839.199 267.703 849.932 271.215 858.671 c 0
 273.365 864.02 275.45 869.606 279.658 876.354 c 0
EndSplineSet
EndChar
StartChar: afii57677
Encoding: 319 1501 158
Width: 612
Flags: W
Validated: 33
HStem: 0 195<205.087 552.675> 440 160.823<302.986 356.374 356.374 589.072> 624.51 20G<264.508 272.414>
Fore
368.1 600.958 m 2
 584.279 600.958 l 2
 693.372 600.958 706.223 513.986 683.293 428.414 c 2
 575.199 25 l 2
 572.52 15 559 0 521 0 c 2
 96 0 l 2
 84.6533 0.744141 76.7666 1.49414 69.7236 8.14551 c 0
 67.5928 10.1572 65.6494 12.6396 64.125 16.3223 c 0
 60.3682 24.623 61.7236 34.4248 63.7754 42.0811 c 2
 119.041 244.604 l 2
 141.028 326.661 183.797 384.27 219.302 422.09 c 1
 187.017 434.422 176.505 468.489 179.003 500.948 c 0
 179.621 508.985 181.278 517.475 183.599 526.137 c 0
 193.549 563.27 213.655 598.393 230.176 619.064 c 0
 235.202 625.354 238.109 628.755 244.468 633.879 c 0
 250.827 639.229 259.675 644.51 269.34 644.51 c 1
 275.487 642.749 281.686 644.033 287.983 634.326 c 0
 289.475 632.116 291.658 628.355 293.255 621.602 c 0
 296.77 606.722 304.961 600.823 344.688 600.823 c 0
 352.014 600.823 359.887 600.958 368.1 600.958 c 2
531.147 440 m 2
 302.986 440 l 1
 279.936 411.986 251.42 372.906 235.77 314.5 c 2
 205.76 202.5 l 2
 204.045 196.1 205.194 195 213.197 195 c 2
 542.191 195 l 2
 548.063 195 552.753 195.009 555.831 206.5 c 2
 597.363 361.5 l 2
 608.406 402.713 583.498 440 531.147 440 c 2
EndSplineSet
EndChar
StartChar: afii57678
Encoding: 320 1502 159
Width: 686
Flags: W
Validated: 33
HStem: 0.5 195<306.397 569.09> 449.5 210.93<460.447 561.413>
Fore
328.674 195.5 m 2
 658.14 195.5 l 1
 669.594 246.488 673.069 334.899 604.462 393.526 c 0
 563.978 447.625 511.396 449.5 474.733 449.5 c 0
 419.251 449.5 340.62 408.642 308.196 365.081 c 0
 248.564 326.975 236.167 291.912 227.788 260.643 c 0
 218.688 226.68 213.528 192.249 203.754 155.77 c 0
 200.919 145.191 197.603 134.598 193.87 123.653 c 0
 182.918 91.543 169.646 66.5566 154.342 44.3213 c 0
 148.606 35.9883 134.707 16.4346 117.906 6.5459 c 0
 112.471 3.34668 105.74 0.550781 98.4736 0.550781 c 1
 93.2422 1.50977 82.9502 0.150391 77.0664 16.0771 c 0
 71.5303 29.7119 74.5039 52.1377 75.0479 56.3584 c 0
 78.2686 81.3574 82.041 104.891 89.1016 131.241 c 0
 94.4541 151.218 101.639 172.836 111.983 197.927 c 0
 135.596 255.197 172.224 311.269 203.594 350.646 c 0
 204.854 352.229 205.651 353.701 205.999 355.002 c 0
 206.431 356.611 206.58 359.414 203.592 363.051 c 2
 201.657 365.404 l 1
 201.566 365.928 l 1
 181.621 391.159 161.795 433.362 167.352 468.242 c 0
 169.229 480.015 171.012 491.112 174.086 502.585 c 0
 180.069 524.913 190.762 548.121 211.633 575.392 c 0
 230.322 599.812 251.268 615.781 268.228 626.63 c 0
 277.825 633.058 288.916 637.585 299.119 637.341 c 0
 301.141 637.292 308.802 637.918 316.699 631.619 c 0
 326.078 629.836 331.993 627.04 342.072 623.979 c 0
 344.597 623.214 344.674 623.352 347.416 622.979 c 0
 358.525 621.46 349.629 622.692 350.555 622.587 c 0
 361.369 621.348 381.29 619.577 394.613 618 c 0
 422.839 604.741 435.272 567.053 434.471 511.412 c 1
 457.967 531.362 477.094 572.512 495.505 621.78 c 0
 504.474 645.775 524.458 660.43 545.115 660.43 c 0
 545.812 660.43 547.815 660.348 548.496 660.299 c 0
 637.772 653.919 677.681 612.384 719.308 566.658 c 0
 782.982 479.188 762.569 341.494 727.29 203.402 c 0
 722.49 184.613 707.118 160.527 704.383 155.906 c 2
 619.563 31.5234 l 1
 618.936 30.7441 l 2
 617.003 28.4863 614.216 25.1465 612.972 23.7979 c 0
 590.245 7.92285 563.982 0.5 529.424 0.5 c 2
 213.424 0.5 l 2
 156.954 0.5 179.311 6.75781 184.199 25 c 4
 185.522 29.9404 194.684 46.4893 199.067 52.5 c 2
 272.7 163.264 l 2
 290.008 189.299 312.016 195.5 328.674 195.5 c 2
EndSplineSet
EndChar
StartChar: afii57679
Encoding: 321 1503 160
Width: 308
Flags: W
Validated: 33
VStem: 29.4316 380.49<-259.177 515.025 -160.86 -106.815>
Fore
169.755 484.294 m 0
 168.719 504.944 172.274 524.736 176.796 541.611 c 0
 177.757 545.196 178.875 548.697 179.942 552.03 c 0
 185.417 569.01 203.913 603.365 218.248 617.842 c 0
 221.076 620.533 235.342 635.001 249.376 641.438 c 0
 254.087 642.767 260.314 644.057 267.102 643.939 c 0
 268.953 643.908 275.762 644.082 283.823 641.31 c 0
 292.251 636.429 297.453 627.919 299.539 624.062 c 0
 302.836 605.223 326.911 598.841 335.396 595.852 c 0
 361.7 590.311 382.32 585.525 398.038 568.935 c 0
 413.052 554.232 415.142 534.507 409.922 515.025 c 0
 402.691 488.042 382.478 450.459 350.901 425.556 c 0
 341.029 417.77 330.18 406.53 328.44 404.13 c 0
 302.606 368.462 286.677 348.36 275.598 319.898 c 0
 272.357 311.574 269.629 302.523 267.019 292.782 c 0
 256.682 254.204 251.083 206.992 247.173 165.771 c 0
 240.165 96.0654 217.334 -43.1455 199.415 -110.022 c 0
 196.488 -120.945 194.254 -127.646 192.521 -131.979 c 0
 175.978 -173.797 147.437 -214.809 99.1953 -264.153 c 0
 97.5654 -265.537 93.0117 -268.896 91.3877 -269.971 c 0
 81.2305 -275.939 69.4092 -280.024 57.1211 -280.024 c 1
 44.4609 -278.78 35.0566 -278.367 29.958 -270.397 c 0
 28.4424 -266.901 28.3779 -263.109 29.4316 -259.177 c 0
 29.7529 -257.978 30.8701 -254.196 31.2705 -253.002 c 0
 54.3867 -188.774 80.0605 -111.517 104.682 -23.5869 c 0
 106.99 -15.3467 109.277 -7.3418 111.335 0.334961 c 0
 130.849 73.1602 137.728 124.084 157.349 197.313 c 0
 160.34 208.477 163.626 220.14 167.294 232.453 c 0
 189.075 305.59 215.131 353.307 260.129 414.084 c 1
 242.334 414.298 224.45 414.604 203.258 415.374 c 0
 186.584 426.286 170.886 452.081 169.755 484.294 c 0
EndSplineSet
EndChar
StartChar: afii57680
Encoding: 322 1504 161
Width: 382
Flags: W
Validated: 33
HStem: 0 195<134.741 273.582>
VStem: 14.3604 451.277<30.6758 518.906 25.2768 47.0919>
Fore
234.5 0 m 2
 41.5 0 l 2
 20.2842 0 9.42871 12.2705 14.3604 30.6758 c 0
 15.5771 35.2158 17.8545 40.293 21.5537 45.9619 c 2
 101.109 163.268 l 2
 116.484 185.341 135.433 195 156.75 195 c 2
 281.75 195 l 2
 286.219 195.415 285.279 194.844 285.877 195.085 c 1
 286.232 195.635 286.487 195.434 287.175 197.999 c 0
 287.275 198.374 287.53 199.508 287.602 199.881 c 0
 295.035 238.546 301.267 266.343 307.516 289.665 c 0
 318.424 330.375 329.144 356.508 345.65 401.73 c 0
 346.728 405.751 345.34 407.891 341.463 408.446 c 0
 303.355 413.904 268.63 418.978 245.044 446.062 c 0
 234.014 458.732 226.528 475.553 225.138 493.823 c 0
 224.021 508.488 227.185 524.476 230.764 537.835 c 0
 231.802 541.709 232.946 545.229 234.061 548.734 c 0
 242.236 574.46 260.418 601.476 270.72 612.138 c 0
 280.422 622.18 293.358 635.812 310.169 641.521 c 0
 314.408 643.062 319.097 644.427 323.337 643.999 c 0
 331.479 643.179 331.83 643.243 336.239 640.992 c 0
 346.142 636.231 352.603 625.045 355.674 617.102 c 0
 360.684 604.143 388.505 598.504 398.798 595.83 c 0
 441.594 584.714 467.032 556.393 465.637 518.906 c 0
 465.229 507.936 463.615 497.788 461.105 488.424 c 0
 448.586 441.698 417.638 420.347 413.078 403.355 c 0
 412.949 402.877 412.516 401.326 412.388 400.847 c 0
 394.936 335.714 417.041 276.998 397.38 184.382 c 0
 393.893 167.956 390.803 152.825 386.865 138.131 c 0
 378.773 107.934 367.069 79.0869 343.336 49.0674 c 0
 304.322 -0.277344 252.357 0 234.5 0 c 2
EndSplineSet
EndChar
StartChar: afii57681
Encoding: 323 1505 162
Width: 582
Flags: W
Validated: 33
HStem: 0 195<196.347 452.924> 440.164 161.62<314.34 330.252 330.252 431.889 431.889 495.46 495.46 500.748> 624.51 20G<264.508 272.414>
VStem: 74.2031 568.902<39.916 538.542 83.7552 170.448>
Fore
346.237 440.36 m 0
 334.885 440.36 324.117 440.294 314.34 440.164 c 1
 263.641 391.423 227.788 352.253 212.011 293.373 c 0
 211.442 291.249 210.917 289.461 210.461 287.26 c 0
 203.503 253.288 201.716 242.678 196.221 204.773 c 0
 195.727 201.143 195.601 197.221 196.293 195.809 c 1
 197.386 195.059 201.776 195.077 204.25 195 c 2
 529.216 195 l 2
 542.209 195 543.152 196.5 544.76 202.5 c 0
 547.858 214.064 551.273 226.459 554.703 239.259 c 0
 574.408 312.797 584.173 368.242 571.792 394.866 c 0
 564.216 411.159 534.382 433.152 495.46 436.058 c 0
 456.643 438.955 395.756 440.36 346.237 440.36 c 0
370.65 601.784 m 2
 371.486 601.768 l 2
 429.06 597.674 595.469 613.966 643.105 538.542 c 0
 678.386 474.884 656.895 367.478 629.093 263.721 c 0
 622.821 240.316 616.341 216.161 608.982 192.199 c 0
 603.458 174.211 593.574 154.548 580.847 137.104 c 2
 506.503 31.0947 l 2
 501.122 24.543 501.264 24.2695 497.082 20.3809 c 0
 477.281 8.37891 446.005 0 412 0 c 2
 106 0 l 2
 79.4863 0 68.1943 15.5088 74.2031 39.916 c 0
 79.6143 61.8975 86.8398 93.5576 91.0586 117.554 c 0
 107.364 210.288 94.9316 176.926 112.582 246.615 c 0
 112.672 246.969 112.94 248.007 113.035 248.36 c 0
 126.217 297.553 187.467 381.95 228.84 424.929 c 1
 189.854 443.759 183.325 484.545 183.931 503.863 c 0
 184.319 516.281 186.344 528.566 189.514 540.398 c 0
 197.309 569.486 212.137 596.42 230.17 619.044 c 0
 235.192 625.345 238.107 628.748 244.468 633.879 c 0
 250.827 639.229 259.675 644.51 269.34 644.51 c 1
 275.487 642.749 281.686 644.033 287.983 634.326 c 0
 289.49 632.172 291.706 628.509 293.34 621.921 c 0
 299.121 600.521 320.677 604.03 370.65 601.784 c 2
EndSplineSet
EndChar
StartChar: afii57682
Encoding: 324 1506 163
Width: 622
Flags: W
Validated: 41
Fore
249.938 413.856 m 0
 251.416 419.371 251.003 419.637 250.559 419.681 c 0
 226.823 420.491 208.261 423.342 192.947 427.371 c 0
 180.373 440.55 172.432 459.829 170.673 482.997 c 0
 168.451 505.667 172.748 528.854 176.301 545.901 c 0
 176.599 547.297 177.727 551.733 178.102 553.132 c 0
 179.645 558.891 190.061 589.651 207.29 608.977 c 0
 226.332 630.104 229.748 633.216 236.787 637.632 c 0
 242.501 639.82 250.788 641.822 259.229 641.736 c 0
 260.848 641.72 265.642 641.433 267.153 641.241 c 0
 274.861 639.554 284.063 634.985 297.581 618.754 c 0
 298.349 612.48 298.654 614.123 299.031 613.222 c 0
 303.197 606.995 299.926 611.988 300.254 611.599 c 0
 307.39 605.724 320.703 601.663 336.264 600.992 c 0
 377.013 599.838 413.598 589.329 435.584 563.957 c 0
 451.776 544.637 450.868 510.516 444.072 485.154 c 0
 442.908 480.81 441.751 476.608 440.245 472.367 c 0
 438.508 467.663 430.044 442.509 414.852 427.79 c 0
 401.196 414.24 386.562 412.519 380.511 412.519 c 0
 377.91 412.519 370.57 413.758 368.296 414.476 c 0
 361.462 416.633 353.329 417.944 343.537 417.944 c 0
 338.639 417.944 332.933 417.605 327.265 416.71 c 0
 325.717 416.465 320.556 416.772 315.455 405.998 c 0
 314.983 405.004 314.428 403.931 313.463 401.034 c 0
 312.652 398.601 311.91 396.068 311.274 393.695 c 0
 298.657 346.607 318.434 317.089 327.178 284.258 c 0
 339.918 244.713 344.26 199.62 331.887 149.187 c 1
 412.678 193.268 l 1
 428.332 201.656 431.161 200.546 440.842 213.948 c 0
 470.747 265.928 494.454 296.422 510.222 316.115 c 0
 556.706 377.927 551.648 367.671 574.769 406.959 c 0
 575.307 407.875 575.709 408.639 576.011 409.275 c 1
 573.503 409.938 l 2
 542.075 415.203 521.748 421.176 498.923 435.494 c 0
 486.15 451.001 478.243 471.379 476.366 493.649 c 0
 473.926 517.224 481.341 545.192 485.464 557.811 c 0
 491.209 574.658 508.658 603.43 526.057 617.698 c 0
 533.217 623.276 548.145 637.092 566.39 642.596 c 0
 572.341 643.655 577.738 644.118 582.398 644.021 c 0
 584.563 643.976 592.493 644.18 602.159 641.38 c 0
 612.442 636.473 618.115 627.896 620.358 624.012 c 0
 624.707 604.466 652.227 595.663 657.229 593.879 c 0
 702.896 583.952 727.543 560.994 727.51 525.846 c 0
 727.404 518.295 726.32 508.441 723.45 497.729 c 0
 716.026 470.024 698.311 438.053 659.43 416.244 c 0
 650.112 411.019 640.092 401.101 637.501 396.75 c 0
 590.381 317.622 577.503 295.411 546.981 228.735 c 0
 515.514 160.197 499.299 110.18 474.043 37.7803 c 0
 467.474 20.2031 457.171 9.43457 432.898 -1.93555 c 2
 50.5166 -217.575 l 1
 41.8516 -220.48 41.4736 -221.058 35.5869 -221.78 c 0
 34.5068 -221.862 31.2305 -221.99 30.1553 -221.99 c 0
 13.5723 -221.99 4.14746 -215.975 6.45996 -207.344 c 2
 59.0068 -48.6074 l 2
 61.7598 -40.3506 64.4004 -31.6406 70.1748 -21.2617 c 0
 73.7773 -14.3955 78.2686 -7.58887 83.4277 -1.45312 c 0
 89.7588 5.70703 96.8174 11.7197 105.003 17.5225 c 2
 226.618 89.165 l 2
 229.107 89.9229 233.929 91.2441 237.417 93.0938 c 0
 238.67 93.0576 239.444 93.0244 239.973 92.9834 c 0
 240.463 93.3047 240.816 93.6777 240.942 94.1455 c 0
 241.25 95.2949 242.019 98.8145 242.229 99.959 c 0
 250.936 160.273 223.649 190.056 217.769 229.336 c 0
 211.624 272.066 215.423 310.209 224.829 345.312 c 0
 230.617 366.915 238.566 387.514 247.436 407.266 c 0
 248.004 408.533 249.25 411.287 249.938 413.856 c 0
EndSplineSet
EndChar
StartChar: afii57683
Encoding: 325 1507 164
Width: 528
Flags: W
Validated: 33
HStem: 97.3447 188.919<210.869 282.262> 422.5 178.84<319.32 365.224 365.224 506.223> 624.51 20G<278.027 285.43>
VStem: 64.2891 535.995<93.7676 493.787 104.172 245.171>
Fore
211.185 431.737 m 1
 192.894 454.446 190.95 480.61 192.286 499.963 c 0
 192.905 508.943 194.438 518.157 197.029 527.825 c 0
 206.837 564.428 227.128 598.748 243.607 618.957 c 0
 249.391 626.049 252.04 629.822 259.368 635.372 c 0
 265.425 640.14 273.714 644.51 282.34 644.51 c 1
 288.521 642.733 294.923 643.997 301.028 634.097 c 0
 302.502 631.854 304.176 628.361 305.839 621.619 c 0
 309.586 606.431 319.832 601.34 354.82 601.34 c 0
 361.355 601.34 368.366 601.473 375.664 601.473 c 2
 514.664 601.473 l 2
 580.376 601.473 612.68 553.156 600.284 493.787 c 2
 465.056 -141.505 l 2
 464.229 -145.5 463.449 -148.765 462.441 -152.528 c 0
 450.306 -197.819 422.631 -236.976 380.302 -266.034 c 0
 373.74 -270.538 369.681 -272.709 362.612 -275.776 c 0
 355.303 -278.947 348.911 -280.396 343.601 -280.396 c 0
 332.09 -280.396 316.777 -273.101 324.597 -243.922 c 0
 324.76 -243.312 325.272 -241.522 325.458 -240.913 c 2
 501.941 346.788 l 2
 502.773 349.338 503.562 351.974 504.219 354.429 c 0
 511.875 383.001 511.709 422.5 468.709 422.5 c 2
 281.031 422.5 l 1
 263.611 409.174 236.792 375.696 226.589 337.614 c 0
 224.903 331.325 223.723 325.169 223.231 319.162 c 0
 221.021 292.162 243.438 286.264 286.988 286.264 c 0
 292.836 286.264 298.745 286.362 304.802 286.493 c 0
 305.34 286.505 306.856 286.534 307.392 286.534 c 0
 345.892 286.534 370.706 260.623 368.201 218.635 c 0
 367.623 208.939 366.39 198.993 363.64 188.727 c 0
 355.842 159.626 336.939 131.625 302.004 113.111 c 0
 273.661 98.0908 238.38 97.3447 223.529 97.3447 c 0
 198.483 97.3447 174.73 100.42 157.915 103.387 c 1
 148.428 96.6758 135.06 86.1113 120.779 77.0928 c 0
 112.513 71.873 101.276 66.7227 90.0459 66.7227 c 0
 75.6211 66.7227 69.8975 74.9307 68.6582 76.626 c 1
 64.3398 87.8438 63.6406 86.502 64.2891 93.7676 c 0
 64.3945 94.9443 65.0459 98.5479 65.3652 99.7422 c 0
 66.1699 102.745 70.7109 118.018 87.8936 130.197 c 2
 107.612 143.774 l 1
 94.2539 185.641 98.7031 226.028 107.775 259.886 c 0
 111.197 272.657 115.265 284.518 119.195 295.255 c 0
 138.021 346.173 173.165 399.595 211.185 431.737 c 1
EndSplineSet
EndChar
StartChar: afii57684
Encoding: 326 1508 165
Width: 526
Flags: W
Validated: 41
VStem: 23.8467 568.196<28.7607 527.197 28.7607 50.3196>
Fore
186.806 212 m 1
 203.687 209.279 246.936 214.724 271.981 214.724 c 0
 286.831 214.724 322.097 215.408 350.105 229.183 c 0
 384.63 246.161 402.909 271.84 410.061 298.527 c 0
 412.583 307.943 413.595 317.064 413.958 325.956 c 0
 415.529 364.462 390.14 388.225 351.64 388.225 c 0
 351.104 388.225 349.588 388.195 349.05 388.184 c 0
 339.352 387.978 329.744 387.75 320.549 387.75 c 0
 296.775 387.75 282.38 389.63 274.615 392.865 c 0
 268.399 395.455 267.981 397.358 268.343 400.722 c 0
 268.399 401.245 268.821 402.783 268.963 403.312 c 0
 269.734 406.191 270.653 408.516 271.675 410.44 c 0
 273.307 413.513 275.043 415.368 276.558 416.796 c 0
 280.39 420.407 284.957 422.898 288.804 424.748 c 1
 353.367 415.974 473.146 440.314 505.208 372.793 c 0
 517.987 348.291 515.48 292.465 492.686 207.392 c 0
 491.46 202.819 480.003 156.292 478.729 152 c 1
 186.729 152 l 1
 146.996 153 l 1
 138.39 148.096 106.596 157.901 99.6562 148 c 2
 30.8262 43.2471 l 2
 27.2764 37.8438 25 33.0635 23.8467 28.7607 c 0
 19.1738 11.3193 30.2012 -0.30957 51.417 -0.30957 c 2
 395.417 -0.30957 l 2
 423.551 -0.30957 441.163 17.2393 450.438 29.5254 c 2
 533.123 146.735 l 2
 543.845 163.188 547.801 173.383 553.169 191.009 c 0
 560.199 214.095 566.639 237.137 572.655 259.592 c 0
 600.5 363.511 620.157 468.486 592.043 527.197 c 0
 557.36 599.625 447.781 598.185 387.635 601.459 c 0
 354.13 603.283 323.625 597.942 317.757 621.611 c 0
 316.124 628.199 313.907 631.862 312.4 634.017 c 0
 306.103 643.724 299.904 642.439 293.757 644.2 c 1
 284.092 644.2 275.244 638.919 268.885 633.569 c 0
 262.524 628.438 259.609 625.035 254.587 618.734 c 0
 236.554 596.11 221.726 569.177 213.932 540.089 c 0
 210.761 528.256 208.963 516.226 208.356 503.766 c 0
 207.462 485.361 207.311 460.368 230.162 441.56 c 1
 197.233 418.224 162.247 386.501 145.72 341.993 c 0
 143.338 335.577 141.304 329.354 139.674 323.27 c 0
 135.465 307.562 128.737 278.714 149.63 247.049 c 1
 149.63 247.049 180.397 208.914 186.806 212 c 1
EndSplineSet
EndChar
StartChar: afii57685
Encoding: 327 1509 166
Width: 607
Flags: W
Validated: 37
Fore
563.093 397.114 m 1
 291.033 177.856 l 1
 278.063 159.313 271.222 144.982 269.529 138.667 c 0
 269.693 139.276 270.016 140.369 270.225 140.896 c 0
 270.195 140.491 270.155 140.089 270.107 139.688 c 0
 266.148 62.1533 251.684 -68.4385 237.753 -120.429 c 0
 237.393 -121.775 236.665 -124.643 235.689 -127.328 c 0
 220.478 -170.332 190.129 -212.396 139.667 -262.631 c 0
 137.867 -264.101 132.654 -267.7 130.797 -268.845 c 0
 119.156 -275.267 105.041 -280.06 91.7676 -279.688 c 0
 87.918 -279.603 67.1465 -279.597 63.7178 -267.175 c 0
 63.2529 -264.209 63.8125 -261.094 64.2422 -259.487 c 0
 64.5215 -258.446 65.3838 -255.646 65.7031 -254.608 c 0
 78.752 -213.182 92.4062 -166.166 106.346 -114.142 c 0
 114.08 -85.2773 122.041 -55.0322 129.608 -23.4648 c 0
 152.885 73.7266 154.671 129.727 179.841 231.194 c 0
 180.959 235.701 182.145 240.18 183.315 244.552 c 0
 199.239 303.979 219.45 352.468 262.307 414.382 c 1
 245.43 414.309 228.438 414.223 206.772 413.896 c 0
 184.33 428.594 171.915 456.45 170.677 480.222 c 0
 169.17 502.285 171.702 522.673 176.414 540.259 c 0
 177.169 543.077 177.997 545.286 178.729 547.942 c 0
 183.609 565.561 199.604 599.967 212.749 614.384 c 0
 230.668 633.152 239.489 639.356 247.415 643.19 c 0
 252.027 644.498 258.287 645.864 264.979 645.661 c 0
 268.732 645.543 274.213 645.766 282.331 642.707 c 0
 289.798 637.811 293.981 630.021 295.999 626.438 c 0
 299.374 608.068 317.693 604.149 330.606 600.473 c 0
 359.11 595.664 379.882 590.42 401.967 573.492 c 0
 422.708 558.926 425.616 536.971 420.09 516.348 c 0
 412.308 487.302 391.871 447.168 357.584 418.88 c 0
 347.898 415.091 337.526 409.562 336.079 408.451 c 0
 309.27 372.883 296.748 353.605 285.266 322.384 c 0
 283.806 318.344 282.936 314.564 281.76 310.178 c 0
 276.239 289.576 271.827 265.537 270.472 241.437 c 1
 508.609 428.162 l 1
 482.614 454.384 476.884 487.058 487.167 530.471 c 0
 487.43 531.58 488.285 534.946 488.583 536.058 c 0
 492.284 549.871 501.021 586.599 561.947 628.213 c 0
 568.926 632.757 572.043 635.006 579.781 638.764 c 0
 588.657 642.22 601.248 645.952 612.545 645.757 c 0
 614.766 645.729 623.4 645.999 632.211 642.343 c 0
 638.656 638.391 640.935 632.8 642.791 628.21 c 0
 643.826 617.891 650.938 598.896 662.832 588.44 c 0
 695.292 570.196 716.362 540.818 708.771 503.479 c 0
 708.138 500.414 707.383 497.271 706.59 494.312 c 0
 696.655 457.237 678.31 431.537 646.988 401.889 c 0
 639.47 394.773 621.627 377.324 603.952 372.117 c 0
 599.872 370.915 596.643 370.269 593.678 370.526 c 0
 591.764 370.693 584.119 370.113 577.523 376.777 c 0
 576.747 377.562 574.811 380.136 574.236 381.086 c 0
 569.772 388.477 567.143 392.959 563.093 397.114 c 1
EndSplineSet
EndChar
StartChar: afii57686
Encoding: 328 1510 167
Width: 631
Flags: W
Validated: 33
HStem: 0 195<164.741 477.53>
Fore
71.5 0 m 2
 50.2842 0 39.4287 12.2705 44.3604 30.6758 c 0
 45.5762 35.2158 47.8545 40.293 51.5537 45.9619 c 2
 131.109 163.268 l 2
 146.484 185.341 165.433 195 186.75 195 c 2
 478.55 195 l 1
 324.872 307.096 l 2
 323.715 308.268 319.675 312.076 318.65 313.325 c 0
 315.206 317.522 309.764 326.19 311.474 340.1 c 0
 315.054 369.218 316.812 387.057 315.238 397.974 c 0
 313.676 408.807 315.247 410.297 303.969 411.021 c 0
 266.489 413.668 219.568 417.762 194.897 446.088 c 0
 184.521 458.002 178.368 475.059 177.092 493.703 c 0
 176.034 509.172 178.216 524.554 181.853 538.125 c 0
 182.842 541.817 183.956 545.234 185.018 548.574 c 0
 193.188 574.287 211.422 601.253 221.669 611.948 c 0
 224.596 615.003 239.386 631.434 253.653 638.743 c 0
 258.757 641.534 265.364 644.243 272.117 643.999 c 0
 273.96 643.933 280.818 644.297 288.067 638.488 c 0
 296.082 632.066 300.315 621.055 302.229 616.062 c 0
 307.731 601.712 330.421 595.742 339.139 593.364 c 0
 391.051 581.164 415.402 552.617 416.781 512.926 c 0
 417.169 501.736 415.466 490.886 412.743 480.725 c 0
 406.678 458.09 395.45 438.042 387.921 421.271 c 0
 387.439 420.198 386.731 418.716 386.469 417.734 c 0
 385.157 412.842 387.27 407.427 388.185 405.251 c 0
 388.21 405.188 423.227 371.892 466.113 338.396 c 1
 526.343 418.281 l 1
 527.177 419.183 l 1
 527.215 419.226 l 1
 526.659 419.704 l 2
 501.079 441.292 486.385 474.041 496.854 513.264 c 0
 497.144 514.347 497.871 517.359 498.161 518.442 c 0
 501.627 531.376 511.746 575.73 572.45 622.095 c 0
 581.187 628.768 585.721 632.188 595.584 637.157 c 0
 603.762 641.278 614.473 645.543 625.02 645.25 c 0
 627.221 645.183 635.85 645.739 643.677 638.279 c 0
 645.255 636.871 651.474 631.368 653.401 617.879 c 0
 653.701 615.78 658.642 598.723 674.927 588.378 c 0
 706.811 568.124 727.094 535.669 718.433 494.338 c 0
 717.728 490.977 716.978 487.882 716.125 484.702 c 0
 706.741 449.68 689.211 425.201 658.674 396.977 c 0
 651.327 390.188 633.242 373.959 615.628 368.921 c 0
 611.577 367.763 608.358 367.381 605.396 367.381 c 1
 603.559 367.81 595.525 367.048 589.129 373.709 c 0
 588.637 374.221 587.701 375.576 586.871 376.648 c 0
 582.378 382.449 581.137 385.22 580.035 387.409 c 1
 525.445 313.874 l 2
 525.291 313.674 524.5 312.74 523.754 311.809 c 1
 524.206 311.395 524.826 310.856 525.67 310.182 c 2
 611.156 230.566 l 2
 635.736 207.386 637.855 167.262 628.629 132.828 c 0
 623.49 113.648 614.408 93.7119 600.604 75.1914 c 0
 575.884 42.0254 528.045 0 449.5 0 c 2
 71.5 0 l 2
EndSplineSet
EndChar
StartChar: afii57687
Encoding: 329 1511 168
Width: 614
Flags: W
Validated: 33
HStem: 412.273 187.487<372.627 374.161 374.161 503.731> 624.51 20G<266.508 274.545>
Fore
192.611 231.737 m 4
 191.32 227.004 189.738 221.894 188.411 216.94 c 4
 163.101 122.479 156.329 -6.37402 134.009 -89.6758 c 4
 133.778 -90.5332 133.068 -93.124 132.825 -93.9814 c 4
 113.394 -162.394 93.1182 -231.675 22.3193 -297.967 c 4
 3.92188 -314.278 -4.12305 -319.152 -11.5771 -322.702 c 4
 -15.8555 -323.833 -21.4258 -324.905 -27.5977 -324.905 c 5
 -35.5273 -323.618 -47.7422 -324.074 -49.0723 -315.891 c 4
 -48.8984 -312.473 -48.0479 -309 -47.5713 -307.219 c 4
 -46.2236 -302.189 -44.4512 -296.873 -42.3555 -290.846 c 4
 -28.6865 -252.584 -19.752 -222.933 -12.5703 -196.131 c 4
 0.574219 -147.075 7.73438 -107.088 24.3496 -45.0811 c 4
 25.6875 -40.0859 27.0859 -34.9424 28.5557 -29.6533 c 4
 30.1465 -23.9287 31.7051 -18.2285 33.2207 -12.5703 c 4
 47.5654 40.9639 58.6748 91.4365 70.9141 137.112 c 4
 78.8242 166.634 87.0811 194.274 97.4893 219.489 c 4
 113.967 259.401 145.022 316.405 195.192 359.549 c 4
 204.535 367.583 216.806 377.593 231.207 381.122 c 4
 234.711 381.934 237.525 382.188 240.165 382.188 c 4
 259.288 382.188 265.69 367.812 261.692 353.415 c 6
 261.692 353.415 260.438 347.912 256.094 340.508 c 4
 255.589 339.646 253.965 337.084 253.393 336.243 c 4
 251.604 333.611 249.673 331.05 246.85 327.742 c 4
 207.827 282.007 200.282 259.87 192.611 231.737 c 4
374.161 599.76 m 0
 412.412 596.817 612.109 610.582 675.747 538.009 c 0
 712.288 489.016 695.432 378.438 674.581 300.626 c 0
 657.412 236.55 635.503 184.516 618.876 157.996 c 0
 596.44 123.49 543.308 80.6104 481.573 61.0029 c 0
 403.234 30.7773 287.374 34.7197 253.23 -4.65723 c 0
 247.251 -9.19629 245.69 -10.1484 239.398 -12.7441 c 0
 235.515 -13.9961 227.13 -16.5234 215.901 -16.3496 c 0
 213.369 -16.3105 203.41 -16.4844 193.778 -12.543 c 0
 184.3 -7.24512 180.691 1.01074 182.793 10.0098 c 0
 186.611 25.3447 194.154 42.6631 206.886 61.5576 c 0
 248.988 122.448 318.541 151.358 395.098 174.271 c 0
 468.692 192.449 518.767 185.119 559.162 214.42 c 0
 576.939 227.015 595.16 254.303 604.575 289.44 c 0
 616.081 332.381 613.535 367.222 602.124 383.406 c 0
 559.932 416.543 307.103 401.439 242.789 412.273 c 0
 184.649 432.623 185.229 476.912 187.667 510.345 c 0
 188.581 524.752 191.142 539.008 194.82 552.737 c 0
 202.267 580.529 216.774 606.264 234.538 627.88 c 0
 239.196 632.825 241.916 635.497 247.98 639.524 c 0
 253.578 642.033 261.675 644.51 271.34 644.51 c 1
 277.75 643.73 283.757 644.299 291.504 640.001 c 0
 293.171 638.446 295.662 635.803 297.786 631.05 c 0
 300.203 595.859 327.336 606.644 372.602 600 c 0
 373.136 599.939 373.656 599.859 374.161 599.76 c 0
EndSplineSet
EndChar
StartChar: afii57688
Encoding: 330 1512 169
Width: 572
Flags: W
Validated: 33
HStem: 417.083 184.575<296.712 342.667 342.667 549.392> 624.51 20G<254.008 261.913>
VStem: 168.456 470.116<468.946 525.841 435.514 500.599 500.599 500.599>
Fore
553.988 343.241 m 0
 566.372 382.234 542.357 417.083 492.586 417.083 c 2
 237.257 417.083 l 2
 182.526 417.083 166.516 472.88 168.456 500.599 c 0
 169.058 509.196 170.505 517.953 172.963 527.128 c 0
 181.498 558.979 199.515 593.719 219.672 619.051 c 0
 224.686 625.354 227.608 628.751 233.968 633.879 c 0
 240.327 639.229 249.175 644.51 258.84 644.51 c 1
 264.986 642.749 271.186 644.033 277.483 634.326 c 0
 278.989 632.171 281.203 628.506 282.84 621.919 c 0
 287.398 603.57 305.242 601.658 330.913 601.658 c 0
 337.535 601.658 345.852 601.79 354.516 601.79 c 2
 512.4 601.79 l 2
 585.1 601.79 657.828 571.796 638.572 435.514 c 0
 629.259 369.6 592.396 214.015 583.865 163.978 c 0
 582.486 155.892 579.962 142.514 575.601 126.239 c 0
 568.296 98.9756 556.508 63.2979 533.939 29.8018 c 0
 524.07 15.1533 513.947 4.07715 498.351 -1.80664 c 0
 493.604 -3.68555 488.521 -5.16504 483.963 -4.74121 c 0
 478.996 -4.27832 469.938 -4.66699 462.733 5.91016 c 0
 456.551 14.3369 455.848 25.9014 459.245 38.5811 c 0
 459.454 39.3633 460.077 41.4424 460.333 42.2227 c 0
 460.361 42.3154 514.987 220.449 553.988 343.241 c 0
EndSplineSet
EndChar
StartChar: afii57689
Encoding: 331 1513 170
Width: 786
Flags: W
Validated: 33
HStem: 0 195.016<250.062 260.493 337.22 509.39>
Fore
502.509 397.645 m 1
 337.22 195 l 1
 446.75 195 l 2
 506.879 195 554.177 216.336 587.723 247.037 c 0
 650.872 331.088 725.603 403.061 730.852 408.397 c 1
 717.756 418.531 669.184 448.254 668.558 495.459 c 0
 668.396 507.783 669.701 519.535 672.756 530.936 c 0
 677.048 546.954 687.215 579.814 742.384 622.736 c 0
 748.953 627.848 752.178 630.381 759.497 634.537 c 0
 769.788 640.771 781.09 645.542 791.645 645.25 c 0
 793.847 645.188 802.425 645.764 810.383 638.399 c 0
 812 636.998 818.451 631.495 820.403 617.886 c 0
 820.603 616.489 826.691 598.941 843.011 588.331 c 0
 873.958 568.209 894.094 535.665 885.434 494.343 c 0
 884.672 490.71 883.886 487.462 882.972 484.049 c 0
 873.628 449.177 856.155 424.495 825.521 396.84 c 0
 823.294 394.83 812.056 384.364 801.889 378.685 c 0
 796.894 375.896 790.574 373.385 783.998 373.385 c 0
 783.378 373.385 781.83 373.52 780.555 373.672 c 1
 736.377 329.948 688.179 259.869 626.747 153.664 c 0
 593.452 97.7471 547.351 0 394.5 0 c 2
 131.5 0 l 2
 114.857 0 101.571 9.59668 107.258 30.8203 c 0
 112.712 51.1748 122.063 91.0527 126.543 117.415 c 0
 142.364 210.531 132.757 200.777 151.573 270.834 c 0
 162.769 312.514 191.356 356.643 213.246 393.396 c 0
 216.285 398.498 217.915 402.061 218.377 404.178 c 0
 218.509 404.78 218.602 405.228 218.662 405.58 c 1
 199.948 413.575 186.883 425.019 178.639 436.886 c 0
 169.581 449.928 165.381 467.344 166.719 486.649 c 0
 167.441 497.068 169.072 506.897 171.606 516.354 c 0
 174.14 525.809 177.327 534.564 180.44 542.23 c 0
 191.51 569.485 209.989 597.098 220.67 608.527 c 0
 227.811 616.17 244.472 635.456 262.554 642.072 c 0
 267.684 644.041 272.055 644.896 275.744 644.698 c 0
 277.575 644.601 284.429 645.055 291.773 639.352 c 0
 300.035 633.494 304.479 622.816 306.199 618.021 c 0
 309.421 609.053 319.037 598.707 338.85 593.992 c 0
 353.038 590.617 396.141 578.35 408.746 529.471 c 0
 411.27 519.684 413.102 502.244 405.808 475.021 c 0
 402.235 461.689 397.04 447.888 390.093 434.819 c 0
 387.968 430.825 377.473 409.875 363.66 397.113 c 0
 351.03 385.444 338.961 384.005 333.664 384.005 c 0
 326.905 384.005 321.703 386.013 317.907 388.271 c 0
 303.429 396.884 290.771 396.262 287.504 396.155 c 0
 286.229 396.114 284.375 395.774 278.498 387.524 c 0
 277.998 386.824 276.68 384.901 274.716 381.76 c 0
 251.9 345.241 248.243 339.01 245.385 328.343 c 0
 243.769 322.311 242.995 315.093 242.47 304.172 c 0
 240.768 268.771 256.072 239.609 250.062 195.016 c 1
 255.75 195 l 2
 257.75 195 258.155 195 260.606 198.277 c 2
 449.913 436.802 l 1
 451.275 438.822 l 1
 425.609 459.451 419.832 486.88 427.991 521.963 c 0
 428.209 522.894 428.923 525.717 429.172 526.648 c 0
 433.036 541.069 442.294 579.412 499.731 622.855 c 0
 506.387 627.889 509.371 630.38 516.689 634.537 c 0
 526.981 640.771 538.282 645.542 549.633 645.25 c 0
 552.021 645.188 561.307 645.764 570.099 638.399 c 0
 571.893 637.029 579.002 631.75 581.525 618.451 c 2
 581.709 617.483 l 1
 581.734 616.475 l 2
 581.961 615.033 582.002 615.788 582.002 615.788 c 1
 582.002 615.788 582.204 615.219 582.402 614.744 c 0
 587.437 602.665 599.46 592.973 605.717 589.501 c 0
 641.203 569.812 662.528 537.833 654.51 497.774 c 0
 653.619 493.317 652.819 489.194 651.691 484.985 c 0
 642.825 451.897 624.232 429.074 592.621 402.509 c 0
 584.771 395.913 566.166 379.741 547.228 374.915 c 0
 542.854 373.802 539.379 373.202 536.155 373.441 c 0
 534.074 373.596 525.812 373.059 518.382 379.234 c 0
 517.508 379.962 515.299 382.348 514.638 383.229 c 0
 509.514 390.043 506.975 393.922 502.509 397.645 c 1
EndSplineSet
EndChar
StartChar: afii57690
Encoding: 332 1514 171
Width: 606
Flags: W
Validated: 33
HStem: 0 21G<33.4351 162.146> 440 161.658<334.684 393.751 393.751 587.265> 624.51 20G<305.677 313.583>
Fore
101.164 154.247 m 2
 116.769 178.447 138.582 184.422 155.072 184.779 c 1
 153.216 202.438 141.301 236.575 155.22 288.52 c 0
 156.744 294.208 158.594 300.039 160.753 306.098 c 0
 177.874 354.134 211.005 405.917 240.174 436.749 c 1
 224.352 452.483 217.968 476.792 220.134 500.885 c 0
 220.859 508.95 222.405 517.314 224.729 525.987 c 0
 234.692 563.172 254.812 598.343 271.34 619.044 c 0
 276.369 625.342 279.277 628.748 285.638 633.879 c 0
 291.997 639.229 300.844 644.51 310.509 644.51 c 1
 316.657 642.749 322.855 644.033 329.153 634.326 c 0
 330.66 632.171 332.868 628.504 334.51 621.919 c 0
 338.138 607.37 346.45 601.658 383.122 601.658 c 0
 389.776 601.658 396.941 601.79 404.419 601.79 c 2
 553.419 601.79 l 2
 618.77 601.79 691.497 571.795 672.242 435.514 c 0
 662.929 369.6 626.066 214.015 617.535 163.978 c 0
 616.156 155.891 613.632 142.514 609.271 126.239 c 0
 601.966 98.9756 590.178 63.2979 567.609 29.8018 c 0
 557.74 15.1533 547.618 4.07812 532.021 -1.80664 c 0
 527.274 -3.68555 522.191 -5.16504 517.633 -4.74121 c 0
 512.666 -4.27832 503.607 -4.66699 496.403 5.91016 c 0
 490.347 14.8066 489.815 27.0156 493.402 40.4023 c 0
 493.624 41.2275 494.282 43.4229 494.544 44.2461 c 0
 494.575 44.3447 551.861 232.406 592.696 362.042 c 0
 605.662 403.209 582.168 440 535.067 440 c 2
 312.97 440 l 1
 303.641 429.218 296.731 420.539 289.053 408.479 c 0
 278.137 391.337 270 373.803 265.241 356.042 c 0
 257.484 327.093 257.985 296.977 267.646 266.315 c 0
 278.715 231.186 288.729 185.261 274.401 131.791 c 0
 270.73 118.09 265.677 103.524 258.032 89.2012 c 0
 223.009 23.585 180.123 0 144.17 0 c 2
 44.1699 0 l 2
 22.7002 0 11.4756 11.5254 16.1084 28.8135 c 0
 17.3623 33.4951 19.6348 38.3594 23.9346 44.0557 c 2
 101.164 154.247 l 2
EndSplineSet
EndChar
StartChar: afii57716
Encoding: 333 1520 172
Width: 602
Flags: W
Validated: 33
HStem: -4.68652 21G<170.695 188.915 471.695 489.915>
VStem: 150.298 546.525<23.582 522.966 17.6376 44.6458>
Fore
692.565 496.839 m 0
 683.923 464.583 665.701 433.901 637.851 407.681 c 0
 636.847 406.735 632.66 402.226 629.964 397.751 c 0
 629.605 397.156 629.847 397.672 629.121 396.236 c 0
 628.914 395.826 629.209 396.646 628.546 394.965 c 0
 628.284 394.302 628.729 395.9 628.215 393.979 c 0
 628.144 393.715 628.068 393.229 628.04 392.963 c 0
 620.94 325.17 606.972 214.273 598.5 159.104 c 0
 596.651 147.723 594.016 136.424 592.479 130.69 c 0
 585.036 102.913 569.273 62.0908 535.745 20.3037 c 0
 529.334 13.1738 527.979 11.7344 521.489 6.91797 c 0
 510.276 -0.210938 496.567 -4.68652 483.263 -4.68652 c 0
 460.128 -4.68652 446.954 7.37207 451.298 23.582 c 0
 451.436 24.0947 451.89 25.7305 452.042 26.2422 c 0
 496.684 172.592 540.455 319.555 561.264 392.765 c 0
 561.313 392.939 561.634 393.948 561.682 394.124 c 0
 563.093 399.393 561.288 404.86 556.632 406.148 c 0
 517.428 409.894 494.027 413.901 481.294 417.296 c 0
 463.87 431.201 447.704 455.085 445.939 485.724 c 0
 444.426 505.464 448.681 528.553 453.55 546.727 c 0
 454.69 550.983 455.923 554.691 457.061 558.154 c 0
 465.125 582.379 484.316 607.896 495.996 617.896 c 0
 499.333 620.604 516.243 635.133 533.273 641.507 c 0
 539.009 642.839 546.548 644.128 554.889 644.01 c 0
 557.176 643.979 565.585 644.16 575.675 641.38 c 0
 586.276 636.396 592.407 627.803 595.325 623.924 c 0
 601.58 604.567 625.52 597.083 634.123 593.936 c 0
 688.939 581.78 697.644 543.33 696.823 522.966 c 0
 696.362 514.27 694.88 505.477 692.565 496.839 c 0
392.016 496.839 m 0
 383.373 464.583 364.701 433.901 336.851 407.681 c 0
 335.847 406.735 331.66 402.226 328.964 397.751 c 0
 328.605 397.156 328.847 397.672 328.121 396.236 c 0
 327.914 395.826 328.209 396.646 327.546 394.965 c 0
 327.284 394.302 327.729 395.9 327.215 393.979 c 0
 327.144 393.715 327.068 393.229 327.04 392.963 c 0
 319.94 325.17 305.972 214.273 297.5 159.104 c 0
 295.651 147.723 293.016 136.424 291.479 130.69 c 0
 284.036 102.913 268.273 62.0908 234.745 20.3037 c 0
 228.334 13.1738 226.979 11.7344 220.489 6.91797 c 0
 209.276 -0.210938 195.567 -4.68652 182.263 -4.68652 c 0
 159.128 -4.68652 145.955 7.37305 150.298 23.582 c 0
 150.436 24.0947 150.89 25.7305 151.042 26.2422 c 0
 195.684 172.592 239.455 319.555 260.264 392.765 c 0
 260.313 392.939 260.634 393.948 260.682 394.124 c 0
 262.093 399.393 260.288 404.86 255.632 406.148 c 0
 223.368 409.894 204.512 413.901 194.312 417.296 c 0
 180.813 431.201 168.837 455.085 168.925 485.724 c 0
 168.674 505.464 173.287 528.553 178.157 546.727 c 0
 179.298 550.983 180.485 554.691 181.584 558.154 c 0
 189.356 582.379 206.254 607.896 216.264 617.896 c 0
 219.115 620.604 233.608 635.133 247.794 641.507 c 0
 252.531 642.839 258.734 644.128 265.521 644.01 c 0
 267.382 643.979 274.239 644.16 282.317 641.38 c 0
 290.702 636.396 295.268 627.803 297.451 623.924 c 0
 301.581 604.567 324.52 597.083 333.123 593.936 c 0
 387.939 581.78 396.644 543.33 395.823 522.966 c 0
 395.614 514.27 394.33 505.477 392.016 496.839 c 0
EndSplineSet
EndChar
